<svg width="473" height="744" viewBox="0 0 473 744" fill="none" xmlns="http://www.w3.org/2000/svg">
<rect width="473" height="744" fill="#F2F2F2"/>
<path d="M193.348 26.6325L193.336 23.3952L186.495 23.4205L186.514 28.4888L192.036 28.4684L192.05 32.1891L186.527 32.2095L186.549 37.9956L193.389 37.9703L193.377 34.7037L197.611 34.6881L197.637 41.7046L178.169 41.7766L178.155 38.0266L180.821 38.0168L180.767 23.4417L178.101 23.4515L178.087 19.7016L197.555 19.6296L197.581 26.6168L193.348 26.6325ZM216.993 23.3077L214.151 23.3182L214.137 19.5683L223.995 19.5318L224.009 23.2818L220.933 23.2932L221.001 41.7647L216.109 41.7828L206.497 25.4413L206.544 37.9217L209.312 37.9114L209.326 41.6614L199.658 41.6971L199.644 37.9472L202.618 37.9362L202.564 23.3611L199.59 23.3721L199.577 19.6221L208.849 19.5878L217.03 33.3565L216.993 23.3077ZM232.842 23.2491L236.604 34.2656L240.283 23.2216L237.5 23.2319L237.486 19.4819L247.228 19.4459L247.241 23.1959L244.575 23.2057L238.286 41.6715L233.731 41.6883L227.085 23.2704L224.449 23.2802L224.435 19.5302L235.685 19.4886L235.699 23.2386L232.842 23.2491ZM263.247 29.6699L265.704 36.6482L268.491 29.6506L266.484 29.658L266.471 26.0545L274.601 26.0244L274.614 29.6279L272.417 29.636L267.452 41.6808L263.291 41.6962L258.047 29.6892L255.835 29.6974L255.822 26.0939L265.153 26.0594L265.166 29.6628L263.247 29.6699ZM290.268 32.1189L290.289 37.8171L292.779 37.8079L292.792 41.3528L285.41 41.3801L285.405 40.1789C284.012 41.1411 282.617 41.6248 281.221 41.6299C279.532 41.6362 278.177 41.2066 277.159 40.3412C276.14 39.4759 275.628 38.3059 275.622 36.8313C275.616 35.2688 276.178 34.0167 277.307 33.075C278.447 32.1235 279.958 31.6443 281.843 31.6373C282.497 31.6349 283.079 31.706 283.587 31.8506C284.105 31.9854 284.702 32.2225 285.377 32.5618L285.372 31.3313C285.369 30.5501 285.123 29.926 284.633 29.459C284.143 28.9921 283.41 28.7604 282.433 28.764C281.369 28.768 280.428 29.1816 279.611 30.005L275.653 29.3018C276.845 26.8755 279.321 25.6554 283.081 25.6415C285.659 25.632 287.497 26.1574 288.594 27.2178C289.702 28.2684 290.26 29.9021 290.268 32.1189ZM282.308 38.5644C283.187 38.5611 284.215 38.03 285.393 36.9709L285.388 35.594C284.331 34.9143 283.363 34.5761 282.484 34.5793C281.781 34.5819 281.244 34.7499 280.874 35.0833C280.505 35.4167 280.321 35.891 280.323 36.5063C280.328 37.8832 280.99 38.5692 282.308 38.5644ZM307.471 25.7271L307.488 30.3413C306.141 30.4342 305.067 30.653 304.268 30.9978C303.478 31.3327 302.865 31.9112 302.428 32.7331C302.002 33.555 301.791 34.7277 301.797 36.2511L301.803 37.7745L304.864 37.7632L304.877 41.3081L294.081 41.348L294.068 37.8031L296.895 37.7927L296.865 29.5456L294.184 29.5556L294.171 25.9521L301.349 25.9255L301.363 29.8366C301.72 28.6537 302.385 27.6697 303.359 26.8849C304.333 26.1 305.542 25.7049 306.987 25.6996C307.202 25.6988 307.363 25.708 307.471 25.7271Z" fill="#5A5454"/>
<path d="M329.181 370.998C329.189 373.136 328.154 374.659 326.078 375.565C327.417 376.058 328.416 376.743 329.074 377.619C329.731 378.486 330.062 379.559 330.067 380.838C330.083 385.135 326.868 387.295 320.423 387.319L310.169 387.357L310.155 383.607L312.88 383.597L312.826 369.022L310.101 369.032L310.087 365.282L320.341 365.244C323.32 365.233 325.533 365.704 326.982 366.655C328.441 367.607 329.174 369.054 329.181 370.998ZM323.455 371.312C323.451 370.452 323.137 369.853 322.51 369.514C321.894 369.164 321.024 368.992 319.901 368.996L318.553 369.001L318.572 373.981L320.344 373.975C321.389 373.971 322.17 373.768 322.686 373.365C323.202 372.963 323.458 372.279 323.455 371.312ZM324.178 380.699C324.174 379.625 323.858 378.854 323.232 378.388C322.615 377.921 321.549 377.691 320.036 377.697L318.586 377.702L318.607 383.576L320.863 383.568C321.879 383.564 322.684 383.331 323.278 382.87C323.881 382.409 324.181 381.685 324.178 380.699ZM341.224 383.434C342.064 383.431 342.971 383.056 343.945 382.31L343.919 375.44L341.561 375.449L341.547 371.846L348.798 371.819L348.842 383.669L351.362 383.66L351.375 387.205L343.963 387.232L343.958 385.943C342.429 386.964 340.941 387.478 339.496 387.483C338.002 387.489 336.838 387.078 336.005 386.251C335.172 385.424 334.753 384.283 334.747 382.828L334.72 375.474L332.406 375.483L332.392 371.879L339.57 371.853L339.606 381.55C339.608 382.273 339.723 382.77 339.948 383.043C340.184 383.306 340.609 383.436 341.224 383.434ZM360.574 367.395C360.577 368.177 360.311 368.827 359.776 369.346C359.25 369.856 358.621 370.112 357.889 370.115C357.147 370.118 356.506 369.857 355.967 369.331C355.438 368.796 355.172 368.157 355.169 367.415C355.166 366.683 355.427 366.052 355.953 365.523C356.488 364.984 357.127 364.713 357.869 364.71C358.601 364.707 359.232 364.973 359.761 365.509C360.3 366.034 360.571 366.663 360.574 367.395ZM362.612 383.618L362.625 387.163L353.118 387.198L353.105 383.653L355.449 383.645L355.418 375.398L353.074 375.406L353.061 371.803L360.283 371.776L360.326 383.627L362.612 383.618ZM373.495 383.578L373.508 387.123L364.002 387.158L363.989 383.613L366.391 383.604L366.335 368.604L363.933 368.613L363.92 365.083L371.244 365.056L371.313 383.586L373.495 383.578ZM393.139 383.505L393.152 387.05L385.754 387.078L385.748 385.247C384.347 386.629 382.855 387.323 381.273 387.329C379.974 387.333 378.825 386.991 377.827 386.301C376.828 385.602 376.043 384.643 375.472 383.424C374.911 382.206 374.628 380.849 374.622 379.355C374.617 377.812 374.89 376.434 375.442 375.221C376.004 374.008 376.796 373.063 377.819 372.385C378.842 371.698 379.983 371.352 381.243 371.347C383.05 371.341 384.537 372.033 385.704 373.425L385.686 368.533L383.254 368.542L383.241 365.012L390.551 364.985L390.619 383.515L393.139 383.505ZM382.709 383.456C383.666 383.453 384.412 383.074 384.946 382.32C385.49 381.556 385.76 380.574 385.755 379.373C385.751 378.171 385.469 377.191 384.909 376.431C384.36 375.672 383.606 375.294 382.649 375.297C381.722 375.301 380.986 375.684 380.442 376.448C379.898 377.212 379.628 378.184 379.632 379.366C379.637 380.557 379.914 381.538 380.463 382.307C381.013 383.077 381.762 383.46 382.709 383.456Z" fill="#5A5454"/>
<path d="M131.028 662.194C131.037 664.509 130.551 666.473 129.57 668.088C128.6 669.703 127.252 670.924 125.526 671.751C123.801 672.577 121.805 672.995 119.54 673.003L107.367 673.048L107.353 669.298L110.708 669.286L110.654 654.711L107.299 654.723L107.285 650.973L119.194 650.929C121.47 650.921 123.488 651.304 125.249 652.079C127.019 652.844 128.42 654.074 129.452 655.769C130.493 657.455 131.019 659.597 131.028 662.194ZM125.022 662.026C125.013 659.594 124.439 657.76 123.302 656.524C122.174 655.288 120.517 654.674 118.329 654.682L116.381 654.69L116.435 669.265L117.783 669.26C119.765 669.252 121.287 668.915 122.349 668.247C123.421 667.569 124.136 666.717 124.493 665.69C124.851 664.654 125.027 663.432 125.022 662.026ZM150.13 666.225L138.646 666.268C138.767 667.449 139.176 668.385 139.872 669.076C140.578 669.757 141.482 670.095 142.586 670.091C143.806 670.086 144.996 669.477 146.153 668.261L149.966 669.478C149.131 670.741 148.095 671.692 146.857 672.331C145.619 672.961 144.15 673.279 142.451 673.285C140.752 673.291 139.247 672.979 137.936 672.349C136.635 671.71 135.621 670.805 134.894 669.636C134.176 668.467 133.815 667.091 133.809 665.509C133.803 663.947 134.169 662.529 134.907 661.257C135.654 659.985 136.661 658.99 137.928 658.272C139.204 657.545 140.59 657.178 142.084 657.173C143.705 657.167 145.117 657.538 146.321 658.285C147.525 659.023 148.452 660.079 149.102 661.453C149.761 662.818 150.104 664.409 150.13 666.225ZM141.862 660.44C140.983 660.443 140.276 660.7 139.74 661.21C139.215 661.72 138.886 662.497 138.753 663.543L145.169 663.519C145.029 662.601 144.65 661.861 144.033 661.296C143.425 660.723 142.701 660.437 141.862 660.44ZM169.433 665.289C169.439 666.793 169.175 668.147 168.643 669.35C168.11 670.543 167.337 671.484 166.324 672.171C165.321 672.858 164.16 673.205 162.842 673.209C161.22 673.215 159.719 672.581 158.337 671.307L158.356 676.244L161.403 676.232L161.416 679.777L150.869 679.816L150.856 676.271L153.463 676.262L153.407 661.086L151.21 661.094L151.196 657.491L158.286 657.464L158.293 659.383C159.646 657.962 161.161 657.249 162.841 657.243C164.199 657.237 165.372 657.59 166.361 658.299C167.359 658.998 168.12 659.957 168.642 661.176C169.164 662.395 169.428 663.766 169.433 665.289ZM161.406 669.333C162.373 669.329 163.114 668.97 163.629 668.255C164.144 667.531 164.399 666.509 164.394 665.191C164.389 663.931 164.122 662.951 163.592 662.25C163.062 661.548 162.304 661.2 161.318 661.203C160.38 661.207 159.63 661.576 159.066 662.31C158.512 663.045 158.237 664.032 158.242 665.272C158.246 666.434 158.538 667.405 159.117 668.184C159.706 668.953 160.469 669.336 161.406 669.333ZM180.083 669.235L180.096 672.779L170.589 672.815L170.576 669.27L172.978 669.261L172.923 654.261L170.521 654.27L170.508 650.74L177.832 650.712L177.9 669.243L180.083 669.235ZM197.382 665.01C197.387 666.544 197.031 667.927 196.313 669.16C195.595 670.393 194.622 671.358 193.394 672.056C192.166 672.754 190.815 673.106 189.34 673.111C187.778 673.117 186.38 672.776 185.147 672.087C183.914 671.398 182.949 670.44 182.251 669.212C181.563 667.984 181.216 666.603 181.21 665.07C181.204 663.547 181.551 662.173 182.249 660.95C182.958 659.727 183.931 658.766 185.169 658.068C186.406 657.36 187.777 657.004 189.281 656.998C190.814 656.993 192.197 657.339 193.43 658.038C194.663 658.726 195.629 659.68 196.327 660.898C197.024 662.116 197.376 663.487 197.382 665.01ZM189.297 669.288C190.254 669.285 191 668.911 191.534 668.167C192.078 667.413 192.348 666.338 192.342 664.941C192.338 663.633 192.06 662.613 191.511 661.883C190.971 661.142 190.213 660.774 189.236 660.778C188.25 660.781 187.504 661.15 186.999 661.885C186.494 662.609 186.244 663.704 186.249 665.169C186.254 666.409 186.531 667.409 187.081 668.169C187.64 668.918 188.379 669.292 189.297 669.288ZM204.764 660.896L207.368 667.757L210.067 660.877L208.06 660.884L208.047 657.28L216.147 657.25L216.161 660.854L213.934 660.862L206.664 679.61L201.288 679.63L201.275 676.085L204.22 676.074L205.22 673.346L199.593 660.915L197.352 660.924L197.339 657.32L206.582 657.286L206.595 660.889L204.764 660.896ZM235.454 657.179L235.467 660.783L232.625 660.793L232.65 667.517C232.652 667.995 232.746 668.356 232.932 668.6C233.119 668.833 233.466 668.949 233.974 668.947C234.394 668.946 234.901 668.836 235.496 668.619L235.509 672.033C234.192 672.555 232.953 672.818 231.791 672.823C230.453 672.828 229.446 672.494 228.77 671.823C228.103 671.142 227.767 670.181 227.763 668.941L227.733 660.811L225.784 660.818L225.771 657.215L227.719 657.208L227.711 654.82L232.59 651.286L232.612 657.19L235.454 657.179ZM253.426 664.803C253.432 666.336 253.076 667.719 252.358 668.953C251.64 670.186 250.667 671.151 249.439 671.849C248.211 672.547 246.86 672.899 245.385 672.904C243.822 672.91 242.425 672.568 241.192 671.88C239.959 671.191 238.993 670.233 238.295 669.005C237.607 667.777 237.26 666.396 237.255 664.863C237.249 663.339 237.595 661.966 238.294 660.743C239.002 659.52 239.975 658.559 241.213 657.861C242.451 657.153 243.821 656.797 245.325 656.791C246.859 656.785 248.242 657.132 249.475 657.83C250.708 658.519 251.673 659.473 252.371 660.691C253.069 661.909 253.421 663.28 253.426 664.803ZM245.342 669.081C246.299 669.078 247.044 668.704 247.579 667.96C248.123 667.206 248.392 666.13 248.387 664.734C248.382 663.425 248.105 662.406 247.555 661.675C247.016 660.935 246.257 660.567 245.281 660.571C244.294 660.574 243.549 660.943 243.044 661.677C242.538 662.402 242.289 663.497 242.294 664.961C242.299 666.202 242.576 667.202 243.125 667.961C243.685 668.711 244.424 669.084 245.342 669.081ZM276.283 658.317L276.279 657.028L279.633 657.016L279.656 663.256L276.184 663.269C275.358 661.573 274.105 660.728 272.425 660.734C271.4 660.738 270.551 661.117 269.88 661.871C269.219 662.626 268.891 663.564 268.895 664.687C268.899 665.928 269.221 666.947 269.858 667.745C270.506 668.534 271.362 668.926 272.426 668.922C273.198 668.92 273.929 668.702 274.621 668.27C275.313 667.837 275.877 667.23 276.313 666.447L280.128 668.118C279.294 669.703 278.288 670.878 277.109 671.644C275.93 672.41 274.34 672.797 272.338 672.805C269.74 672.814 267.677 672.114 266.148 670.703C264.63 669.283 263.865 667.313 263.856 664.794C263.851 663.29 264.192 661.936 264.881 660.732C265.58 659.529 266.524 658.583 267.712 657.895C268.901 657.197 270.204 656.846 271.62 656.84C273.241 656.834 274.795 657.327 276.283 658.317ZM298.162 664.638C298.168 666.171 297.812 667.554 297.094 668.787C296.376 670.02 295.403 670.986 294.175 671.684C292.947 672.382 291.596 672.733 290.121 672.739C288.558 672.745 287.161 672.403 285.928 671.714C284.695 671.025 283.729 670.067 283.031 668.839C282.343 667.611 281.996 666.231 281.991 664.698C281.985 663.174 282.331 661.801 283.03 660.577C283.738 659.354 284.711 658.393 285.949 657.696C287.187 656.988 288.557 656.631 290.061 656.626C291.595 656.62 292.978 656.966 294.211 657.665C295.444 658.354 296.409 659.307 297.107 660.525C297.805 661.744 298.157 663.114 298.162 664.638ZM290.078 668.916C291.035 668.912 291.78 668.538 292.315 667.794C292.859 667.04 293.128 665.965 293.123 664.568C293.118 663.26 292.841 662.24 292.291 661.51C291.752 660.77 290.993 660.401 290.017 660.405C289.03 660.409 288.285 660.778 287.78 661.512C287.275 662.237 287.025 663.331 287.03 664.796C287.035 666.036 287.312 667.036 287.861 667.796C288.421 668.546 289.16 668.919 290.078 668.916ZM312.913 656.717L312.931 661.331C311.583 661.424 310.51 661.643 309.71 661.988C308.92 662.323 308.307 662.901 307.871 663.723C307.444 664.545 307.234 665.717 307.239 667.241L307.245 668.764L310.307 668.753L310.32 672.298L299.524 672.338L299.511 668.793L302.338 668.782L302.307 660.535L299.627 660.545L299.613 656.942L306.791 656.915L306.806 660.826C307.163 659.643 307.828 658.66 308.801 657.875C309.775 657.09 310.985 656.695 312.43 656.689C312.645 656.689 312.806 656.698 312.913 656.717ZM327.679 656.662L327.696 661.277C326.349 661.369 325.275 661.588 324.476 661.933C323.686 662.268 323.073 662.846 322.636 663.668C322.21 664.49 321.999 665.663 322.005 667.186L322.011 668.71L325.072 668.698L325.085 672.243L314.289 672.283L314.276 668.738L317.103 668.728L317.073 660.481L314.392 660.491L314.379 656.887L321.557 656.861L321.571 660.772C321.928 659.589 322.593 658.605 323.567 657.82C324.541 657.035 325.75 656.64 327.195 656.635C327.41 656.634 327.571 656.643 327.679 656.662ZM345.48 665.503L333.996 665.545C334.118 666.726 334.526 667.662 335.222 668.353C335.928 669.034 336.832 669.373 337.936 669.369C339.157 669.364 340.346 668.754 341.503 667.539L345.317 668.755C344.481 670.018 343.445 670.969 342.207 671.609C340.969 672.238 339.501 672.556 337.801 672.562C336.102 672.569 334.597 672.257 333.286 671.627C331.985 670.987 330.971 670.083 330.244 668.914C329.527 667.744 329.165 666.369 329.159 664.787C329.153 663.224 329.519 661.807 330.257 660.535C331.004 659.262 332.011 658.267 333.278 657.55C334.555 656.822 335.94 656.456 337.434 656.45C339.055 656.444 340.468 656.815 341.672 657.563C342.876 658.3 343.802 659.357 344.452 660.731C345.111 662.096 345.454 663.686 345.48 665.503ZM337.212 659.718C336.333 659.721 335.626 659.978 335.091 660.487C334.565 660.997 334.236 661.775 334.103 662.82L340.519 662.797C340.379 661.879 340 661.138 339.383 660.574C338.775 660 338.052 659.715 337.212 659.718ZM359.867 658.008L359.862 656.719L363.216 656.707L363.24 662.947L359.768 662.96C358.941 661.264 357.688 660.419 356.009 660.425C354.983 660.429 354.135 660.808 353.464 661.562C352.803 662.317 352.474 663.255 352.478 664.378C352.483 665.619 352.804 666.638 353.442 667.436C354.089 668.225 354.945 668.617 356.009 668.613C356.781 668.61 357.513 668.393 358.204 667.961C358.896 667.528 359.46 666.921 359.897 666.138L363.712 667.808C362.878 669.394 361.871 670.569 360.692 671.335C359.514 672.101 357.923 672.488 355.921 672.495C353.324 672.505 351.261 671.805 349.732 670.394C348.213 668.974 347.449 667.004 347.439 664.485C347.434 662.981 347.776 661.627 348.465 660.423C349.163 659.22 350.107 658.274 351.296 657.586C352.485 656.888 353.787 656.536 355.203 656.531C356.824 656.525 358.379 657.018 359.867 658.008ZM375.082 656.663L375.095 660.266L372.253 660.277L372.278 667C372.28 667.479 372.374 667.84 372.56 668.083C372.747 668.317 373.094 668.433 373.602 668.431C374.022 668.43 374.529 668.32 375.124 668.103L375.137 671.516C373.82 672.039 372.581 672.302 371.419 672.306C370.081 672.311 369.074 671.978 368.397 671.307C367.731 670.626 367.395 669.665 367.391 668.425L367.361 660.295L365.412 660.302L365.399 656.699L367.347 656.691L367.338 654.304L372.218 650.77L372.24 656.673L375.082 656.663ZM201.03 692.955C202.348 692.95 203.517 693.312 204.535 694.041C205.563 694.76 206.353 695.728 206.904 696.947C207.465 698.166 207.749 699.488 207.754 700.914C207.759 702.349 207.491 703.683 206.948 704.916C206.416 706.148 205.653 707.128 204.659 707.854C203.676 708.57 202.534 708.931 201.236 708.936C199.615 708.942 198.113 708.278 196.731 706.946L196.738 708.718L189.179 708.746L189.166 705.201L191.832 705.191L191.777 690.191L189.111 690.201L189.098 686.671L196.656 686.643L196.687 695.095C197.922 693.675 199.37 692.961 201.03 692.955ZM199.727 705.133C200.665 705.129 201.396 704.741 201.92 703.967C202.455 703.184 202.719 702.148 202.715 700.859C202.71 699.58 202.438 698.609 201.898 697.947C201.368 697.275 200.644 696.941 199.726 696.944C198.769 696.948 198.019 697.331 197.475 698.095C196.941 698.859 196.676 699.871 196.68 701.13C196.685 702.312 196.962 703.278 197.511 704.028C198.071 704.768 198.809 705.136 199.727 705.133ZM217.378 704.833C218.218 704.83 219.124 704.456 220.098 703.71L220.073 696.84L217.715 696.848L217.701 693.245L224.952 693.218L224.996 705.069L227.515 705.059L227.529 708.604L220.116 708.632L220.112 707.343C218.582 708.364 217.095 708.877 215.65 708.883C214.155 708.888 212.992 708.477 212.159 707.65C211.326 706.823 210.906 705.682 210.901 704.227L210.874 696.874L208.559 696.882L208.546 693.279L215.724 693.252L215.76 702.949C215.762 703.672 215.876 704.17 216.102 704.442C216.337 704.705 216.763 704.835 217.378 704.833ZM241.231 694.447L241.226 693.158L244.581 693.146L244.604 699.386L241.132 699.399C240.306 697.702 239.053 696.857 237.373 696.864C236.348 696.867 235.499 697.247 234.828 698.001C234.167 698.755 233.838 699.694 233.843 700.817C233.847 702.057 234.168 703.077 234.806 703.875C235.453 704.664 236.309 705.056 237.374 705.052C238.145 705.049 238.877 704.832 239.569 704.4C240.261 703.967 240.825 703.36 241.261 702.577L245.076 704.247C244.242 705.832 243.236 707.008 242.057 707.774C240.878 708.54 239.288 708.927 237.286 708.934C234.688 708.944 232.625 708.244 231.096 706.833C229.577 705.413 228.813 703.443 228.804 700.924C228.798 699.42 229.14 698.066 229.829 696.862C230.528 695.659 231.471 694.713 232.66 694.025C233.849 693.327 235.151 692.975 236.567 692.97C238.189 692.964 239.743 693.456 241.231 694.447ZM255.714 705.116L255.727 708.5L246.483 708.534L246.47 704.989L248.931 704.98L248.876 689.98L246.415 689.989L246.402 686.459L253.785 686.432L253.854 705.123L255.714 705.116ZM255.816 693.104L265.118 693.07L265.129 696.19L263.606 696.195L259.079 700.065L263.213 704.927L265.337 704.92L265.351 708.464L260.458 708.483L253.865 700.377L259.064 696.066L255.827 696.078L255.816 693.104ZM282.303 701.737L270.819 701.779C270.941 702.96 271.349 703.896 272.045 704.587C272.751 705.268 273.655 705.607 274.759 705.602C275.98 705.598 277.169 704.988 278.326 703.773L282.14 704.989C281.304 706.252 280.268 707.203 279.03 707.843C277.792 708.472 276.324 708.79 274.624 708.796C272.925 708.803 271.42 708.491 270.109 707.861C268.808 707.221 267.794 706.317 267.067 705.147C266.35 703.978 265.988 702.603 265.982 701.021C265.976 699.458 266.342 698.041 267.08 696.768C267.827 695.496 268.834 694.501 270.101 693.784C271.378 693.056 272.763 692.69 274.257 692.684C275.878 692.678 277.291 693.049 278.495 693.797C279.699 694.534 280.625 695.59 281.275 696.965C281.934 698.33 282.277 699.92 282.303 701.737ZM274.035 695.952C273.156 695.955 272.449 696.212 271.914 696.721C271.388 697.231 271.059 698.009 270.926 699.054L277.342 699.03C277.202 698.113 276.823 697.372 276.206 696.808C275.598 696.234 274.875 695.949 274.035 695.952ZM293.77 692.964L293.783 696.567L290.942 696.578L290.966 703.301C290.968 703.78 291.062 704.141 291.249 704.384C291.435 704.618 291.782 704.734 292.29 704.732C292.71 704.73 293.217 704.621 293.812 704.404L293.825 707.817C292.508 708.34 291.269 708.603 290.107 708.607C288.769 708.612 287.762 708.279 287.086 707.608C286.419 706.927 286.084 705.966 286.079 704.726L286.049 696.596L284.101 696.603L284.087 693L286.036 692.992L286.027 690.605L290.906 687.071L290.928 692.974L293.77 692.964Z" fill="#5A5454"/>
<path d="M72.9238 161.098V160.736H75.2578V163.744H72.9238C72.722 163.021 71.9733 162.66 70.6777 162.66C69.7467 162.66 69.2812 162.921 69.2812 163.441C69.2812 163.669 69.4049 163.839 69.6523 163.949C69.8997 164.06 70.2611 164.151 70.7363 164.223C72.071 164.392 73.1224 164.636 73.8906 164.955C74.6589 165.268 75.196 165.658 75.502 166.127C75.8079 166.589 75.9609 167.152 75.9609 167.816C75.9609 168.897 75.5898 169.74 74.8477 170.346C74.112 170.945 73.1094 171.244 71.8398 171.244C70.6029 171.244 69.763 170.997 69.3203 170.502V171H66.9375V167.465H69.3203C69.3854 167.953 69.6198 168.337 70.0234 168.617C70.4336 168.897 70.9382 169.037 71.5371 169.037C72.123 169.037 72.556 168.972 72.8359 168.842C73.1159 168.705 73.2559 168.471 73.2559 168.139C73.2559 167.911 73.1973 167.735 73.0801 167.611C72.9629 167.481 72.735 167.367 72.3965 167.27C72.0645 167.172 71.5534 167.061 70.8633 166.938C69.3268 166.697 68.2201 166.309 67.543 165.775C66.8724 165.235 66.5371 164.509 66.5371 163.598C66.5371 162.667 66.8854 161.934 67.582 161.4C68.2852 160.867 69.2096 160.6 70.3555 160.6C71.2799 160.6 72.1361 160.766 72.9238 161.098ZM82.2109 157.816C82.2109 158.337 82.0319 158.77 81.6738 159.115C81.3223 159.454 80.9023 159.623 80.4141 159.623C79.9193 159.623 79.4928 159.447 79.1348 159.096C78.7832 158.738 78.6074 158.311 78.6074 157.816C78.6074 157.328 78.7832 156.908 79.1348 156.557C79.4928 156.199 79.9193 156.02 80.4141 156.02C80.9023 156.02 81.3223 156.199 81.6738 156.557C82.0319 156.908 82.2109 157.328 82.2109 157.816ZM83.5293 168.637V171H77.1914V168.637H78.7539V163.139H77.1914V160.736H82.0059V168.637H83.5293ZM90.1309 160.736V163.139H88.2363V167.621C88.2363 167.94 88.2982 168.181 88.4219 168.344C88.5456 168.5 88.7767 168.578 89.1152 168.578C89.3952 168.578 89.7337 168.507 90.1309 168.363V170.639C89.252 170.984 88.4251 171.156 87.6504 171.156C86.7585 171.156 86.0879 170.932 85.6387 170.482C85.196 170.027 84.9746 169.385 84.9746 168.559V163.139H83.6758V160.736H84.9746V159.145L88.2363 156.801V160.736H90.1309ZM102.191 166.557H94.5352C94.6133 167.344 94.8835 167.969 95.3457 168.432C95.8145 168.887 96.4167 169.115 97.1523 169.115C97.9661 169.115 98.7604 168.712 99.5352 167.904L102.074 168.725C101.514 169.564 100.821 170.196 99.9941 170.619C99.1673 171.036 98.1875 171.244 97.0547 171.244C95.9219 171.244 94.9193 171.033 94.0469 170.609C93.181 170.18 92.5072 169.574 92.0254 168.793C91.5501 168.012 91.3125 167.094 91.3125 166.039C91.3125 164.997 91.5599 164.053 92.0547 163.207C92.556 162.361 93.2298 161.7 94.0762 161.225C94.929 160.743 95.8535 160.502 96.8496 160.502C97.9303 160.502 98.8711 160.753 99.6719 161.254C100.473 161.749 101.088 162.455 101.518 163.373C101.954 164.285 102.178 165.346 102.191 166.557ZM96.6934 162.68C96.1074 162.68 95.6354 162.849 95.2773 163.188C94.9258 163.526 94.7044 164.044 94.6133 164.74H98.8906C98.7995 164.128 98.5488 163.633 98.1387 163.256C97.735 162.872 97.2533 162.68 96.6934 162.68ZM118.305 168.48V171H110.805V168.48H112.826V158.803H110.668V156.283H116.41V168.48H118.305ZM75.0625 185.596V184.736H77.2988V188.896H74.9844C74.4375 187.764 73.6042 187.197 72.4844 187.197C71.8008 187.197 71.2344 187.448 70.7852 187.949C70.3424 188.451 70.1211 189.076 70.1211 189.824C70.1211 190.651 70.3327 191.331 70.7559 191.865C71.1855 192.393 71.7552 192.656 72.4648 192.656C72.9792 192.656 73.4674 192.513 73.9297 192.227C74.3919 191.94 74.7695 191.536 75.0625 191.016L77.6016 192.139C77.0417 193.193 76.3678 193.975 75.5801 194.482C74.7923 194.99 73.7311 195.244 72.3965 195.244C70.6647 195.244 69.291 194.772 68.2754 193.828C67.2663 192.878 66.7617 191.562 66.7617 189.883C66.7617 188.88 66.9928 187.979 67.4551 187.178C67.9238 186.377 68.5553 185.749 69.3496 185.293C70.1439 184.831 71.013 184.6 71.957 184.6C73.0378 184.6 74.0729 184.932 75.0625 185.596ZM89.6328 189.863C89.6328 190.885 89.3919 191.807 88.9102 192.627C88.4284 193.447 87.7773 194.089 86.957 194.551C86.1367 195.013 85.235 195.244 84.252 195.244C83.2103 195.244 82.2793 195.013 81.459 194.551C80.6387 194.089 79.9974 193.447 79.5352 192.627C79.0794 191.807 78.8516 190.885 78.8516 189.863C78.8516 188.848 79.0859 187.933 79.5547 187.119C80.0299 186.305 80.681 185.667 81.5078 185.205C82.3346 184.736 83.2493 184.502 84.252 184.502C85.2741 184.502 86.1953 184.736 87.0156 185.205C87.8359 185.667 88.4772 186.305 88.9395 187.119C89.4017 187.933 89.6328 188.848 89.6328 189.863ZM84.2324 192.695C84.8704 192.695 85.3685 192.448 85.7266 191.953C86.0911 191.452 86.2734 190.736 86.2734 189.805C86.2734 188.932 86.0911 188.252 85.7266 187.764C85.3685 187.269 84.8639 187.021 84.2129 187.021C83.5553 187.021 83.0573 187.266 82.7188 187.754C82.3802 188.236 82.2109 188.965 82.2109 189.941C82.2109 190.768 82.3932 191.436 82.7578 191.943C83.1289 192.445 83.6204 192.695 84.2324 192.695ZM101.762 188.457V192.637H103.305V195H98.4805V188.721C98.4805 188.239 98.4056 187.891 98.2559 187.676C98.1126 187.454 97.8685 187.344 97.5234 187.344C96.8984 187.344 96.2702 187.568 95.6387 188.018V192.637H97.2402V195H90.8242V192.637H92.3867V187.139H90.8242V184.736H95.6387V185.703C96.6152 184.967 97.6178 184.6 98.6465 184.6C99.6686 184.6 100.443 184.925 100.971 185.576C101.498 186.221 101.762 187.181 101.762 188.457ZM106.049 184.736V184.102C106.049 182.715 106.511 181.689 107.436 181.025C108.367 180.355 109.551 180.02 110.99 180.02C112.208 180.02 113.184 180.241 113.92 180.684C114.662 181.12 115.147 181.771 115.375 182.637L112.152 182.998C111.977 182.438 111.505 182.158 110.736 182.158C110.294 182.158 109.942 182.288 109.682 182.549C109.421 182.809 109.291 183.333 109.291 184.121V184.736H115.395V192.637H117.035V195H111.117V192.637H112.133V187.139H109.291V192.637H110.375V195H104.438V192.637H106.049V187.139H104.438V184.736H106.049ZM125.199 185.996V184.736H130.15V187.139H128.451V194.805C128.451 196.413 128.012 197.64 127.133 198.486C126.254 199.333 124.9 199.756 123.07 199.756C121.046 199.756 119.535 199.385 118.539 198.643L120.131 196.484C120.971 196.999 121.798 197.256 122.611 197.256C123.295 197.256 123.822 197.152 124.193 196.943C124.571 196.742 124.831 196.426 124.975 195.996C125.124 195.573 125.199 195 125.199 194.277V193.721C124.118 194.678 123.07 195.156 122.055 195.156C121.215 195.156 120.469 194.935 119.818 194.492C119.174 194.043 118.676 193.418 118.324 192.617C117.973 191.816 117.797 190.898 117.797 189.863C117.797 188.848 117.982 187.939 118.354 187.139C118.731 186.338 119.262 185.716 119.945 185.273C120.629 184.824 121.391 184.6 122.23 184.6C123.448 184.6 124.438 185.065 125.199 185.996ZM123.158 192.5C123.757 192.5 124.249 192.272 124.633 191.816C125.023 191.354 125.219 190.716 125.219 189.902C125.219 189.076 125.033 188.424 124.662 187.949C124.298 187.474 123.796 187.236 123.158 187.236C122.54 187.236 122.051 187.48 121.693 187.969C121.335 188.457 121.156 189.095 121.156 189.883C121.156 190.638 121.335 191.263 121.693 191.758C122.051 192.253 122.54 192.5 123.158 192.5Z" fill="#F2F2F2"/>
<path d="M264.1 141.875H219.55L209.65 132H184.9C179.455 132 175 136.444 175 141.875V201.125C175 206.556 179.455 211 184.9 211H264.1C269.545 211 274 206.556 274 201.125V151.75C274 146.319 269.545 141.875 264.1 141.875Z" fill="#285477"/>
<path d="M211.404 170.619V173.695C210.506 173.754 209.79 173.897 209.256 174.125C208.729 174.346 208.318 174.73 208.025 175.277C207.739 175.824 207.596 176.605 207.596 177.621V178.637H209.637V181H202.439V178.637H204.324V173.139H202.537V170.736H207.322V173.344C207.563 172.556 208.009 171.902 208.66 171.381C209.311 170.86 210.118 170.6 211.082 170.6C211.225 170.6 211.333 170.606 211.404 170.619ZM223.25 176.557H215.594C215.672 177.344 215.942 177.969 216.404 178.432C216.873 178.887 217.475 179.115 218.211 179.115C219.025 179.115 219.819 178.712 220.594 177.904L223.133 178.725C222.573 179.564 221.88 180.196 221.053 180.619C220.226 181.036 219.246 181.244 218.113 181.244C216.98 181.244 215.978 181.033 215.105 180.609C214.24 180.18 213.566 179.574 213.084 178.793C212.609 178.012 212.371 177.094 212.371 176.039C212.371 174.997 212.618 174.053 213.113 173.207C213.615 172.361 214.288 171.7 215.135 171.225C215.988 170.743 216.912 170.502 217.908 170.502C218.989 170.502 219.93 170.753 220.73 171.254C221.531 171.749 222.146 172.455 222.576 173.373C223.012 174.285 223.237 175.346 223.25 176.557ZM217.752 172.68C217.166 172.68 216.694 172.849 216.336 173.188C215.984 173.526 215.763 174.044 215.672 174.74H219.949C219.858 174.128 219.607 173.633 219.197 173.256C218.794 172.872 218.312 172.68 217.752 172.68ZM236.121 175.98C236.121 176.983 235.942 177.885 235.584 178.686C235.226 179.48 234.708 180.105 234.031 180.561C233.361 181.016 232.586 181.244 231.707 181.244C230.626 181.244 229.627 180.818 228.709 179.965V183.256H230.74V185.619H223.709V183.256H225.447V173.139H223.982V170.736H228.709V172.016C229.614 171.072 230.626 170.6 231.746 170.6C232.651 170.6 233.432 170.837 234.09 171.312C234.754 171.781 235.258 172.423 235.604 173.236C235.949 174.05 236.121 174.965 236.121 175.98ZM230.76 178.656C231.404 178.656 231.899 178.419 232.244 177.943C232.589 177.462 232.762 176.781 232.762 175.902C232.762 175.062 232.586 174.408 232.234 173.939C231.883 173.471 231.378 173.236 230.721 173.236C230.096 173.236 229.594 173.48 229.217 173.969C228.846 174.457 228.66 175.115 228.66 175.941C228.66 176.716 228.852 177.364 229.236 177.885C229.627 178.399 230.135 178.656 230.76 178.656ZM248.426 175.863C248.426 176.885 248.185 177.807 247.703 178.627C247.221 179.447 246.57 180.089 245.75 180.551C244.93 181.013 244.028 181.244 243.045 181.244C242.003 181.244 241.072 181.013 240.252 180.551C239.432 180.089 238.79 179.447 238.328 178.627C237.872 177.807 237.645 176.885 237.645 175.863C237.645 174.848 237.879 173.933 238.348 173.119C238.823 172.305 239.474 171.667 240.301 171.205C241.128 170.736 242.042 170.502 243.045 170.502C244.067 170.502 244.988 170.736 245.809 171.205C246.629 171.667 247.27 172.305 247.732 173.119C248.195 173.933 248.426 174.848 248.426 175.863ZM243.025 178.695C243.663 178.695 244.161 178.448 244.52 177.953C244.884 177.452 245.066 176.736 245.066 175.805C245.066 174.932 244.884 174.252 244.52 173.764C244.161 173.269 243.657 173.021 243.006 173.021C242.348 173.021 241.85 173.266 241.512 173.754C241.173 174.236 241.004 174.965 241.004 175.941C241.004 176.768 241.186 177.436 241.551 177.943C241.922 178.445 242.413 178.695 243.025 178.695Z" fill="#F2F2F2"/>
<path d="M333.924 161.098V160.736H336.258V163.744H333.924C333.722 163.021 332.973 162.66 331.678 162.66C330.747 162.66 330.281 162.921 330.281 163.441C330.281 163.669 330.405 163.839 330.652 163.949C330.9 164.06 331.261 164.151 331.736 164.223C333.071 164.392 334.122 164.636 334.891 164.955C335.659 165.268 336.196 165.658 336.502 166.127C336.808 166.589 336.961 167.152 336.961 167.816C336.961 168.897 336.59 169.74 335.848 170.346C335.112 170.945 334.109 171.244 332.84 171.244C331.603 171.244 330.763 170.997 330.32 170.502V171H327.938V167.465H330.32C330.385 167.953 330.62 168.337 331.023 168.617C331.434 168.897 331.938 169.037 332.537 169.037C333.123 169.037 333.556 168.972 333.836 168.842C334.116 168.705 334.256 168.471 334.256 168.139C334.256 167.911 334.197 167.735 334.08 167.611C333.963 167.481 333.735 167.367 333.396 167.27C333.064 167.172 332.553 167.061 331.863 166.938C330.327 166.697 329.22 166.309 328.543 165.775C327.872 165.235 327.537 164.509 327.537 163.598C327.537 162.667 327.885 161.934 328.582 161.4C329.285 160.867 330.21 160.6 331.355 160.6C332.28 160.6 333.136 160.766 333.924 161.098ZM343.211 157.816C343.211 158.337 343.032 158.77 342.674 159.115C342.322 159.454 341.902 159.623 341.414 159.623C340.919 159.623 340.493 159.447 340.135 159.096C339.783 158.738 339.607 158.311 339.607 157.816C339.607 157.328 339.783 156.908 340.135 156.557C340.493 156.199 340.919 156.02 341.414 156.02C341.902 156.02 342.322 156.199 342.674 156.557C343.032 156.908 343.211 157.328 343.211 157.816ZM344.529 168.637V171H338.191V168.637H339.754V163.139H338.191V160.736H343.006V168.637H344.529ZM351.131 160.736V163.139H349.236V167.621C349.236 167.94 349.298 168.181 349.422 168.344C349.546 168.5 349.777 168.578 350.115 168.578C350.395 168.578 350.734 168.507 351.131 168.363V170.639C350.252 170.984 349.425 171.156 348.65 171.156C347.758 171.156 347.088 170.932 346.639 170.482C346.196 170.027 345.975 169.385 345.975 168.559V163.139H344.676V160.736H345.975V159.145L349.236 156.801V160.736H351.131ZM363.191 166.557H355.535C355.613 167.344 355.883 167.969 356.346 168.432C356.814 168.887 357.417 169.115 358.152 169.115C358.966 169.115 359.76 168.712 360.535 167.904L363.074 168.725C362.514 169.564 361.821 170.196 360.994 170.619C360.167 171.036 359.188 171.244 358.055 171.244C356.922 171.244 355.919 171.033 355.047 170.609C354.181 170.18 353.507 169.574 353.025 168.793C352.55 168.012 352.312 167.094 352.312 166.039C352.312 164.997 352.56 164.053 353.055 163.207C353.556 162.361 354.23 161.7 355.076 161.225C355.929 160.743 356.854 160.502 357.85 160.502C358.93 160.502 359.871 160.753 360.672 161.254C361.473 161.749 362.088 162.455 362.518 163.373C362.954 164.285 363.178 165.346 363.191 166.557ZM357.693 162.68C357.107 162.68 356.635 162.849 356.277 163.188C355.926 163.526 355.704 164.044 355.613 164.74H359.891C359.799 164.128 359.549 163.633 359.139 163.256C358.735 162.872 358.253 162.68 357.693 162.68ZM380.408 159.965C380.408 161.443 379.669 162.527 378.191 163.217C380.04 163.848 380.965 165.017 380.965 166.723C380.965 167.602 380.727 168.383 380.252 169.066C379.783 169.743 379.129 170.268 378.289 170.639C377.449 171.01 376.502 171.195 375.447 171.195C371.925 171.195 370.037 169.59 369.783 166.381L372.986 166.117C372.999 167.836 373.706 168.695 375.105 168.695C375.75 168.695 376.274 168.493 376.678 168.09C377.081 167.686 377.283 167.188 377.283 166.596C377.283 165.984 377.068 165.489 376.639 165.111C376.215 164.727 375.613 164.535 374.832 164.535C374.708 164.535 374.435 164.551 374.012 164.584V161.898C374.917 161.885 375.623 161.726 376.131 161.42C376.639 161.114 376.893 160.674 376.893 160.102C376.893 159.646 376.72 159.275 376.375 158.988C376.036 158.702 375.607 158.559 375.086 158.559C373.914 158.559 373.328 159.213 373.328 160.521L370.232 160.258C370.337 158.923 370.838 157.885 371.736 157.143C372.635 156.394 373.82 156.02 375.291 156.02C376.847 156.02 378.087 156.374 379.012 157.084C379.943 157.787 380.408 158.747 380.408 159.965ZM336.062 185.596V184.736H338.299V188.896H335.984C335.438 187.764 334.604 187.197 333.484 187.197C332.801 187.197 332.234 187.448 331.785 187.949C331.342 188.451 331.121 189.076 331.121 189.824C331.121 190.651 331.333 191.331 331.756 191.865C332.186 192.393 332.755 192.656 333.465 192.656C333.979 192.656 334.467 192.513 334.93 192.227C335.392 191.94 335.77 191.536 336.062 191.016L338.602 192.139C338.042 193.193 337.368 193.975 336.58 194.482C335.792 194.99 334.731 195.244 333.396 195.244C331.665 195.244 330.291 194.772 329.275 193.828C328.266 192.878 327.762 191.562 327.762 189.883C327.762 188.88 327.993 187.979 328.455 187.178C328.924 186.377 329.555 185.749 330.35 185.293C331.144 184.831 332.013 184.6 332.957 184.6C334.038 184.6 335.073 184.932 336.062 185.596ZM350.633 189.863C350.633 190.885 350.392 191.807 349.91 192.627C349.428 193.447 348.777 194.089 347.957 194.551C347.137 195.013 346.235 195.244 345.252 195.244C344.21 195.244 343.279 195.013 342.459 194.551C341.639 194.089 340.997 193.447 340.535 192.627C340.079 191.807 339.852 190.885 339.852 189.863C339.852 188.848 340.086 187.933 340.555 187.119C341.03 186.305 341.681 185.667 342.508 185.205C343.335 184.736 344.249 184.502 345.252 184.502C346.274 184.502 347.195 184.736 348.016 185.205C348.836 185.667 349.477 186.305 349.939 187.119C350.402 187.933 350.633 188.848 350.633 189.863ZM345.232 192.695C345.87 192.695 346.368 192.448 346.727 191.953C347.091 191.452 347.273 190.736 347.273 189.805C347.273 188.932 347.091 188.252 346.727 187.764C346.368 187.269 345.864 187.021 345.213 187.021C344.555 187.021 344.057 187.266 343.719 187.754C343.38 188.236 343.211 188.965 343.211 189.941C343.211 190.768 343.393 191.436 343.758 191.943C344.129 192.445 344.62 192.695 345.232 192.695ZM362.762 188.457V192.637H364.305V195H359.48V188.721C359.48 188.239 359.406 187.891 359.256 187.676C359.113 187.454 358.868 187.344 358.523 187.344C357.898 187.344 357.27 187.568 356.639 188.018V192.637H358.24V195H351.824V192.637H353.387V187.139H351.824V184.736H356.639V185.703C357.615 184.967 358.618 184.6 359.646 184.6C360.669 184.6 361.443 184.925 361.971 185.576C362.498 186.221 362.762 187.181 362.762 188.457ZM367.049 184.736V184.102C367.049 182.715 367.511 181.689 368.436 181.025C369.367 180.355 370.551 180.02 371.99 180.02C373.208 180.02 374.184 180.241 374.92 180.684C375.662 181.12 376.147 181.771 376.375 182.637L373.152 182.998C372.977 182.438 372.505 182.158 371.736 182.158C371.294 182.158 370.942 182.288 370.682 182.549C370.421 182.809 370.291 183.333 370.291 184.121V184.736H376.395V192.637H378.035V195H372.117V192.637H373.133V187.139H370.291V192.637H371.375V195H365.438V192.637H367.049V187.139H365.438V184.736H367.049ZM386.199 185.996V184.736H391.15V187.139H389.451V194.805C389.451 196.413 389.012 197.64 388.133 198.486C387.254 199.333 385.9 199.756 384.07 199.756C382.046 199.756 380.535 199.385 379.539 198.643L381.131 196.484C381.971 196.999 382.798 197.256 383.611 197.256C384.295 197.256 384.822 197.152 385.193 196.943C385.571 196.742 385.831 196.426 385.975 195.996C386.124 195.573 386.199 195 386.199 194.277V193.721C385.118 194.678 384.07 195.156 383.055 195.156C382.215 195.156 381.469 194.935 380.818 194.492C380.174 194.043 379.676 193.418 379.324 192.617C378.973 191.816 378.797 190.898 378.797 189.863C378.797 188.848 378.982 187.939 379.354 187.139C379.731 186.338 380.262 185.716 380.945 185.273C381.629 184.824 382.391 184.6 383.23 184.6C384.448 184.6 385.438 185.065 386.199 185.996ZM384.158 192.5C384.757 192.5 385.249 192.272 385.633 191.816C386.023 191.354 386.219 190.716 386.219 189.902C386.219 189.076 386.033 188.424 385.662 187.949C385.298 187.474 384.796 187.236 384.158 187.236C383.54 187.236 383.051 187.48 382.693 187.969C382.335 188.457 382.156 189.095 382.156 189.883C382.156 190.638 382.335 191.263 382.693 191.758C383.051 192.253 383.54 192.5 384.158 192.5Z" fill="#F2F2F2"/>
<path d="M199.523 397.649C200.654 397.62 202.171 397.958 203.301 397.93C204.432 397.902 205.94 397.864 207.061 397.461L212.911 405.199C213.306 405.94 214.446 406.287 215.558 405.508L228.562 397.675C229.683 397.272 230.032 396.137 229.637 395.396L225.266 386.494C226.727 384.581 228.169 381.917 228.867 379.647L238.638 378.277C239.768 378.249 240.503 377.479 240.475 376.354L240.101 361.346C240.073 360.22 239.3 359.488 238.17 359.517L228.72 358.626C227.523 356.028 226.337 353.805 224.782 351.966L228.327 342.867C228.685 342.108 228.28 340.991 227.517 340.635L214.139 333.46C212.989 332.738 211.859 332.766 211.51 333.901L205.676 341.931C204.545 341.959 203.029 341.621 201.898 341.649C200.767 341.677 199.26 341.715 198.138 342.118L192.289 334.38C191.893 333.639 190.753 333.292 189.641 334.071L176.637 341.904C175.516 342.307 175.167 343.442 175.563 344.183L179.933 353.085C178.472 354.998 177.03 357.662 176.333 359.932L166.562 361.302C165.431 361.331 164.696 362.1 164.724 363.225L165.098 378.234C165.127 379.359 165.899 380.091 167.03 380.063L176.857 380.944C178.053 383.542 179.24 385.765 180.794 387.603L176.873 396.712C176.515 397.472 176.92 398.588 177.683 398.944L191.061 406.119C191.824 406.476 192.955 406.447 193.69 405.678L199.523 397.649ZM187.524 370.166C187.318 361.911 193.934 354.988 202.225 354.781C210.517 354.575 217.469 361.159 217.675 369.414C217.881 377.668 211.265 384.591 202.974 384.798C194.683 385.004 187.73 378.42 187.524 370.166Z" fill="#285477"/>
<path d="M249.68 414.717C250.384 415.027 251.22 415.675 251.924 415.986C252.628 416.296 253.567 416.71 254.374 416.787L255.73 423.246C255.759 423.816 256.36 424.36 257.27 424.204L267.544 423.154C268.351 423.231 268.895 422.633 268.866 422.062L268.758 415.317C270.212 414.563 271.872 413.341 272.959 412.147L279.37 414.137C280.074 414.447 280.749 414.187 281.059 413.486L285.18 404.141C285.489 403.44 285.226 402.766 284.522 402.456L278.964 399.167C278.982 397.221 278.896 395.509 278.472 393.927L283.292 389.355C283.733 388.991 283.807 388.187 283.441 387.746L277.288 379.451C276.79 378.673 276.086 378.363 275.542 378.96L269.624 382.21C268.92 381.9 268.084 381.252 267.38 380.942C266.676 380.631 265.737 380.217 264.93 380.14L263.574 373.682C263.546 373.111 262.945 372.567 262.035 372.724L251.76 373.773C250.953 373.697 250.409 374.294 250.438 374.865L250.546 381.61C249.092 382.364 247.433 383.586 246.345 384.78L239.934 382.79C239.23 382.48 238.555 382.74 238.246 383.441L234.124 392.786C233.815 393.487 234.078 394.161 234.782 394.472L240.575 397.864C240.557 399.809 240.643 401.522 241.067 403.104L236.012 407.572C235.572 407.936 235.497 408.74 235.863 409.181L242.016 417.476C242.382 417.917 243.086 418.227 243.762 417.967L249.68 414.717ZM250.265 394.324C252.532 389.184 258.611 386.842 263.774 389.119C268.937 391.396 271.306 397.464 269.039 402.604C266.772 407.743 260.693 410.086 255.531 407.809C250.368 405.532 247.998 399.463 250.265 394.324Z" fill="#285477"/>
<path d="M225.129 306.785C226.667 308.371 229.2 308.409 230.785 306.871L256.624 281.804C258.209 280.265 258.248 277.733 256.71 276.147C255.171 274.562 252.639 274.524 251.053 276.062L228.086 298.344L205.804 275.376C204.265 273.791 201.733 273.752 200.147 275.29C198.562 276.829 198.524 279.361 200.062 280.947L225.129 306.785ZM225 237.939L224 303.939L232 304.061L233 238.061L225 237.939Z" fill="#285477"/>
<path d="M225.129 527.785C226.667 529.371 229.2 529.409 230.785 527.871L256.624 502.804C258.209 501.265 258.248 498.733 256.71 497.147C255.171 495.562 252.639 495.524 251.053 497.062L228.086 519.344L205.804 496.376C204.265 494.791 201.733 494.752 200.147 496.29C198.562 497.829 198.524 500.361 200.062 501.947L225.129 527.785ZM225 458.939L224 524.939L232 525.061L233 459.061L225 458.939Z" fill="#285477"/>
<path d="M224.129 118.785C225.667 120.371 228.2 120.409 229.785 118.871L255.624 93.8037C257.209 92.2654 257.248 89.7331 255.71 88.1475C254.171 86.5619 251.639 86.5235 250.053 88.0618L227.086 110.344L204.804 87.3762C203.265 85.7906 200.733 85.7522 199.147 87.2905C197.562 88.8287 197.524 91.3611 199.062 92.9467L224.129 118.785ZM224 49.9394L223 115.939L231 116.061L232 50.0606L224 49.9394Z" fill="#285477"/>
<path d="M237 565C227.286 565 219.276 571.889 219.032 580.594C219.014 580.732 219 580.858 219 581C218.998 581.095 219.008 581.189 219.032 581.281C219.421 585.641 228.464 588 237 588C245.538 588 254.58 585.641 254.969 581.281C254.97 581.26 254.97 581.24 254.969 581.219C254.971 581.197 254.999 581.179 255 581.156C255.005 581.104 255.005 581.052 255 581C255 580.858 254.987 580.732 254.969 580.594C254.725 571.889 246.715 565 237 565ZM237 567C244.41 567 250.544 571.366 252.407 577.25C249.04 575.123 242.895 574 237 574C231.107 574 224.962 575.123 221.594 577.25C223.457 571.366 229.591 567 237 567ZM219 585.312V606C219 611.047 226.907 615 237 615C247.094 615 255 611.047 255 606V585.312C251.155 588.905 242.612 590 237 590C231.388 590 222.845 588.905 219 585.312ZM226 595.219C226 595.219 231.136 597 237 597C242.863 597 248 595.219 248 595.219V604.562C248 604.562 243.791 607 237 607C230.209 607 226 604.562 226 604.562V595.219Z" fill="#285477"/>
<path d="M309 565C299.286 565 291.276 571.889 291.032 580.594C291.014 580.732 291 580.858 291 581C290.998 581.095 291.008 581.189 291.032 581.281C291.421 585.641 300.464 588 309 588C317.538 588 326.58 585.641 326.969 581.281C326.97 581.26 326.97 581.24 326.969 581.219C326.971 581.197 326.999 581.179 327 581.156C327.005 581.104 327.005 581.052 327 581C327 580.858 326.987 580.732 326.969 580.594C326.725 571.889 318.715 565 309 565ZM309 567C316.41 567 322.544 571.366 324.407 577.25C321.04 575.123 314.895 574 309 574C303.107 574 296.962 575.123 293.594 577.25C295.457 571.366 301.591 567 309 567ZM291 585.312V606C291 611.047 298.907 615 309 615C319.094 615 327 611.047 327 606V585.312C323.155 588.905 314.612 590 309 590C303.388 590 294.845 588.905 291 585.312ZM298 595.219C298 595.219 303.136 597 309 597C314.863 597 320 595.219 320 595.219V604.562C320 604.562 315.791 607 309 607C302.209 607 298 604.562 298 604.562V595.219Z" fill="#285477"/>
<path d="M165 565C155.286 565 147.276 571.889 147.032 580.594C147.014 580.732 147 580.858 147 581C146.998 581.095 147.008 581.189 147.032 581.281C147.421 585.641 156.464 588 165 588C173.538 588 182.58 585.641 182.969 581.281C182.97 581.26 182.97 581.24 182.969 581.219C182.971 581.197 182.999 581.179 183 581.156C183.005 581.104 183.005 581.052 183 581C183 580.858 182.987 580.732 182.969 580.594C182.725 571.889 174.715 565 165 565ZM165 567C172.41 567 178.544 571.366 180.407 577.25C177.04 575.123 170.895 574 165 574C159.107 574 152.962 575.123 149.594 577.25C151.457 571.366 157.591 567 165 567ZM147 585.312V606C147 611.047 154.907 615 165 615C175.094 615 183 611.047 183 606V585.312C179.155 588.905 170.612 590 165 590C159.388 590 150.845 588.905 147 585.312ZM154 595.219C154 595.219 159.136 597 165 597C170.863 597 176 595.219 176 595.219V604.562C176 604.562 171.791 607 165 607C158.209 607 154 604.562 154 604.562V595.219Z" fill="#285477"/>
</svg>
