<?xml version="1.0" encoding="UTF-8" standalone="no"?>
<svg
   xmlns:dc="http://purl.org/dc/elements/1.1/"
   xmlns:cc="http://creativecommons.org/ns#"
   xmlns:rdf="http://www.w3.org/1999/02/22-rdf-syntax-ns#"
   xmlns:svg="http://www.w3.org/2000/svg"
   xmlns="http://www.w3.org/2000/svg"
   xmlns:sodipodi="http://sodipodi.sourceforge.net/DTD/sodipodi-0.dtd"
   xmlns:inkscape="http://www.inkscape.org/namespaces/inkscape"
   width="135.46666mm"
   height="142.71404mm"
   viewBox="0 0 135.46666 142.71404"
   version="1.1"
   id="svg2125"
   inkscape:version="1.0beta2 (2b71d25, 2019-12-03)"
   sodipodi:docname="portfolio.svg">
  <defs
     id="defs2119">
    <rect
       id="rect917"
       height="48.643053"
       width="113.85682"
       y="64.121818"
       x="73.692705" />
  </defs>
  <sodipodi:namedview
     id="base"
     pagecolor="#ffffff"
     bordercolor="#666666"
     borderopacity="1.0"
     inkscape:pageopacity="0.0"
     inkscape:pageshadow="2"
     inkscape:zoom="0.49497475"
     inkscape:cx="528.1442"
     inkscape:cy="389.65119"
     inkscape:document-units="mm"
     inkscape:current-layer="layer1"
     inkscape:document-rotation="0"
     showgrid="false"
     inkscape:snap-global="false"
     fit-margin-top="0"
     fit-margin-left="0"
     fit-margin-right="0"
     fit-margin-bottom="0"
     inkscape:window-width="1440"
     inkscape:window-height="759"
     inkscape:window-x="0"
     inkscape:window-y="23"
     inkscape:window-maximized="0" />
  <metadata
     id="metadata2122">
    <rdf:RDF>
      <cc:Work
         rdf:about="">
        <dc:format>image/svg+xml</dc:format>
        <dc:type
           rdf:resource="http://purl.org/dc/dcmitype/StillImage" />
        <dc:title />
      </cc:Work>
    </rdf:RDF>
  </metadata>
  <g
     inkscape:label="Layer 1"
     inkscape:groupmode="layer"
     id="layer1"
     transform="translate(-15.427948,-12.806069)">
    <g
       id="g2706"
       transform="matrix(0.26458333,0,0,0.26458333,37.344049,51.707144)" />
    <g
       id="g2708"
       transform="matrix(0.26458333,0,0,0.26458333,37.344049,51.707144)" />
    <g
       id="g2710"
       transform="matrix(0.26458333,0,0,0.26458333,37.344049,51.707144)" />
    <g
       id="g2712"
       transform="matrix(0.26458333,0,0,0.26458333,37.344049,51.707144)" />
    <g
       id="g2714"
       transform="matrix(0.26458333,0,0,0.26458333,37.344049,51.707144)" />
    <g
       id="g2716"
       transform="matrix(0.26458333,0,0,0.26458333,37.344049,51.707144)" />
    <g
       id="g2718"
       transform="matrix(0.26458333,0,0,0.26458333,37.344049,51.707144)" />
    <g
       id="g2720"
       transform="matrix(0.26458333,0,0,0.26458333,37.344049,51.707144)" />
    <g
       id="g2722"
       transform="matrix(0.26458333,0,0,0.26458333,37.344049,51.707144)" />
    <g
       id="g2724"
       transform="matrix(0.26458333,0,0,0.26458333,37.344049,51.707144)" />
    <g
       id="g2726"
       transform="matrix(0.26458333,0,0,0.26458333,37.344049,51.707144)" />
    <g
       id="g2728"
       transform="matrix(0.26458333,0,0,0.26458333,37.344049,51.707144)" />
    <g
       id="g2730"
       transform="matrix(0.26458333,0,0,0.26458333,37.344049,51.707144)" />
    <g
       id="g2732"
       transform="matrix(0.26458333,0,0,0.26458333,37.344049,51.707144)" />
    <g
       id="g2734"
       transform="matrix(0.26458333,0,0,0.26458333,37.344049,51.707144)" />
    <path
       inkscape:connector-curvature="0"
       id="path2827"
       style="fill:none;stroke:#3a7fc3;stroke-width:0.352778;stroke-linecap:round;stroke-linejoin:miter;stroke-miterlimit:10;stroke-dasharray:none;stroke-opacity:1"
       d="m -61.090888,-24.405808 v 0.176389" />
    <path
       inkscape:connector-curvature="0"
       id="path2917"
       style="fill:none;stroke:#3a7fc3;stroke-width:0.352778;stroke-linecap:round;stroke-linejoin:miter;stroke-miterlimit:10;stroke-dasharray:none;stroke-opacity:1"
       d="m -61.090888,72.960865 v 0.176389" />
    <g
       style="fill:#ffffff"
       id="g3214"
       transform="matrix(0.15083953,0,0,0.15083953,49.099903,100.44626)" />
    <g
       style="fill:#ffffff"
       id="g3216"
       transform="matrix(0.15083953,0,0,0.15083953,49.099903,100.44626)" />
    <g
       style="fill:#ffffff"
       id="g3218"
       transform="matrix(0.15083953,0,0,0.15083953,49.099903,100.44626)" />
    <g
       style="fill:#ffffff"
       id="g3220"
       transform="matrix(0.15083953,0,0,0.15083953,49.099903,100.44626)" />
    <g
       style="fill:#ffffff"
       id="g3222"
       transform="matrix(0.15083953,0,0,0.15083953,49.099903,100.44626)" />
    <g
       style="fill:#ffffff"
       id="g3224"
       transform="matrix(0.15083953,0,0,0.15083953,49.099903,100.44626)" />
    <g
       style="fill:#ffffff"
       id="g3226"
       transform="matrix(0.15083953,0,0,0.15083953,49.099903,100.44626)" />
    <g
       style="fill:#ffffff"
       id="g3228"
       transform="matrix(0.15083953,0,0,0.15083953,49.099903,100.44626)" />
    <g
       style="fill:#ffffff"
       id="g3230"
       transform="matrix(0.15083953,0,0,0.15083953,49.099903,100.44626)" />
    <g
       style="fill:#ffffff"
       id="g3232"
       transform="matrix(0.15083953,0,0,0.15083953,49.099903,100.44626)" />
    <g
       style="fill:#ffffff"
       id="g3234"
       transform="matrix(0.15083953,0,0,0.15083953,49.099903,100.44626)" />
    <g
       style="fill:#ffffff"
       id="g3236"
       transform="matrix(0.15083953,0,0,0.15083953,49.099903,100.44626)" />
    <g
       style="fill:#ffffff"
       id="g3238"
       transform="matrix(0.15083953,0,0,0.15083953,49.099903,100.44626)" />
    <g
       style="fill:#ffffff"
       id="g3240"
       transform="matrix(0.15083953,0,0,0.15083953,49.099903,100.44626)" />
    <g
       style="fill:#ffffff"
       id="g3242"
       transform="matrix(0.15083953,0,0,0.15083953,49.099903,100.44626)" />
    <path
       inkscape:connector-curvature="0"
       id="XMLID_984_-5-0"
       style="fill:#aaafad;fill-opacity:1;stroke-width:0.174103"
       d="m 142.15957,32.440381 3.92052,10.36976 c 0.80426,2.127033 0.78167,4.386755 -0.0626,6.281659 l -15.3944,34.552401 c -0.87907,1.97306 -3.26438,2.63286 -5.32754,1.47382 L 89.804589,65.179876 c -2.06323,-1.158892 -3.02336,-3.697897 -2.14421,-5.671113 L 107.55692,14.85138 c 0.87908,-1.973065 3.26439,-2.632863 5.32755,-1.473819 l 24.92407,14.00186 c 1.9817,1.113276 3.54683,2.933774 4.35103,5.06096 z" />
    <path
       inkscape:connector-curvature="0"
       id="XMLID_985_-7-6"
       style="fill:#f2f2f2;stroke-width:0.174103"
       d="m 133.98429,34.164678 3.18347,-7.145236 0.6411,0.360157 c 1.9817,1.113277 3.54667,2.933686 4.35087,5.060872 l 3.92043,10.369517 c 0.80419,2.127186 0.78167,4.386756 -0.0627,6.281812 l -0.27309,0.612945 -7.47185,-4.197536 c -4.12648,-2.318178 -6.04643,-7.396402 -4.28828,-11.342531 z" />
    <path
       inkscape:connector-curvature="0"
       id="SVGCleanerId_0"
       style="fill:#ffc36e;stroke-width:0.264583"
       d="M 63.924749,66.76615 H 29.99326 c -1.769268,0 -3.386931,-0.999595 -4.178035,-2.582333 l -3.380317,-6.760104 3.380317,-6.760104 c 0.791104,-1.582738 2.408502,-2.582333 4.178035,-2.582333 h 33.931754 c 1.769269,0 3.386931,0.999595 4.178035,2.582333 l 3.380052,6.760104 -3.380316,6.760104 c -0.791104,1.582738 -2.408502,2.582333 -4.178036,2.582333 z" />
    <g
       id="g2690"
       transform="matrix(0.26458333,0,0,0.26458333,15.427948,34.067355)"
       style="fill:#285477;fill-opacity:1">
      <path
         inkscape:connector-curvature="0"
         id="SVGCleanerId_0_1_"
         style="fill:#285477;fill-opacity:1"
         d="M 183.295,123.586 H 55.05 c -6.687,0 -12.801,-3.778 -15.791,-9.76 L 26.483,88.276 39.259,62.726 c 2.99,-5.982 9.103,-9.76 15.791,-9.76 h 128.246 c 6.687,0 12.801,3.778 15.791,9.76 l 12.775,25.55 -12.776,25.55 c -2.99,5.982 -9.103,9.76 -15.791,9.76 z" />
    </g>
    <path
       d="m 114.38069,33.277827 7.2253,7.09469 c 1.48214,1.455219 2.13542,3.353814 1.81624,5.277693 l -5.82006,35.080747 c -0.33235,2.003234 -2.64045,3.513914 -5.15507,3.374224 L 69.190143,81.702126 C 66.675503,81.562587 64.906208,79.82555 65.238579,77.82216 l 7.522154,-45.34025 c 0.332346,-2.003235 2.640452,-3.513915 5.155066,-3.374221 l 30.377851,1.68758 c 2.41532,0.134178 4.60492,1.027185 6.08704,2.482558 z"
       style="fill:#c3c9c7;fill-opacity:1;stroke-width:0.174003"
       id="XMLID_984_-5"
       inkscape:connector-curvature="0" />
    <path
       d="m 106.3091,38.006378 1.20356,-7.254495 0.78138,0.04341 c 2.41532,0.134178 4.60473,1.027173 6.08684,2.482547 l 7.22514,7.094524 c 1.48211,1.455374 2.13541,3.353814 1.81621,5.277848 l -0.10325,0.622318 -9.1068,-0.50591 c -5.02942,-0.279399 -8.56777,-3.75377 -7.90308,-7.76024 z"
       style="fill:#f2f2f2;stroke-width:0.174003"
       id="XMLID_985_-7"
       inkscape:connector-curvature="0" />
    <path
       inkscape:connector-curvature="0"
       style="fill:#eff2fa;stroke-width:0.264583"
       d="M 143.88765,52.752494 H 22.434908 c -1.289843,0 -2.335741,1.045898 -2.335741,2.335742 V 66.766415 H 146.2234 V 55.087971 c 0,-1.289843 -1.0459,-2.335477 -2.33575,-2.335477 z"
       id="path2692" />
    <rect
       x="20.099165"
       y="62.094929"
       style="fill:#e1e6f2;stroke-width:0.264583"
       width="126.12423"
       height="4.6712189"
       id="rect2694" />
    <g
       id="g3526"
       transform="rotate(-22.880278,144.4435,8.5329485)">
      <path
         d="m 44.087792,7.9682484 6.220114,6.2121446 c 1.275928,1.27419 1.992714,3.002619 1.992714,4.804654 V 51.84404 c 0,1.876365 -1.523116,3.397453 -3.401799,3.397453 H 16.581293 c -1.878683,1.45e-4 -3.401799,-1.520798 -3.401799,-3.397308 V 9.3754498 c 0,-1.8763652 1.523116,-3.3974525 3.401799,-3.3974525 h 22.69547 c 1.804498,0 3.5351,0.7159166 4.811029,1.9902511 z"
         style="fill:#e0e0e0;stroke-width:0.144893"
         id="XMLID_984_"
         inkscape:connector-curvature="0" />
      <path
         d="M 38.693278,12.773047 V 5.9779973 h 0.583774 c 1.804499,0 3.534956,0.7159166 4.810885,1.9902511 l 6.219969,6.2119996 c 1.275928,1.274335 1.992714,3.002619 1.992714,4.804799 v 0.582905 h -6.803743 c -3.757512,0 -6.803599,-3.042175 -6.803599,-6.794905 z"
         style="fill:#f2f2f2;stroke-width:0.144893"
         id="XMLID_985_"
         inkscape:connector-curvature="0" />
    </g>
    <path
       id="path2692-7"
       d="m 140.78126,54.288955 -74.827746,2.476489 c -0.794681,0.0263 -1.404469,1.092953 -1.361804,2.382091 l 0.386288,11.671789 77.705882,-2.571745 -0.38629,-11.672053 c -0.0427,-1.289137 -0.72164,-2.312872 -1.51633,-2.286571 z"
       style="fill:#c3c9c7;fill-opacity:1;stroke-width:0.207734"
       inkscape:connector-curvature="0" />
    <path
       inkscape:connector-curvature="0"
       style="fill:#285477;fill-opacity:1;stroke-width:0.264583"
       d="M 146.2234,57.423713 H 72.926668 c -0.884502,0 -1.693333,0.499798 -2.088885,1.290902 l -2.734734,5.469202 c -0.791104,1.582738 -2.409031,2.582333 -4.178035,2.582333 H 29.99326 c -1.769268,0 -3.386931,-0.999595 -4.178035,-2.582333 l -2.734998,-5.469202 c -0.395552,-0.791104 -1.204383,-1.290902 -2.088885,-1.290902 h -0.892175 c -2.579952,0 -4.671219,2.091267 -4.671219,4.671219 v 88.753948 c 0,2.57995 2.091267,4.67122 4.671219,4.67122 H 146.2234 c 2.57995,0 4.67121,-2.09127 4.67121,-4.67122 V 62.094932 c 0,-2.579952 -2.09126,-4.671219 -4.67121,-4.671219 z"
       id="path2696" />
    <g
       id="g3336"
       transform="translate(8.0180857,-12.828938)">
      <path
         style="fill:#ffffff;stroke-width:0.15084"
         inkscape:connector-curvature="0"
         d="m 86.9608,151.45898 c -0.328227,-0.19971 -0.614219,-0.46746 -0.841534,-0.79191 -0.104984,-0.14963 -0.193678,-0.30786 -0.267137,-0.47137 H 48.555095 v -36.76201 h 50.625366 v 24.0043 c 1.080769,0.0976 1.987609,0.80744 2.368329,1.77945 0.33713,-0.18477 0.71287,-0.29896 1.10777,-0.3338 0.26713,-0.0232 0.53246,-0.007 0.78979,0.0442 v -34.65236 c 0,-1.96031 -1.59452,-3.55514 -3.554681,-3.55514 H 47.844037 c -1.96016,0 -3.554986,1.59483 -3.554986,3.55514 v 46.63143 c 0,1.96031 1.594826,3.55499 3.554986,3.55499 h 38.79276 c -0.302735,-0.61301 -0.374535,-1.30506 -0.196394,-1.97087 0.102722,-0.38298 0.280411,-0.73233 0.520397,-1.03204 z m 8.315783,-44.76887 c 0,-0.72494 0.587671,-1.31276 1.312606,-1.31276 h 1.312605 c 0.725086,0 1.312606,0.58767 1.312606,1.31276 v 1.48773 c 0,0.72493 -0.587671,1.3126 -1.312606,1.3126 h -1.312605 c -0.725086,0 -1.312606,-0.58767 -1.312606,-1.3126 z m -6.103721,0 c 0,-0.72494 0.58767,-1.31276 1.312605,-1.31276 h 1.312757 c 0.725085,0 1.312605,0.58767 1.312605,1.31276 v 1.48773 c 0,0.72493 -0.587671,1.3126 -1.312605,1.3126 h -1.312757 c -0.724935,0 -1.312605,-0.58767 -1.312605,-1.3126 z m -6.103873,0 c 0,-0.72494 0.587822,-1.31276 1.312606,-1.31276 H 85.6942 c 0.725086,0 1.312757,0.58767 1.312757,1.31276 v 1.48773 c 0,0.72493 -0.587671,1.3126 -1.312757,1.3126 h -1.312605 c -0.724784,0 -1.312606,-0.58767 -1.312606,-1.3126 z"
         id="path3196" />
      <g
         transform="matrix(0.15083953,0,0,0.15083953,44.289051,98.308104)"
         style="fill:#ffffff"
         id="g3206">
        <path
           style="fill:#ffffff"
           inkscape:connector-curvature="0"
           d="m 164.695,235.373 c 0,-4.752 -2.785,-9.117 -7.096,-11.119 L 118.144,205.922 157.6,187.588 c 4.31,-2.004 7.095,-6.368 7.095,-11.118 v -0.319 c 0,-4.21 -2.119,-8.075 -5.665,-10.334 -1.962,-1.253 -4.247,-1.916 -6.606,-1.916 -1.778,0 -3.563,0.391 -5.16,1.133 l -63.078,29.333 c -4.309,2.004 -7.092,6.368 -7.092,11.117 v 0.877 c 0,4.743 2.782,9.104 7.093,11.118 l 63.084,29.336 c 1.631,0.755 3.368,1.138 5.162,1.138 2.338,0 4.616,-0.664 6.597,-1.924 3.548,-2.268 5.666,-6.13 5.666,-10.335 z"
           id="path3200" />
        <path
           style="fill:#ffffff"
           inkscape:connector-curvature="0"
           d="m 226.932,134.012 c -2.301,-3.15 -6.002,-5.03 -9.901,-5.03 h -0.314 c -5.354,0 -10.048,3.425 -11.679,8.516 l -41.56,128.772 c -1.183,3.718 -0.517,7.813 1.781,10.962 2.301,3.148 6.002,5.029 9.901,5.029 h 0.315 c 5.352,0 10.043,-3.426 11.672,-8.516 l 41.555,-128.762 c 1.194,-3.715 0.532,-7.816 -1.77,-10.971 z"
           id="path3202" />
        <path
           style="fill:#ffffff"
           inkscape:connector-curvature="0"
           d="m 308.001,194.366 -63.079,-29.333 c -1.592,-0.74 -3.374,-1.131 -5.152,-1.131 -2.358,0 -4.644,0.661 -6.605,1.912 -3.552,2.263 -5.671,6.127 -5.671,10.337 v 0.319 c 0,4.746 2.783,9.111 7.097,11.123 l 39.454,18.33 -39.455,18.331 c -4.311,2.002 -7.096,6.367 -7.096,11.119 v 0.321 c 0,4.205 2.119,8.066 5.669,10.336 1.974,1.258 4.254,1.923 6.595,1.923 1.792,0 3.527,-0.383 5.169,-1.141 l 63.082,-29.336 c 4.307,-2.009 7.088,-6.371 7.088,-11.114 v -0.877 c -0.003,-4.75 -2.786,-9.114 -7.096,-11.119 z"
           id="path3204" />
      </g>
      <g
         style="fill:#ffffff"
         transform="matrix(0.01381213,0,0,-0.01381213,46.728098,158.70151)"
         id="g3181">
        <path
           inkscape:connector-curvature="0"
           id="path2901"
           style="fill:#ffffff;fill-opacity:1;fill-rule:evenodd;stroke:none"
           d="m 3657.6129,1334.5881 c -333.47,0 -603.88,-270.35 -603.88,-603.87004 0,-266.81 173.03,-493.17 412.97,-573.022 30.18,-5.589 41.26,13.102 41.26,29.052 0,14.4 -0.56,61.97 -0.82,112.43 -168,-36.53 -203.45,71.25 -203.45,71.25 -27.47,69.8 -67.05,88.36 -67.05,88.36 -54.79,37.48 4.13,36.71 4.13,36.71 60.64,-4.25 92.57,-62.23 92.57,-62.23 53.86,-92.32 141.27,-65.63 175.73,-50.2 5.42,39.02 21.07,65.68 38.34,80.75 -134.13,15.27 -275.13,67.05 -275.13,298.44 0,65.93 23.59,119.8 62.22,162.09 -6.27,15.22 -26.94,76.63004 5.85,159.81004 0,0 50.71,16.23 166.11,-61.9 48.17,13.38 99.83,20.09 151.15,20.32 51.32,-0.23 103.02,-6.94 151.28,-20.32 115.26,78.13 165.9,61.9 165.9,61.9 32.87,-83.18 12.19,-144.59004 5.92,-159.81004 38.72,-42.29 62.15,-96.16 62.15,-162.09 0,-231.94 -141.27,-283.01 -275.74,-297.96 21.66,-18.74 40.96,-55.49 40.96,-111.83 0,-80.79 -0.7,-145.82 -0.7,-165.72 0,-16.07 10.87,-34.899 41.48,-28.97 239.81,79.94 412.62,306.22 412.62,572.94 0,333.52004 -270.37,603.87004 -603.87,603.87004" />
        <path
           inkscape:connector-curvature="0"
           id="path2903"
           style="fill:#ffffff;fill-opacity:1;fill-rule:nonzero;stroke:none"
           d="m 3282.4529,467.55806 c -1.33,-3.01 -6.05,-3.9 -10.35,-1.84 -4.38,1.97 -6.84,6.06 -5.42,9.07 1.3,3.09 6.03,3.94 10.4,1.89 4.39,-1.98 6.89,-6.11 5.37,-9.12 v 0" />
        <path
           inkscape:connector-curvature="0"
           id="path2905"
           style="fill:#ffffff;fill-opacity:1;fill-rule:nonzero;stroke:none"
           d="m 3306.9129,440.27806 c -2.88,-2.67 -8.51,-1.43 -12.33,2.79 -3.95,4.21 -4.69,9.84 -1.77,12.55 2.97,2.67 8.43,1.42 12.39,-2.79 3.95,-4.26 4.72,-9.85 1.71,-12.55 v 0" />
        <path
           inkscape:connector-curvature="0"
           id="path2907"
           style="fill:#ffffff;fill-opacity:1;fill-rule:nonzero;stroke:none"
           d="m 3330.7229,405.49806 c -3.7,-2.57 -9.75,-0.16 -13.49,5.21 -3.7,5.37 -3.7,11.81 0.08,14.39 3.75,2.58 9.71,0.26 13.5,-5.07 3.69,-5.45 3.69,-11.9 -0.09,-14.53 v 0" />
        <path
           inkscape:connector-curvature="0"
           id="path2909"
           style="fill:#ffffff;fill-opacity:1;fill-rule:nonzero;stroke:none"
           d="m 3363.3429,371.89806 c -3.31,-3.65 -10.36,-2.67 -15.52,2.31 -5.28,4.87 -6.75,11.78 -3.43,15.43 3.35,3.66 10.44,2.63 15.64,-2.31 5.24,-4.86 6.84,-11.82 3.31,-15.43 v 0" />
        <path
           inkscape:connector-curvature="0"
           id="path2911"
           style="fill:#ffffff;fill-opacity:1;fill-rule:nonzero;stroke:none"
           d="m 3408.3429,352.38806 c -1.46,-4.73 -8.25,-6.88 -15.09,-4.87 -6.83,2.07 -11.3,7.61 -9.92,12.39 1.42,4.76 8.24,7 15.13,4.85 6.82,-2.06 11.3,-7.56 9.88,-12.37 v 0" />
        <path
           inkscape:connector-curvature="0"
           id="path2913"
           style="fill:#ffffff;fill-opacity:1;fill-rule:nonzero;stroke:none"
           d="m 3457.7629,348.76806 c 0.17,-4.98 -5.63,-9.11 -12.81,-9.19 -7.22,-0.17 -13.06,3.86 -13.14,8.76 0,5.03 5.67,9.12 12.89,9.24 7.18,0.14 13.06,-3.86 13.06,-8.81 v 0" />
        <path
           inkscape:connector-curvature="0"
           id="path2915"
           style="fill:#ffffff;fill-opacity:1;fill-rule:nonzero;stroke:none"
           d="m 3503.7529,356.59806 c 0.86,-4.86 -4.13,-9.85 -11.26,-11.17 -7.01,-1.29 -13.5,1.71 -14.39,6.53 -0.87,4.98 4.21,9.97 11.21,11.26 7.14,1.24 13.53,-1.68 14.44,-6.62 v 0" />
      </g>
    </g>
    <g
       id="g3372"
       transform="matrix(0.26458333,0,0,0.26458333,54.60627,-74.21751)" />
    <g
       id="g3374"
       transform="matrix(0.26458333,0,0,0.26458333,54.60627,-74.21751)" />
    <g
       id="g3376"
       transform="matrix(0.26458333,0,0,0.26458333,54.60627,-74.21751)" />
    <g
       id="g3378"
       transform="matrix(0.26458333,0,0,0.26458333,54.60627,-74.21751)" />
    <g
       id="g3380"
       transform="matrix(0.26458333,0,0,0.26458333,54.60627,-74.21751)" />
    <g
       id="g3382"
       transform="matrix(0.26458333,0,0,0.26458333,54.60627,-74.21751)" />
    <g
       id="g3384"
       transform="matrix(0.26458333,0,0,0.26458333,54.60627,-74.21751)" />
    <g
       id="g3386"
       transform="matrix(0.26458333,0,0,0.26458333,54.60627,-74.21751)" />
    <g
       id="g3388"
       transform="matrix(0.26458333,0,0,0.26458333,54.60627,-74.21751)" />
    <g
       id="g3390"
       transform="matrix(0.26458333,0,0,0.26458333,54.60627,-74.21751)" />
    <g
       id="g3392"
       transform="matrix(0.26458333,0,0,0.26458333,54.60627,-74.21751)" />
    <g
       id="g3394"
       transform="matrix(0.26458333,0,0,0.26458333,54.60627,-74.21751)" />
    <g
       id="g3396"
       transform="matrix(0.26458333,0,0,0.26458333,54.60627,-74.21751)" />
    <g
       id="g3398"
       transform="matrix(0.26458333,0,0,0.26458333,54.60627,-74.21751)" />
    <g
       id="g3400"
       transform="matrix(0.26458333,0,0,0.26458333,54.60627,-74.21751)" />
    <text
       transform="translate(10.204591,-4.8269686)"
       style="font-style:normal;font-weight:normal;font-size:14.11110000000000042px;line-height:1.25;font-family:sans-serif;white-space:pre;shape-inside:url(#rect917);fill:#ffffff;fill-opacity:1;stroke:none;"
       id="text915"
       xml:space="preserve"><tspan
         sodipodi:role="line"
         x="73.693359"
         y="76.995078"><tspan
           style="font-style:normal;font-variant:normal;font-weight:bold;font-stretch:normal;font-family:Rockwell;-inkscape-font-specification:'Rockwell Bold';opacity:0.47;fill:#ffffff">Projects</tspan></tspan></text>
  </g>
</svg>
