<?xml version="1.0" encoding="UTF-8" standalone="no"?>
<svg
   xmlns:dc="http://purl.org/dc/elements/1.1/"
   xmlns:cc="http://creativecommons.org/ns#"
   xmlns:rdf="http://www.w3.org/1999/02/22-rdf-syntax-ns#"
   xmlns:svg="http://www.w3.org/2000/svg"
   xmlns="http://www.w3.org/2000/svg"
   xmlns:sodipodi="http://sodipodi.sourceforge.net/DTD/sodipodi-0.dtd"
   xmlns:inkscape="http://www.inkscape.org/namespaces/inkscape"
   inkscape:export-ydpi="96"
   inkscape:export-xdpi="96"
   inkscape:export-filename="/Users/andrew/Development/portfolio/logo.png"
   sodipodi:docname="aglogo.svg"
   inkscape:version="1.0beta2 (2b71d25, 2019-12-03)"
   id="svg8"
   version="1.1"
   viewBox="0 0 70.77067 70.770674"
   height="267.47971"
   width="267.47971">
  <defs
     id="defs2">
    <inkscape:path-effect
       is_visible="true"
       id="path-effect896"
       effect="spiro" />
  </defs>
  <sodipodi:namedview
     inkscape:document-rotation="0"
     inkscape:pagecheckerboard="false"
     fit-margin-bottom="0"
     fit-margin-right="0"
     fit-margin-left="0"
     fit-margin-top="0"
     units="px"
     inkscape:snap-grids="false"
     inkscape:window-maximized="1"
     inkscape:window-y="23"
     inkscape:window-x="0"
     inkscape:window-height="759"
     inkscape:window-width="1440"
     inkscape:snap-smooth-nodes="false"
     showgrid="false"
     inkscape:current-layer="layer1"
     inkscape:document-units="mm"
     inkscape:cy="114.62379"
     inkscape:cx="-25.36422"
     inkscape:zoom="1"
     inkscape:pageshadow="2"
     inkscape:pageopacity="0.0"
     borderopacity="1.0"
     bordercolor="#666666"
     pagecolor="#ffffff"
     id="base" />
  <metadata
     id="metadata5">
    <rdf:RDF>
      <cc:Work
         rdf:about="">
        <dc:format>image/svg+xml</dc:format>
        <dc:type
           rdf:resource="http://purl.org/dc/dcmitype/StillImage" />
        <dc:title />
      </cc:Work>
    </rdf:RDF>
  </metadata>
  <g
     transform="translate(-11.744599,-4.2162763)"
     id="layer1"
     inkscape:groupmode="layer"
     inkscape:label="Layer 1">
    <g
       inkscape:export-ydpi="96"
       inkscape:export-xdpi="96"
       inkscape:export-filename="/Users/andrew/Desktop/logo.png"
       style="fill:#285477;fill-opacity:1"
       transform="matrix(2.4886531,0,0,2.4886531,-48.149589,-99.226163)"
       id="g872">
      <g
         id="text965"
         style="font-style:normal;font-variant:normal;font-weight:normal;font-stretch:normal;font-size:19.10589600000000132px;line-height:1.25;font-family:Rockwell;-inkscape-font-specification:Rockwell;letter-spacing:0px;word-spacing:0px;fill:#285477;fill-opacity:1;stroke:none;stroke-width:0.47764736"
         aria-label="g">
        <path
           id="path827"
           style="font-style:normal;font-variant:normal;font-weight:normal;font-stretch:normal;font-family:Rockwell;-inkscape-font-specification:Rockwell;fill:#285477;fill-opacity:1;stroke-width:0.47764736"
           d="M 44.866247,52.766965 V 51.34895 h 3.684975 v 1.725874 h -1.772519 v 7.351292 q 0,2.565489 -1.296739,3.955517 -1.287409,1.399358 -3.768936,1.399358 -2.350921,0 -4.011492,-1.324725 L 38.9423,63.066237 q 0.671692,0.49444 1.343383,0.736995 0.681021,0.251885 1.483319,0.251885 1.455332,0 2.276289,-0.904918 0.820956,-0.904918 0.820956,-2.397566 v -0.914247 q -0.634375,0.746324 -1.613926,1.17546 -0.970221,0.429136 -1.940442,0.429136 -1.362042,0 -2.453541,-0.690349 -1.082169,-0.69035 -1.697887,-1.828494 -0.606388,-1.147473 -0.606388,-2.509515 0,-1.390028 0.634375,-2.584147 0.643705,-1.194118 1.753862,-1.903126 1.110157,-0.709008 2.462869,-0.709008 0.970222,0 1.809836,0.382491 0.848944,0.382491 1.651242,1.166131 z m -3.190535,6.950143 q 0.914247,0 1.651242,-0.457123 0.736995,-0.457124 1.147473,-1.231435 0.410478,-0.774311 0.410478,-1.6699 0,-0.839615 -0.410478,-1.613926 -0.410478,-0.774311 -1.138144,-1.250093 -0.727666,-0.475781 -1.623255,-0.475781 -0.876931,0 -1.595268,0.457123 -0.718337,0.457124 -1.119486,1.231435 -0.401149,0.774311 -0.401149,1.6699 0,0.914247 0.382491,1.679229 0.382491,0.764982 1.08217,1.212777 0.709008,0.447794 1.613926,0.447794 z" />
      </g>
      <g
         id="text899"
         style="font-style:normal;font-variant:normal;font-weight:normal;font-stretch:normal;font-size:19.10589600000000132px;line-height:1.25;font-family:Rockwell;-inkscape-font-specification:Rockwell;letter-spacing:0px;word-spacing:0px;fill:#285477;fill-opacity:1;stroke:none;stroke-width:0.47764736"
         aria-label="a">
        <path
           id="path824"
           style="font-style:normal;font-variant:normal;font-weight:normal;font-stretch:normal;font-family:Rockwell;-inkscape-font-specification:Rockwell;fill:#285477;fill-opacity:1;stroke-width:0.47764736"
           d="m 36.398295,53.746867 v 4.62721 h 1.641913 v 1.716545 h -3.3398 v -1.203448 q -1.399358,1.371371 -3.115903,1.371371 -0.904918,0 -1.660571,-0.419807 -0.746324,-0.419808 -1.203448,-1.119487 -0.447794,-0.709007 -0.447794,-1.56728 0,-0.923576 0.49444,-1.641913 0.503768,-0.727666 1.352712,-1.119486 0.848944,-0.39182 1.707216,-0.39182 1.436674,0 2.677438,0.839614 v -1.054182 q 0,-1.147474 -0.485111,-1.641913 -0.48511,-0.49444 -1.595267,-0.49444 -0.783641,0 -1.315397,0.289201 -0.522426,0.279871 -0.867601,0.858272 L 28.39397,52.338181 q 0.625046,-1.166132 1.688558,-1.735204 1.063512,-0.578401 2.528173,-0.578401 1.968429,0 2.873347,0.895589 0.914247,0.895589 0.914247,2.826702 z m -4.552577,5.028359 q 1.418016,0 2.65878,-1.18479 v -1.147473 q -1.259422,-0.97955 -2.518844,-0.97955 -0.764982,0 -1.324725,0.48511 -0.550414,0.475782 -0.550414,1.203448 0,0.699679 0.485111,1.166131 0.48511,0.457124 1.250092,0.457124 z" />
      </g>
      <g
         id="text903"
         style="font-style:normal;font-variant:normal;font-weight:normal;font-stretch:normal;font-size:4.37428903999999985px;line-height:1.25;font-family:Rockwell;-inkscape-font-specification:Rockwell;letter-spacing:0px;word-spacing:0px;fill:#285477;fill-opacity:1;stroke:none;stroke-width:0.10935722"
         transform="scale(0.94720615,1.0557364)"
         aria-label="&lt;/&gt;">
        <path
           id="path830"
           style="font-style:normal;font-variant:normal;font-weight:normal;font-stretch:normal;font-family:Rockwell;-inkscape-font-specification:Rockwell;fill:#285477;fill-opacity:1;stroke-width:0.10935722"
           d="m 30.692284,43.718243 v 0.395139 l -2.533157,-1.06367 v -0.322518 l 2.533157,-1.067942 v 0.393002 l -2.041904,0.839403 z" />
        <path
           id="path832"
           style="font-style:normal;font-variant:normal;font-weight:normal;font-stretch:normal;font-family:Rockwell;-inkscape-font-specification:Rockwell;fill:#285477;fill-opacity:1;stroke-width:0.10935722"
           d="m 31.027618,44.551238 1.648902,-3.338386 h 0.382323 l -1.646766,3.338386 z" />
        <path
           id="path834"
           style="font-style:normal;font-variant:normal;font-weight:normal;font-stretch:normal;font-family:Rockwell;-inkscape-font-specification:Rockwell;fill:#285477;fill-opacity:1;stroke-width:0.10935722"
           d="m 35.92947,43.049712 -2.533157,1.06367 v -0.395139 l 2.04404,-0.826586 -2.04404,-0.839403 v -0.393002 l 2.533157,1.067942 z" />
      </g>
    </g>
    <rect
       inkscape:export-ydpi="96"
       inkscape:export-xdpi="96"
       inkscape:export-filename="/Users/andrew/Desktop/logo.png"
       rx="11.785713"
       y="5.2039604"
       x="12.732283"
       height="68.795303"
       width="68.795303"
       id="rect860"
       style="opacity:1;fill:none;fill-opacity:1;stroke:#285477;stroke-width:1.97536814;stroke-linecap:butt;stroke-linejoin:miter;stroke-miterlimit:4;stroke-dasharray:none;stroke-opacity:1;paint-order:markers stroke fill" />
    <rect
       inkscape:export-ydpi="96"
       inkscape:export-xdpi="96"
       inkscape:export-filename="/Users/andrew/Desktop/logo.png"
       rx="0"
       y="12.362849"
       x="39.787449"
       height="3.1470189"
       width="7.4726267"
       id="rect872"
       style="opacity:1;fill:#285477;fill-opacity:1;stroke:#4388cc;stroke-width:0;stroke-linecap:butt;stroke-linejoin:miter;stroke-miterlimit:4;stroke-dasharray:none;stroke-opacity:1;paint-order:markers stroke fill" />
    <rect
       inkscape:export-ydpi="96"
       inkscape:export-xdpi="96"
       inkscape:export-filename="/Users/andrew/Desktop/logo.png"
       y="12.362296"
       x="48.847576"
       height="3.1475725"
       width="15.135825"
       id="rect963"
       style="opacity:1;fill:#285477;fill-opacity:1;stroke:#4388cc;stroke-width:0;stroke-linecap:butt;stroke-linejoin:miter;stroke-miterlimit:4;stroke-dasharray:none;stroke-opacity:1;paint-order:markers stroke fill" />
    <rect
       inkscape:export-ydpi="96"
       inkscape:export-xdpi="96"
       inkscape:export-filename="/Users/andrew/Desktop/logo.png"
       y="12.339291"
       x="65.320534"
       height="3.147583"
       width="5.0773482"
       id="rect1007"
       style="opacity:1;fill:#285477;fill-opacity:1;stroke:none;stroke-width:0;stroke-linecap:butt;stroke-linejoin:miter;stroke-miterlimit:4;stroke-dasharray:none;stroke-opacity:1;paint-order:markers stroke fill" />
  </g>
</svg>
