<svg width="1182" height="359" viewBox="0 0 1182 359" fill="none" xmlns="http://www.w3.org/2000/svg">
<rect width="1182" height="359" fill="#F2F2F2"/>
<path d="M52.3475 164.632L52.3355 161.395L45.4948 161.42L45.5135 166.489L51.0359 166.468L51.0497 170.189L45.5273 170.209L45.5487 175.996L52.3894 175.97L52.3773 172.704L56.6107 172.688L56.6367 179.705L37.169 179.777L37.1552 176.027L39.8212 176.017L39.7673 161.442L37.1013 161.452L37.0874 157.702L56.555 157.63L56.5809 164.617L52.3475 164.632ZM75.9926 161.308L73.1508 161.318L73.137 157.568L82.9953 157.532L83.0092 161.282L79.933 161.293L80.0013 179.765L75.1088 179.783L65.4975 163.441L65.5436 175.922L68.3122 175.911L68.326 179.661L58.6581 179.697L58.6443 175.947L61.6179 175.936L61.564 161.361L58.5904 161.372L58.5765 157.622L67.8489 157.588L76.0298 171.356L75.9926 161.308ZM91.8421 161.249L95.6036 172.266L99.2835 161.222L96.5003 161.232L96.4864 157.482L106.228 157.446L106.241 161.196L103.575 161.206L97.2862 179.671L92.7306 179.688L86.0853 161.27L83.4486 161.28L83.4347 157.53L94.6847 157.489L94.6985 161.239L91.8421 161.249ZM122.247 167.67L124.704 174.648L127.491 167.651L125.484 167.658L125.471 164.054L133.601 164.024L133.614 167.628L131.417 167.636L126.452 179.681L122.291 179.696L117.047 167.689L114.835 167.697L114.822 164.094L124.153 164.059L124.166 167.663L122.247 167.67ZM149.268 170.119L149.289 175.817L151.779 175.808L151.792 179.353L144.41 179.38L144.405 178.179C143.012 179.141 141.617 179.625 140.221 179.63C138.532 179.636 137.177 179.207 136.159 178.341C135.14 177.476 134.628 176.306 134.622 174.831C134.616 173.269 135.178 172.017 136.307 171.075C137.447 170.124 138.958 169.644 140.843 169.637C141.497 169.635 142.079 169.706 142.587 169.851C143.105 169.985 143.702 170.222 144.377 170.562L144.372 169.331C144.369 168.55 144.123 167.926 143.633 167.459C143.143 166.992 142.41 166.76 141.433 166.764C140.369 166.768 139.428 167.182 138.611 168.005L134.653 167.302C135.845 164.876 138.321 163.655 142.081 163.642C144.659 163.632 146.497 164.157 147.594 165.218C148.702 166.268 149.26 167.902 149.268 170.119ZM141.308 176.564C142.187 176.561 143.215 176.03 144.393 174.971L144.388 173.594C143.331 172.914 142.363 172.576 141.484 172.579C140.781 172.582 140.244 172.75 139.874 173.083C139.505 173.417 139.321 173.891 139.323 174.506C139.328 175.883 139.99 176.569 141.308 176.564ZM166.471 163.727L166.488 168.341C165.141 168.434 164.067 168.653 163.268 168.998C162.478 169.333 161.865 169.911 161.428 170.733C161.002 171.555 160.791 172.728 160.797 174.251L160.803 175.775L163.864 175.763L163.877 179.308L153.081 179.348L153.068 175.803L155.895 175.793L155.865 167.546L153.184 167.556L153.171 163.952L160.349 163.926L160.363 167.837C160.72 166.654 161.385 165.67 162.359 164.885C163.333 164.1 164.542 163.705 165.987 163.7C166.202 163.699 166.363 163.708 166.471 163.727Z" fill="#5A5454"/>
<path d="M631.181 243.998C631.189 246.136 630.154 247.659 628.078 248.565C629.417 249.058 630.416 249.743 631.074 250.619C631.731 251.486 632.062 252.559 632.067 253.838C632.083 258.135 628.868 260.295 622.423 260.319L612.169 260.357L612.155 256.607L614.88 256.597L614.826 242.022L612.101 242.032L612.087 238.282L622.341 238.244C625.32 238.233 627.533 238.704 628.982 239.655C630.441 240.607 631.174 242.054 631.181 243.998ZM625.455 244.312C625.451 243.452 625.137 242.853 624.51 242.514C623.894 242.164 623.024 241.992 621.901 241.996L620.553 242.001L620.572 246.981L622.344 246.975C623.389 246.971 624.17 246.768 624.686 246.365C625.202 245.963 625.458 245.279 625.455 244.312ZM626.178 253.699C626.174 252.625 625.858 251.854 625.232 251.388C624.615 250.921 623.549 250.691 622.036 250.697L620.586 250.702L620.607 256.576L622.863 256.568C623.879 256.564 624.684 256.331 625.278 255.87C625.881 255.409 626.181 254.685 626.178 253.699ZM643.224 256.434C644.064 256.431 644.971 256.056 645.945 255.31L645.919 248.44L643.561 248.449L643.547 244.846L650.798 244.819L650.842 256.669L653.362 256.66L653.375 260.205L645.963 260.232L645.958 258.943C644.429 259.964 642.941 260.478 641.496 260.483C640.002 260.489 638.838 260.078 638.005 259.251C637.172 258.424 636.753 257.283 636.747 255.828L636.72 248.474L634.406 248.483L634.392 244.879L641.57 244.853L641.606 254.55C641.608 255.273 641.723 255.77 641.948 256.043C642.184 256.306 642.609 256.436 643.224 256.434ZM662.574 240.395C662.577 241.177 662.311 241.827 661.776 242.346C661.25 242.856 660.621 243.112 659.889 243.115C659.147 243.118 658.506 242.857 657.967 242.331C657.438 241.796 657.172 241.157 657.169 240.415C657.166 239.683 657.427 239.052 657.953 238.523C658.488 237.984 659.127 237.713 659.869 237.71C660.601 237.707 661.232 237.973 661.761 238.509C662.3 239.034 662.571 239.663 662.574 240.395ZM664.612 256.618L664.625 260.163L655.118 260.198L655.105 256.653L657.449 256.645L657.418 248.398L655.074 248.406L655.061 244.803L662.283 244.776L662.326 256.627L664.612 256.618ZM675.495 256.578L675.508 260.123L666.002 260.158L665.989 256.613L668.391 256.604L668.335 241.604L665.933 241.613L665.92 238.083L673.244 238.056L673.313 256.586L675.495 256.578ZM695.139 256.505L695.152 260.05L687.754 260.078L687.748 258.247C686.347 259.629 684.855 260.323 683.273 260.329C681.974 260.333 680.825 259.991 679.827 259.301C678.828 258.602 678.043 257.643 677.472 256.424C676.911 255.206 676.628 253.849 676.622 252.355C676.617 250.812 676.89 249.434 677.442 248.221C678.004 247.008 678.796 246.063 679.819 245.385C680.842 244.698 681.983 244.352 683.243 244.347C685.05 244.341 686.537 245.033 687.704 246.425L687.686 241.533L685.254 241.542L685.241 238.012L692.551 237.985L692.619 256.515L695.139 256.505ZM684.709 256.456C685.666 256.453 686.412 256.074 686.946 255.32C687.49 254.556 687.76 253.574 687.755 252.373C687.751 251.171 687.469 250.191 686.909 249.431C686.36 248.672 685.606 248.294 684.649 248.297C683.722 248.301 682.986 248.684 682.442 249.448C681.898 250.212 681.628 251.184 681.632 252.366C681.637 253.557 681.914 254.538 682.463 255.307C683.013 256.077 683.762 256.46 684.709 256.456Z" fill="#5A5454"/>
<path d="M896.028 248.194C896.037 250.509 895.551 252.473 894.57 254.088C893.6 255.703 892.252 256.924 890.526 257.751C888.801 258.577 886.805 258.995 884.54 259.003L872.367 259.048L872.353 255.298L875.708 255.286L875.654 240.711L872.299 240.723L872.285 236.973L884.194 236.929C886.47 236.921 888.488 237.304 890.249 238.079C892.019 238.844 893.42 240.074 894.452 241.769C895.493 243.455 896.019 245.597 896.028 248.194ZM890.022 248.026C890.013 245.594 889.439 243.76 888.302 242.524C887.174 241.288 885.517 240.674 883.329 240.682L881.381 240.69L881.435 255.265L882.783 255.26C884.765 255.252 886.287 254.915 887.349 254.247C888.421 253.569 889.136 252.717 889.493 251.69C889.851 250.654 890.027 249.432 890.022 248.026ZM915.13 252.225L903.646 252.268C903.767 253.449 904.176 254.385 904.872 255.076C905.578 255.757 906.482 256.095 907.586 256.091C908.806 256.086 909.996 255.477 911.153 254.261L914.966 255.478C914.131 256.741 913.095 257.692 911.857 258.331C910.619 258.961 909.15 259.279 907.451 259.285C905.752 259.291 904.247 258.979 902.936 258.349C901.635 257.71 900.621 256.805 899.894 255.636C899.176 254.467 898.815 253.091 898.809 251.509C898.803 249.947 899.169 248.529 899.907 247.257C900.654 245.985 901.661 244.99 902.928 244.272C904.204 243.545 905.59 243.178 907.084 243.173C908.705 243.167 910.117 243.538 911.321 244.285C912.525 245.023 913.452 246.079 914.102 247.453C914.761 248.818 915.104 250.409 915.13 252.225ZM906.862 246.44C905.983 246.443 905.276 246.7 904.74 247.21C904.215 247.72 903.886 248.497 903.753 249.543L910.169 249.519C910.029 248.601 909.65 247.861 909.033 247.296C908.425 246.723 907.701 246.437 906.862 246.44ZM934.433 251.289C934.439 252.793 934.175 254.147 933.643 255.35C933.11 256.543 932.337 257.484 931.324 258.171C930.321 258.858 929.16 259.205 927.842 259.209C926.22 259.215 924.719 258.581 923.337 257.307L923.356 262.244L926.403 262.232L926.416 265.777L915.869 265.816L915.856 262.271L918.463 262.262L918.407 247.086L916.21 247.094L916.196 243.491L923.286 243.464L923.293 245.383C924.646 243.962 926.161 243.249 927.841 243.243C929.199 243.237 930.372 243.59 931.361 244.299C932.359 244.998 933.12 245.957 933.642 247.176C934.164 248.395 934.428 249.766 934.433 251.289ZM926.406 255.333C927.373 255.329 928.114 254.97 928.629 254.255C929.144 253.531 929.399 252.509 929.394 251.191C929.389 249.931 929.122 248.951 928.592 248.25C928.062 247.548 927.304 247.2 926.318 247.203C925.38 247.207 924.63 247.576 924.066 248.31C923.512 249.045 923.237 250.032 923.242 251.272C923.246 252.434 923.538 253.405 924.117 254.184C924.706 254.953 925.469 255.336 926.406 255.333ZM945.083 255.235L945.096 258.779L935.589 258.815L935.576 255.27L937.978 255.261L937.923 240.261L935.521 240.27L935.508 236.74L942.832 236.712L942.9 255.243L945.083 255.235ZM962.382 251.01C962.387 252.544 962.031 253.927 961.313 255.16C960.595 256.393 959.622 257.358 958.394 258.056C957.166 258.754 955.815 259.106 954.34 259.111C952.778 259.117 951.38 258.776 950.147 258.087C948.914 257.398 947.949 256.44 947.251 255.212C946.563 253.984 946.216 252.603 946.21 251.07C946.204 249.547 946.551 248.173 947.249 246.95C947.958 245.727 948.931 244.766 950.169 244.068C951.406 243.36 952.777 243.004 954.281 242.998C955.814 242.993 957.197 243.339 958.43 244.038C959.663 244.726 960.629 245.68 961.327 246.898C962.024 248.116 962.376 249.487 962.382 251.01ZM954.297 255.288C955.254 255.285 956 254.911 956.534 254.167C957.078 253.413 957.348 252.338 957.342 250.941C957.338 249.633 957.06 248.613 956.511 247.883C955.971 247.142 955.213 246.774 954.236 246.778C953.25 246.781 952.504 247.15 951.999 247.885C951.494 248.609 951.244 249.704 951.249 251.169C951.254 252.409 951.531 253.409 952.081 254.169C952.64 254.918 953.379 255.292 954.297 255.288ZM969.764 246.896L972.368 253.757L975.067 246.877L973.06 246.884L973.047 243.28L981.147 243.25L981.161 246.854L978.934 246.862L971.664 265.61L966.288 265.63L966.275 262.085L969.22 262.074L970.22 259.346L964.593 246.915L962.352 246.924L962.339 243.32L971.582 243.286L971.595 246.889L969.764 246.896ZM1000.45 243.179L1000.47 246.783L997.625 246.793L997.65 253.517C997.652 253.995 997.746 254.356 997.932 254.6C998.119 254.833 998.466 254.949 998.974 254.947C999.394 254.946 999.901 254.836 1000.5 254.619L1000.51 258.033C999.192 258.555 997.953 258.818 996.791 258.823C995.453 258.828 994.446 258.494 993.77 257.823C993.103 257.142 992.767 256.181 992.763 254.941L992.733 246.811L990.784 246.818L990.771 243.215L992.719 243.208L992.711 240.82L997.59 237.286L997.612 243.19L1000.45 243.179ZM1018.43 250.803C1018.43 252.336 1018.08 253.719 1017.36 254.953C1016.64 256.186 1015.67 257.151 1014.44 257.849C1013.21 258.547 1011.86 258.899 1010.38 258.904C1008.82 258.91 1007.42 258.568 1006.19 257.88C1004.96 257.191 1003.99 256.233 1003.3 255.005C1002.61 253.777 1002.26 252.396 1002.25 250.863C1002.25 249.339 1002.6 247.966 1003.29 246.743C1004 245.52 1004.98 244.559 1006.21 243.861C1007.45 243.153 1008.82 242.797 1010.33 242.791C1011.86 242.785 1013.24 243.132 1014.47 243.83C1015.71 244.519 1016.67 245.473 1017.37 246.691C1018.07 247.909 1018.42 249.28 1018.43 250.803ZM1010.34 255.081C1011.3 255.078 1012.04 254.704 1012.58 253.96C1013.12 253.206 1013.39 252.13 1013.39 250.734C1013.38 249.425 1013.1 248.406 1012.56 247.675C1012.02 246.935 1011.26 246.567 1010.28 246.571C1009.29 246.574 1008.55 246.943 1008.04 247.677C1007.54 248.402 1007.29 249.497 1007.29 250.961C1007.3 252.202 1007.58 253.202 1008.13 253.961C1008.68 254.711 1009.42 255.084 1010.34 255.081ZM1041.28 244.317L1041.28 243.028L1044.63 243.016L1044.66 249.256L1041.18 249.269C1040.36 247.573 1039.1 246.728 1037.43 246.734C1036.4 246.738 1035.55 247.117 1034.88 247.871C1034.22 248.626 1033.89 249.564 1033.89 250.687C1033.9 251.928 1034.22 252.947 1034.86 253.745C1035.51 254.534 1036.36 254.926 1037.43 254.922C1038.2 254.92 1038.93 254.702 1039.62 254.27C1040.31 253.837 1040.88 253.23 1041.31 252.447L1045.13 254.118C1044.29 255.703 1043.29 256.878 1042.11 257.644C1040.93 258.41 1039.34 258.797 1037.34 258.805C1034.74 258.814 1032.68 258.114 1031.15 256.703C1029.63 255.283 1028.87 253.313 1028.86 250.794C1028.85 249.29 1029.19 247.936 1029.88 246.732C1030.58 245.529 1031.52 244.583 1032.71 243.895C1033.9 243.197 1035.2 242.846 1036.62 242.84C1038.24 242.834 1039.8 243.327 1041.28 244.317ZM1063.16 250.638C1063.17 252.171 1062.81 253.554 1062.09 254.787C1061.38 256.02 1060.4 256.986 1059.17 257.684C1057.95 258.382 1056.6 258.733 1055.12 258.739C1053.56 258.745 1052.16 258.403 1050.93 257.714C1049.69 257.025 1048.73 256.067 1048.03 254.839C1047.34 253.611 1047 252.231 1046.99 250.698C1046.98 249.174 1047.33 247.801 1048.03 246.577C1048.74 245.354 1049.71 244.393 1050.95 243.696C1052.19 242.988 1053.56 242.631 1055.06 242.626C1056.59 242.62 1057.98 242.966 1059.21 243.665C1060.44 244.354 1061.41 245.307 1062.11 246.525C1062.8 247.744 1063.16 249.114 1063.16 250.638ZM1055.08 254.916C1056.03 254.912 1056.78 254.538 1057.31 253.794C1057.86 253.04 1058.13 251.965 1058.12 250.568C1058.12 249.26 1057.84 248.24 1057.29 247.51C1056.75 246.77 1055.99 246.401 1055.02 246.405C1054.03 246.409 1053.28 246.778 1052.78 247.512C1052.27 248.237 1052.02 249.331 1052.03 250.796C1052.03 252.036 1052.31 253.036 1052.86 253.796C1053.42 254.546 1054.16 254.919 1055.08 254.916ZM1077.91 242.717L1077.93 247.331C1076.58 247.424 1075.51 247.643 1074.71 247.988C1073.92 248.323 1073.31 248.901 1072.87 249.723C1072.44 250.545 1072.23 251.717 1072.24 253.241L1072.25 254.764L1075.31 254.753L1075.32 258.298L1064.52 258.338L1064.51 254.793L1067.34 254.782L1067.31 246.535L1064.63 246.545L1064.61 242.942L1071.79 242.915L1071.81 246.826C1072.16 245.643 1072.83 244.66 1073.8 243.875C1074.78 243.09 1075.98 242.695 1077.43 242.689C1077.64 242.689 1077.81 242.698 1077.91 242.717ZM1092.68 242.662L1092.7 247.277C1091.35 247.369 1090.28 247.588 1089.48 247.933C1088.69 248.268 1088.07 248.846 1087.64 249.668C1087.21 250.49 1087 251.663 1087 253.186L1087.01 254.71L1090.07 254.698L1090.09 258.243L1079.29 258.283L1079.28 254.738L1082.1 254.728L1082.07 246.481L1079.39 246.491L1079.38 242.887L1086.56 242.861L1086.57 246.772C1086.93 245.589 1087.59 244.605 1088.57 243.82C1089.54 243.035 1090.75 242.64 1092.2 242.635C1092.41 242.634 1092.57 242.643 1092.68 242.662ZM1110.48 251.503L1099 251.545C1099.12 252.726 1099.53 253.662 1100.22 254.353C1100.93 255.034 1101.83 255.373 1102.94 255.369C1104.16 255.364 1105.35 254.754 1106.5 253.539L1110.32 254.755C1109.48 256.018 1108.44 256.969 1107.21 257.609C1105.97 258.238 1104.5 258.556 1102.8 258.562C1101.1 258.569 1099.6 258.257 1098.29 257.627C1096.98 256.987 1095.97 256.083 1095.24 254.914C1094.53 253.744 1094.17 252.369 1094.16 250.787C1094.15 249.224 1094.52 247.807 1095.26 246.535C1096 245.262 1097.01 244.267 1098.28 243.55C1099.55 242.822 1100.94 242.456 1102.43 242.45C1104.06 242.444 1105.47 242.815 1106.67 243.563C1107.88 244.3 1108.8 245.357 1109.45 246.731C1110.11 248.096 1110.45 249.686 1110.48 251.503ZM1102.21 245.718C1101.33 245.721 1100.63 245.978 1100.09 246.487C1099.57 246.997 1099.24 247.775 1099.1 248.82L1105.52 248.797C1105.38 247.879 1105 247.138 1104.38 246.574C1103.78 246 1103.05 245.715 1102.21 245.718ZM1124.87 244.008L1124.86 242.719L1128.22 242.707L1128.24 248.947L1124.77 248.96C1123.94 247.264 1122.69 246.419 1121.01 246.425C1119.98 246.429 1119.13 246.808 1118.46 247.562C1117.8 248.317 1117.47 249.255 1117.48 250.378C1117.48 251.619 1117.8 252.638 1118.44 253.436C1119.09 254.225 1119.95 254.617 1121.01 254.613C1121.78 254.61 1122.51 254.393 1123.2 253.961C1123.9 253.528 1124.46 252.921 1124.9 252.138L1128.71 253.808C1127.88 255.394 1126.87 256.569 1125.69 257.335C1124.51 258.101 1122.92 258.488 1120.92 258.495C1118.32 258.505 1116.26 257.805 1114.73 256.394C1113.21 254.974 1112.45 253.004 1112.44 250.485C1112.43 248.981 1112.78 247.627 1113.46 246.423C1114.16 245.22 1115.11 244.274 1116.3 243.586C1117.48 242.888 1118.79 242.536 1120.2 242.531C1121.82 242.525 1123.38 243.018 1124.87 244.008ZM1140.08 242.663L1140.09 246.266L1137.25 246.277L1137.28 253C1137.28 253.479 1137.37 253.84 1137.56 254.083C1137.75 254.317 1138.09 254.433 1138.6 254.431C1139.02 254.43 1139.53 254.32 1140.12 254.103L1140.14 257.516C1138.82 258.039 1137.58 258.302 1136.42 258.306C1135.08 258.311 1134.07 257.978 1133.4 257.307C1132.73 256.626 1132.4 255.665 1132.39 254.425L1132.36 246.295L1130.41 246.302L1130.4 242.699L1132.35 242.691L1132.34 240.304L1137.22 236.77L1137.24 242.673L1140.08 242.663ZM966.03 278.955C967.348 278.95 968.517 279.312 969.535 280.041C970.563 280.76 971.353 281.728 971.904 282.947C972.465 284.166 972.749 285.488 972.754 286.914C972.759 288.349 972.491 289.683 971.948 290.916C971.416 292.148 970.653 293.128 969.659 293.854C968.676 294.57 967.534 294.931 966.236 294.936C964.615 294.942 963.113 294.278 961.731 292.946L961.738 294.718L954.179 294.746L954.166 291.201L956.832 291.191L956.777 276.191L954.111 276.201L954.098 272.671L961.656 272.643L961.687 281.095C962.922 279.675 964.37 278.961 966.03 278.955ZM964.727 291.133C965.665 291.129 966.396 290.741 966.92 289.967C967.455 289.184 967.719 288.148 967.715 286.859C967.71 285.58 967.438 284.609 966.898 283.947C966.368 283.275 965.644 282.941 964.726 282.944C963.769 282.948 963.019 283.331 962.475 284.095C961.941 284.859 961.676 285.871 961.68 287.13C961.685 288.312 961.962 289.278 962.511 290.028C963.071 290.768 963.809 291.136 964.727 291.133ZM982.378 290.833C983.218 290.83 984.124 290.456 985.098 289.71L985.073 282.84L982.715 282.848L982.701 279.245L989.952 279.218L989.996 291.069L992.515 291.059L992.529 294.604L985.116 294.632L985.112 293.343C983.582 294.364 982.095 294.877 980.65 294.883C979.155 294.888 977.992 294.477 977.159 293.65C976.326 292.823 975.906 291.682 975.901 290.227L975.874 282.874L973.559 282.882L973.546 279.279L980.724 279.252L980.76 288.949C980.762 289.672 980.876 290.17 981.102 290.442C981.337 290.705 981.763 290.835 982.378 290.833ZM1006.23 280.447L1006.23 279.158L1009.58 279.146L1009.6 285.386L1006.13 285.399C1005.31 283.702 1004.05 282.857 1002.37 282.864C1001.35 282.867 1000.5 283.247 999.828 284.001C999.167 284.755 998.838 285.694 998.843 286.817C998.847 288.057 999.168 289.077 999.806 289.875C1000.45 290.664 1001.31 291.056 1002.37 291.052C1003.15 291.049 1003.88 290.832 1004.57 290.4C1005.26 289.967 1005.82 289.36 1006.26 288.577L1010.08 290.247C1009.24 291.832 1008.24 293.008 1007.06 293.774C1005.88 294.54 1004.29 294.927 1002.29 294.934C999.688 294.944 997.625 294.244 996.096 292.833C994.577 291.413 993.813 289.443 993.804 286.924C993.798 285.42 994.14 284.066 994.829 282.862C995.528 281.659 996.471 280.713 997.66 280.025C998.849 279.327 1000.15 278.975 1001.57 278.97C1003.19 278.964 1004.74 279.456 1006.23 280.447ZM1020.71 291.116L1020.73 294.5L1011.48 294.534L1011.47 290.989L1013.93 290.98L1013.88 275.98L1011.41 275.989L1011.4 272.459L1018.78 272.432L1018.85 291.123L1020.71 291.116ZM1020.82 279.104L1030.12 279.07L1030.13 282.19L1028.61 282.195L1024.08 286.065L1028.21 290.927L1030.34 290.92L1030.35 294.464L1025.46 294.483L1018.87 286.377L1024.06 282.066L1020.83 282.078L1020.82 279.104ZM1047.3 287.737L1035.82 287.779C1035.94 288.96 1036.35 289.896 1037.05 290.587C1037.75 291.268 1038.66 291.607 1039.76 291.602C1040.98 291.598 1042.17 290.988 1043.33 289.773L1047.14 290.989C1046.3 292.252 1045.27 293.203 1044.03 293.843C1042.79 294.472 1041.32 294.79 1039.62 294.796C1037.93 294.803 1036.42 294.491 1035.11 293.861C1033.81 293.221 1032.79 292.317 1032.07 291.147C1031.35 289.978 1030.99 288.603 1030.98 287.021C1030.98 285.458 1031.34 284.041 1032.08 282.768C1032.83 281.496 1033.83 280.501 1035.1 279.784C1036.38 279.056 1037.76 278.69 1039.26 278.684C1040.88 278.678 1042.29 279.049 1043.49 279.797C1044.7 280.534 1045.63 281.59 1046.27 282.965C1046.93 284.33 1047.28 285.92 1047.3 287.737ZM1039.03 281.952C1038.16 281.955 1037.45 282.212 1036.91 282.721C1036.39 283.231 1036.06 284.009 1035.93 285.054L1042.34 285.03C1042.2 284.113 1041.82 283.372 1041.21 282.808C1040.6 282.234 1039.87 281.949 1039.03 281.952ZM1058.77 278.964L1058.78 282.567L1055.94 282.578L1055.97 289.301C1055.97 289.78 1056.06 290.141 1056.25 290.384C1056.44 290.618 1056.78 290.734 1057.29 290.732C1057.71 290.73 1058.22 290.621 1058.81 290.404L1058.82 293.817C1057.51 294.34 1056.27 294.603 1055.11 294.607C1053.77 294.612 1052.76 294.279 1052.09 293.608C1051.42 292.927 1051.08 291.966 1051.08 290.726L1051.05 282.596L1049.1 282.603L1049.09 279L1051.04 278.992L1051.03 276.605L1055.91 273.071L1055.93 278.974L1058.77 278.964Z" fill="#5A5454"/>
<path d="M240.924 157.098V156.736H243.258V159.744H240.924C240.722 159.021 239.973 158.66 238.678 158.66C237.747 158.66 237.281 158.921 237.281 159.441C237.281 159.669 237.405 159.839 237.652 159.949C237.9 160.06 238.261 160.151 238.736 160.223C240.071 160.392 241.122 160.636 241.891 160.955C242.659 161.268 243.196 161.658 243.502 162.127C243.808 162.589 243.961 163.152 243.961 163.816C243.961 164.897 243.59 165.74 242.848 166.346C242.112 166.945 241.109 167.244 239.84 167.244C238.603 167.244 237.763 166.997 237.32 166.502V167H234.938V163.465H237.32C237.385 163.953 237.62 164.337 238.023 164.617C238.434 164.897 238.938 165.037 239.537 165.037C240.123 165.037 240.556 164.972 240.836 164.842C241.116 164.705 241.256 164.471 241.256 164.139C241.256 163.911 241.197 163.735 241.08 163.611C240.963 163.481 240.735 163.367 240.396 163.27C240.064 163.172 239.553 163.061 238.863 162.938C237.327 162.697 236.22 162.309 235.543 161.775C234.872 161.235 234.537 160.509 234.537 159.598C234.537 158.667 234.885 157.934 235.582 157.4C236.285 156.867 237.21 156.6 238.355 156.6C239.28 156.6 240.136 156.766 240.924 157.098ZM250.211 153.816C250.211 154.337 250.032 154.77 249.674 155.115C249.322 155.454 248.902 155.623 248.414 155.623C247.919 155.623 247.493 155.447 247.135 155.096C246.783 154.738 246.607 154.311 246.607 153.816C246.607 153.328 246.783 152.908 247.135 152.557C247.493 152.199 247.919 152.02 248.414 152.02C248.902 152.02 249.322 152.199 249.674 152.557C250.032 152.908 250.211 153.328 250.211 153.816ZM251.529 164.637V167H245.191V164.637H246.754V159.139H245.191V156.736H250.006V164.637H251.529ZM258.131 156.736V159.139H256.236V163.621C256.236 163.94 256.298 164.181 256.422 164.344C256.546 164.5 256.777 164.578 257.115 164.578C257.395 164.578 257.734 164.507 258.131 164.363V166.639C257.252 166.984 256.425 167.156 255.65 167.156C254.758 167.156 254.088 166.932 253.639 166.482C253.196 166.027 252.975 165.385 252.975 164.559V159.139H251.676V156.736H252.975V155.145L256.236 152.801V156.736H258.131ZM270.191 162.557H262.535C262.613 163.344 262.883 163.969 263.346 164.432C263.814 164.887 264.417 165.115 265.152 165.115C265.966 165.115 266.76 164.712 267.535 163.904L270.074 164.725C269.514 165.564 268.821 166.196 267.994 166.619C267.167 167.036 266.188 167.244 265.055 167.244C263.922 167.244 262.919 167.033 262.047 166.609C261.181 166.18 260.507 165.574 260.025 164.793C259.55 164.012 259.312 163.094 259.312 162.039C259.312 160.997 259.56 160.053 260.055 159.207C260.556 158.361 261.23 157.7 262.076 157.225C262.929 156.743 263.854 156.502 264.85 156.502C265.93 156.502 266.871 156.753 267.672 157.254C268.473 157.749 269.088 158.455 269.518 159.373C269.954 160.285 270.178 161.346 270.191 162.557ZM264.693 158.68C264.107 158.68 263.635 158.849 263.277 159.188C262.926 159.526 262.704 160.044 262.613 160.74H266.891C266.799 160.128 266.549 159.633 266.139 159.256C265.735 158.872 265.253 158.68 264.693 158.68ZM286.305 164.48V167H278.805V164.48H280.826V154.803H278.668V152.283H284.41V164.48H286.305ZM243.062 181.596V180.736H245.299V184.896H242.984C242.438 183.764 241.604 183.197 240.484 183.197C239.801 183.197 239.234 183.448 238.785 183.949C238.342 184.451 238.121 185.076 238.121 185.824C238.121 186.651 238.333 187.331 238.756 187.865C239.186 188.393 239.755 188.656 240.465 188.656C240.979 188.656 241.467 188.513 241.93 188.227C242.392 187.94 242.77 187.536 243.062 187.016L245.602 188.139C245.042 189.193 244.368 189.975 243.58 190.482C242.792 190.99 241.731 191.244 240.396 191.244C238.665 191.244 237.291 190.772 236.275 189.828C235.266 188.878 234.762 187.562 234.762 185.883C234.762 184.88 234.993 183.979 235.455 183.178C235.924 182.377 236.555 181.749 237.35 181.293C238.144 180.831 239.013 180.6 239.957 180.6C241.038 180.6 242.073 180.932 243.062 181.596ZM257.633 185.863C257.633 186.885 257.392 187.807 256.91 188.627C256.428 189.447 255.777 190.089 254.957 190.551C254.137 191.013 253.235 191.244 252.252 191.244C251.21 191.244 250.279 191.013 249.459 190.551C248.639 190.089 247.997 189.447 247.535 188.627C247.079 187.807 246.852 186.885 246.852 185.863C246.852 184.848 247.086 183.933 247.555 183.119C248.03 182.305 248.681 181.667 249.508 181.205C250.335 180.736 251.249 180.502 252.252 180.502C253.274 180.502 254.195 180.736 255.016 181.205C255.836 181.667 256.477 182.305 256.939 183.119C257.402 183.933 257.633 184.848 257.633 185.863ZM252.232 188.695C252.87 188.695 253.368 188.448 253.727 187.953C254.091 187.452 254.273 186.736 254.273 185.805C254.273 184.932 254.091 184.252 253.727 183.764C253.368 183.269 252.864 183.021 252.213 183.021C251.555 183.021 251.057 183.266 250.719 183.754C250.38 184.236 250.211 184.965 250.211 185.941C250.211 186.768 250.393 187.436 250.758 187.943C251.129 188.445 251.62 188.695 252.232 188.695ZM269.762 184.457V188.637H271.305V191H266.48V184.721C266.48 184.239 266.406 183.891 266.256 183.676C266.113 183.454 265.868 183.344 265.523 183.344C264.898 183.344 264.27 183.568 263.639 184.018V188.637H265.24V191H258.824V188.637H260.387V183.139H258.824V180.736H263.639V181.703C264.615 180.967 265.618 180.6 266.646 180.6C267.669 180.6 268.443 180.925 268.971 181.576C269.498 182.221 269.762 183.181 269.762 184.457ZM274.049 180.736V180.102C274.049 178.715 274.511 177.689 275.436 177.025C276.367 176.355 277.551 176.02 278.99 176.02C280.208 176.02 281.184 176.241 281.92 176.684C282.662 177.12 283.147 177.771 283.375 178.637L280.152 178.998C279.977 178.438 279.505 178.158 278.736 178.158C278.294 178.158 277.942 178.288 277.682 178.549C277.421 178.809 277.291 179.333 277.291 180.121V180.736H283.395V188.637H285.035V191H279.117V188.637H280.133V183.139H277.291V188.637H278.375V191H272.438V188.637H274.049V183.139H272.438V180.736H274.049ZM293.199 181.996V180.736H298.15V183.139H296.451V190.805C296.451 192.413 296.012 193.64 295.133 194.486C294.254 195.333 292.9 195.756 291.07 195.756C289.046 195.756 287.535 195.385 286.539 194.643L288.131 192.484C288.971 192.999 289.798 193.256 290.611 193.256C291.295 193.256 291.822 193.152 292.193 192.943C292.571 192.742 292.831 192.426 292.975 191.996C293.124 191.573 293.199 191 293.199 190.277V189.721C292.118 190.678 291.07 191.156 290.055 191.156C289.215 191.156 288.469 190.935 287.818 190.492C287.174 190.043 286.676 189.418 286.324 188.617C285.973 187.816 285.797 186.898 285.797 185.863C285.797 184.848 285.982 183.939 286.354 183.139C286.731 182.338 287.262 181.716 287.945 181.273C288.629 180.824 289.391 180.6 290.23 180.6C291.448 180.6 292.438 181.065 293.199 181.996ZM291.158 188.5C291.757 188.5 292.249 188.272 292.633 187.816C293.023 187.354 293.219 186.716 293.219 185.902C293.219 185.076 293.033 184.424 292.662 183.949C292.298 183.474 291.796 183.236 291.158 183.236C290.54 183.236 290.051 183.48 289.693 183.969C289.335 184.457 289.156 185.095 289.156 185.883C289.156 186.638 289.335 187.263 289.693 187.758C290.051 188.253 290.54 188.5 291.158 188.5Z" fill="#F2F2F2"/>
<path d="M432.1 137.875H387.55L377.65 128H352.9C347.455 128 343 132.444 343 137.875V197.125C343 202.556 347.455 207 352.9 207H432.1C437.545 207 442 202.556 442 197.125V147.75C442 142.319 437.545 137.875 432.1 137.875Z" fill="#285477"/>
<path d="M379.404 166.619V169.695C378.506 169.754 377.79 169.897 377.256 170.125C376.729 170.346 376.318 170.73 376.025 171.277C375.739 171.824 375.596 172.605 375.596 173.621V174.637H377.637V177H370.439V174.637H372.324V169.139H370.537V166.736H375.322V169.344C375.563 168.556 376.009 167.902 376.66 167.381C377.311 166.86 378.118 166.6 379.082 166.6C379.225 166.6 379.333 166.606 379.404 166.619ZM391.25 172.557H383.594C383.672 173.344 383.942 173.969 384.404 174.432C384.873 174.887 385.475 175.115 386.211 175.115C387.025 175.115 387.819 174.712 388.594 173.904L391.133 174.725C390.573 175.564 389.88 176.196 389.053 176.619C388.226 177.036 387.246 177.244 386.113 177.244C384.98 177.244 383.978 177.033 383.105 176.609C382.24 176.18 381.566 175.574 381.084 174.793C380.609 174.012 380.371 173.094 380.371 172.039C380.371 170.997 380.618 170.053 381.113 169.207C381.615 168.361 382.288 167.7 383.135 167.225C383.988 166.743 384.912 166.502 385.908 166.502C386.989 166.502 387.93 166.753 388.73 167.254C389.531 167.749 390.146 168.455 390.576 169.373C391.012 170.285 391.237 171.346 391.25 172.557ZM385.752 168.68C385.166 168.68 384.694 168.849 384.336 169.188C383.984 169.526 383.763 170.044 383.672 170.74H387.949C387.858 170.128 387.607 169.633 387.197 169.256C386.794 168.872 386.312 168.68 385.752 168.68ZM404.121 171.98C404.121 172.983 403.942 173.885 403.584 174.686C403.226 175.48 402.708 176.105 402.031 176.561C401.361 177.016 400.586 177.244 399.707 177.244C398.626 177.244 397.627 176.818 396.709 175.965V179.256H398.74V181.619H391.709V179.256H393.447V169.139H391.982V166.736H396.709V168.016C397.614 167.072 398.626 166.6 399.746 166.6C400.651 166.6 401.432 166.837 402.09 167.312C402.754 167.781 403.258 168.423 403.604 169.236C403.949 170.05 404.121 170.965 404.121 171.98ZM398.76 174.656C399.404 174.656 399.899 174.419 400.244 173.943C400.589 173.462 400.762 172.781 400.762 171.902C400.762 171.062 400.586 170.408 400.234 169.939C399.883 169.471 399.378 169.236 398.721 169.236C398.096 169.236 397.594 169.48 397.217 169.969C396.846 170.457 396.66 171.115 396.66 171.941C396.66 172.716 396.852 173.364 397.236 173.885C397.627 174.399 398.135 174.656 398.76 174.656ZM416.426 171.863C416.426 172.885 416.185 173.807 415.703 174.627C415.221 175.447 414.57 176.089 413.75 176.551C412.93 177.013 412.028 177.244 411.045 177.244C410.003 177.244 409.072 177.013 408.252 176.551C407.432 176.089 406.79 175.447 406.328 174.627C405.872 173.807 405.645 172.885 405.645 171.863C405.645 170.848 405.879 169.933 406.348 169.119C406.823 168.305 407.474 167.667 408.301 167.205C409.128 166.736 410.042 166.502 411.045 166.502C412.067 166.502 412.988 166.736 413.809 167.205C414.629 167.667 415.27 168.305 415.732 169.119C416.195 169.933 416.426 170.848 416.426 171.863ZM411.025 174.695C411.663 174.695 412.161 174.448 412.52 173.953C412.884 173.452 413.066 172.736 413.066 171.805C413.066 170.932 412.884 170.252 412.52 169.764C412.161 169.269 411.657 169.021 411.006 169.021C410.348 169.021 409.85 169.266 409.512 169.754C409.173 170.236 409.004 170.965 409.004 171.941C409.004 172.768 409.186 173.436 409.551 173.943C409.922 174.445 410.413 174.695 411.025 174.695Z" fill="#F2F2F2"/>
<path d="M501.924 157.098V156.736H504.258V159.744H501.924C501.722 159.021 500.973 158.66 499.678 158.66C498.747 158.66 498.281 158.921 498.281 159.441C498.281 159.669 498.405 159.839 498.652 159.949C498.9 160.06 499.261 160.151 499.736 160.223C501.071 160.392 502.122 160.636 502.891 160.955C503.659 161.268 504.196 161.658 504.502 162.127C504.808 162.589 504.961 163.152 504.961 163.816C504.961 164.897 504.59 165.74 503.848 166.346C503.112 166.945 502.109 167.244 500.84 167.244C499.603 167.244 498.763 166.997 498.32 166.502V167H495.938V163.465H498.32C498.385 163.953 498.62 164.337 499.023 164.617C499.434 164.897 499.938 165.037 500.537 165.037C501.123 165.037 501.556 164.972 501.836 164.842C502.116 164.705 502.256 164.471 502.256 164.139C502.256 163.911 502.197 163.735 502.08 163.611C501.963 163.481 501.735 163.367 501.396 163.27C501.064 163.172 500.553 163.061 499.863 162.938C498.327 162.697 497.22 162.309 496.543 161.775C495.872 161.235 495.537 160.509 495.537 159.598C495.537 158.667 495.885 157.934 496.582 157.4C497.285 156.867 498.21 156.6 499.355 156.6C500.28 156.6 501.136 156.766 501.924 157.098ZM511.211 153.816C511.211 154.337 511.032 154.77 510.674 155.115C510.322 155.454 509.902 155.623 509.414 155.623C508.919 155.623 508.493 155.447 508.135 155.096C507.783 154.738 507.607 154.311 507.607 153.816C507.607 153.328 507.783 152.908 508.135 152.557C508.493 152.199 508.919 152.02 509.414 152.02C509.902 152.02 510.322 152.199 510.674 152.557C511.032 152.908 511.211 153.328 511.211 153.816ZM512.529 164.637V167H506.191V164.637H507.754V159.139H506.191V156.736H511.006V164.637H512.529ZM519.131 156.736V159.139H517.236V163.621C517.236 163.94 517.298 164.181 517.422 164.344C517.546 164.5 517.777 164.578 518.115 164.578C518.395 164.578 518.734 164.507 519.131 164.363V166.639C518.252 166.984 517.425 167.156 516.65 167.156C515.758 167.156 515.088 166.932 514.639 166.482C514.196 166.027 513.975 165.385 513.975 164.559V159.139H512.676V156.736H513.975V155.145L517.236 152.801V156.736H519.131ZM531.191 162.557H523.535C523.613 163.344 523.883 163.969 524.346 164.432C524.814 164.887 525.417 165.115 526.152 165.115C526.966 165.115 527.76 164.712 528.535 163.904L531.074 164.725C530.514 165.564 529.821 166.196 528.994 166.619C528.167 167.036 527.188 167.244 526.055 167.244C524.922 167.244 523.919 167.033 523.047 166.609C522.181 166.18 521.507 165.574 521.025 164.793C520.55 164.012 520.312 163.094 520.312 162.039C520.312 160.997 520.56 160.053 521.055 159.207C521.556 158.361 522.23 157.7 523.076 157.225C523.929 156.743 524.854 156.502 525.85 156.502C526.93 156.502 527.871 156.753 528.672 157.254C529.473 157.749 530.088 158.455 530.518 159.373C530.954 160.285 531.178 161.346 531.191 162.557ZM525.693 158.68C525.107 158.68 524.635 158.849 524.277 159.188C523.926 159.526 523.704 160.044 523.613 160.74H527.891C527.799 160.128 527.549 159.633 527.139 159.256C526.735 158.872 526.253 158.68 525.693 158.68ZM548.408 155.965C548.408 157.443 547.669 158.527 546.191 159.217C548.04 159.848 548.965 161.017 548.965 162.723C548.965 163.602 548.727 164.383 548.252 165.066C547.783 165.743 547.129 166.268 546.289 166.639C545.449 167.01 544.502 167.195 543.447 167.195C539.925 167.195 538.037 165.59 537.783 162.381L540.986 162.117C540.999 163.836 541.706 164.695 543.105 164.695C543.75 164.695 544.274 164.493 544.678 164.09C545.081 163.686 545.283 163.188 545.283 162.596C545.283 161.984 545.068 161.489 544.639 161.111C544.215 160.727 543.613 160.535 542.832 160.535C542.708 160.535 542.435 160.551 542.012 160.584V157.898C542.917 157.885 543.623 157.726 544.131 157.42C544.639 157.114 544.893 156.674 544.893 156.102C544.893 155.646 544.72 155.275 544.375 154.988C544.036 154.702 543.607 154.559 543.086 154.559C541.914 154.559 541.328 155.213 541.328 156.521L538.232 156.258C538.337 154.923 538.838 153.885 539.736 153.143C540.635 152.394 541.82 152.02 543.291 152.02C544.847 152.02 546.087 152.374 547.012 153.084C547.943 153.787 548.408 154.747 548.408 155.965ZM504.062 181.596V180.736H506.299V184.896H503.984C503.438 183.764 502.604 183.197 501.484 183.197C500.801 183.197 500.234 183.448 499.785 183.949C499.342 184.451 499.121 185.076 499.121 185.824C499.121 186.651 499.333 187.331 499.756 187.865C500.186 188.393 500.755 188.656 501.465 188.656C501.979 188.656 502.467 188.513 502.93 188.227C503.392 187.94 503.77 187.536 504.062 187.016L506.602 188.139C506.042 189.193 505.368 189.975 504.58 190.482C503.792 190.99 502.731 191.244 501.396 191.244C499.665 191.244 498.291 190.772 497.275 189.828C496.266 188.878 495.762 187.562 495.762 185.883C495.762 184.88 495.993 183.979 496.455 183.178C496.924 182.377 497.555 181.749 498.35 181.293C499.144 180.831 500.013 180.6 500.957 180.6C502.038 180.6 503.073 180.932 504.062 181.596ZM518.633 185.863C518.633 186.885 518.392 187.807 517.91 188.627C517.428 189.447 516.777 190.089 515.957 190.551C515.137 191.013 514.235 191.244 513.252 191.244C512.21 191.244 511.279 191.013 510.459 190.551C509.639 190.089 508.997 189.447 508.535 188.627C508.079 187.807 507.852 186.885 507.852 185.863C507.852 184.848 508.086 183.933 508.555 183.119C509.03 182.305 509.681 181.667 510.508 181.205C511.335 180.736 512.249 180.502 513.252 180.502C514.274 180.502 515.195 180.736 516.016 181.205C516.836 181.667 517.477 182.305 517.939 183.119C518.402 183.933 518.633 184.848 518.633 185.863ZM513.232 188.695C513.87 188.695 514.368 188.448 514.727 187.953C515.091 187.452 515.273 186.736 515.273 185.805C515.273 184.932 515.091 184.252 514.727 183.764C514.368 183.269 513.864 183.021 513.213 183.021C512.555 183.021 512.057 183.266 511.719 183.754C511.38 184.236 511.211 184.965 511.211 185.941C511.211 186.768 511.393 187.436 511.758 187.943C512.129 188.445 512.62 188.695 513.232 188.695ZM530.762 184.457V188.637H532.305V191H527.48V184.721C527.48 184.239 527.406 183.891 527.256 183.676C527.113 183.454 526.868 183.344 526.523 183.344C525.898 183.344 525.27 183.568 524.639 184.018V188.637H526.24V191H519.824V188.637H521.387V183.139H519.824V180.736H524.639V181.703C525.615 180.967 526.618 180.6 527.646 180.6C528.669 180.6 529.443 180.925 529.971 181.576C530.498 182.221 530.762 183.181 530.762 184.457ZM535.049 180.736V180.102C535.049 178.715 535.511 177.689 536.436 177.025C537.367 176.355 538.551 176.02 539.99 176.02C541.208 176.02 542.184 176.241 542.92 176.684C543.662 177.12 544.147 177.771 544.375 178.637L541.152 178.998C540.977 178.438 540.505 178.158 539.736 178.158C539.294 178.158 538.942 178.288 538.682 178.549C538.421 178.809 538.291 179.333 538.291 180.121V180.736H544.395V188.637H546.035V191H540.117V188.637H541.133V183.139H538.291V188.637H539.375V191H533.438V188.637H535.049V183.139H533.438V180.736H535.049ZM554.199 181.996V180.736H559.15V183.139H557.451V190.805C557.451 192.413 557.012 193.64 556.133 194.486C555.254 195.333 553.9 195.756 552.07 195.756C550.046 195.756 548.535 195.385 547.539 194.643L549.131 192.484C549.971 192.999 550.798 193.256 551.611 193.256C552.295 193.256 552.822 193.152 553.193 192.943C553.571 192.742 553.831 192.426 553.975 191.996C554.124 191.573 554.199 191 554.199 190.277V189.721C553.118 190.678 552.07 191.156 551.055 191.156C550.215 191.156 549.469 190.935 548.818 190.492C548.174 190.043 547.676 189.418 547.324 188.617C546.973 187.816 546.797 186.898 546.797 185.863C546.797 184.848 546.982 183.939 547.354 183.139C547.731 182.338 548.262 181.716 548.945 181.273C549.629 180.824 550.391 180.6 551.23 180.6C552.448 180.6 553.438 181.065 554.199 181.996ZM552.158 188.5C552.757 188.5 553.249 188.272 553.633 187.816C554.023 187.354 554.219 186.716 554.219 185.902C554.219 185.076 554.033 184.424 553.662 183.949C553.298 183.474 552.796 183.236 552.158 183.236C551.54 183.236 551.051 183.48 550.693 183.969C550.335 184.457 550.156 185.095 550.156 185.883C550.156 186.638 550.335 187.263 550.693 187.758C551.051 188.253 551.54 188.5 552.158 188.5Z" fill="#F2F2F2"/>
<path d="M633.523 191.649C634.654 191.62 636.171 191.958 637.302 191.93C638.432 191.902 639.94 191.864 641.061 191.461L646.911 199.199C647.306 199.94 648.446 200.287 649.558 199.508L662.562 191.675C663.683 191.272 664.032 190.137 663.637 189.396L659.266 180.494C660.727 178.581 662.169 175.917 662.867 173.647L672.638 172.277C673.768 172.249 674.503 171.479 674.475 170.354L674.101 155.346C674.073 154.22 673.3 153.488 672.17 153.517L662.72 152.626C661.523 150.028 660.337 147.805 658.782 145.966L662.327 136.867C662.685 136.108 662.28 134.991 661.517 134.635L648.139 127.46C646.989 126.738 645.859 126.766 645.51 127.901L639.676 135.931C638.545 135.959 637.029 135.621 635.898 135.649C634.767 135.677 633.26 135.715 632.138 136.118L626.289 128.38C625.893 127.639 624.753 127.292 623.641 128.071L610.637 135.904C609.516 136.307 609.167 137.442 609.563 138.183L613.933 147.085C612.472 148.998 611.03 151.662 610.333 153.932L600.562 155.302C599.431 155.331 598.696 156.1 598.724 157.225L599.099 172.234C599.127 173.359 599.899 174.091 601.03 174.063L610.857 174.944C612.053 177.542 613.24 179.765 614.794 181.603L610.873 190.712C610.515 191.472 610.92 192.588 611.683 192.944L625.061 200.119C625.824 200.476 626.955 200.447 627.69 199.678L633.523 191.649ZM621.524 164.166C621.319 155.911 627.934 148.988 636.225 148.781C644.517 148.575 651.469 155.159 651.675 163.414C651.881 171.668 645.265 178.591 636.974 178.798C628.683 179.004 621.73 172.42 621.524 164.166Z" fill="#285477"/>
<path d="M683.68 208.717C684.384 209.027 685.22 209.675 685.924 209.986C686.628 210.296 687.567 210.71 688.374 210.787L689.73 217.246C689.759 217.816 690.36 218.36 691.27 218.204L701.544 217.154C702.351 217.231 702.895 216.633 702.866 216.062L702.758 209.317C704.212 208.563 705.872 207.341 706.959 206.147L713.37 208.137C714.074 208.447 714.749 208.187 715.058 207.486L719.18 198.141C719.489 197.44 719.226 196.766 718.522 196.456L712.964 193.167C712.982 191.221 712.896 189.509 712.472 187.927L717.292 183.355C717.733 182.991 717.807 182.187 717.441 181.746L711.288 173.451C710.79 172.673 710.086 172.363 709.542 172.96L703.624 176.21C702.92 175.9 702.084 175.252 701.38 174.942C700.676 174.631 699.737 174.217 698.93 174.14L697.574 167.682C697.546 167.111 696.945 166.567 696.034 166.724L685.76 167.773C684.953 167.697 684.409 168.294 684.438 168.865L684.546 175.61C683.092 176.364 681.432 177.586 680.345 178.78L673.934 176.79C673.23 176.48 672.555 176.74 672.246 177.441L668.124 186.786C667.815 187.487 668.078 188.161 668.782 188.472L674.575 191.864C674.557 193.809 674.643 195.522 675.067 197.104L670.012 201.572C669.572 201.936 669.497 202.74 669.863 203.181L676.016 211.476C676.382 211.917 677.086 212.227 677.762 211.967L683.68 208.717ZM684.265 188.324C686.532 183.184 692.611 180.842 697.774 183.119C702.936 185.396 705.306 191.464 703.039 196.604C700.772 201.743 694.693 204.086 689.531 201.809C684.368 199.532 681.998 193.463 684.265 188.324Z" fill="#285477"/>
<path d="M294.864 170.793C296.406 169.211 296.374 166.679 294.793 165.136L269.021 140.001C267.439 138.458 264.907 138.49 263.364 140.071C261.822 141.653 261.854 144.185 263.435 145.728L286.344 168.071L264.001 190.979C262.458 192.561 262.49 195.093 264.071 196.636C265.653 198.178 268.185 198.146 269.728 196.565L294.864 170.793ZM212.05 173L292.05 172L291.95 164L211.95 165L212.05 173Z" fill="#285477"/>
<path d="M861.864 170.793C863.406 169.211 863.374 166.679 861.793 165.136L836.021 140.001C834.439 138.458 831.907 138.49 830.364 140.071C828.822 141.653 828.854 144.185 830.435 145.728L853.344 168.071L831.001 190.979C829.458 192.561 829.49 195.093 831.071 196.636C832.653 198.178 835.185 198.146 836.728 196.565L861.864 170.793ZM779.05 173L859.05 172L858.95 164L778.95 165L779.05 173Z" fill="#285477"/>
<path d="M578.864 171.793C580.406 170.211 580.374 167.679 578.793 166.136L553.021 141.001C551.439 139.458 548.907 139.49 547.364 141.071C545.822 142.653 545.854 145.185 547.435 146.728L570.344 169.071L548.001 191.979C546.458 193.561 546.49 196.093 548.071 197.636C549.653 199.178 552.185 199.146 553.728 197.565L578.864 171.793ZM496.05 174L576.05 173L575.95 165L495.95 166L496.05 174Z" fill="#285477"/>
<path d="M1011 141C1001.29 141 993.276 147.889 993.032 156.594C993.014 156.732 993 156.858 993 157C992.998 157.095 993.008 157.189 993.032 157.281C993.421 161.641 1002.46 164 1011 164C1019.54 164 1028.58 161.641 1028.97 157.281C1028.97 157.26 1028.97 157.24 1028.97 157.219C1028.97 157.197 1029 157.179 1029 157.156C1029 157.104 1029 157.052 1029 157C1029 156.858 1028.99 156.732 1028.97 156.594C1028.72 147.889 1020.71 141 1011 141ZM1011 143C1018.41 143 1024.54 147.366 1026.41 153.25C1023.04 151.123 1016.89 150 1011 150C1005.11 150 998.962 151.123 995.594 153.25C997.457 147.366 1003.59 143 1011 143ZM993 161.312V182C993 187.047 1000.91 191 1011 191C1021.09 191 1029 187.047 1029 182V161.312C1025.16 164.905 1016.61 166 1011 166C1005.39 166 996.845 164.905 993 161.312ZM1000 171.219C1000 171.219 1005.14 173 1011 173C1016.86 173 1022 171.219 1022 171.219V180.562C1022 180.562 1017.79 183 1011 183C1004.21 183 1000 180.562 1000 180.562V171.219Z" fill="#285477"/>
<path d="M1083 141C1073.29 141 1065.28 147.889 1065.03 156.594C1065.01 156.732 1065 156.858 1065 157C1065 157.095 1065.01 157.189 1065.03 157.281C1065.42 161.641 1074.46 164 1083 164C1091.54 164 1100.58 161.641 1100.97 157.281C1100.97 157.26 1100.97 157.24 1100.97 157.219C1100.97 157.197 1101 157.179 1101 157.156C1101 157.104 1101 157.052 1101 157C1101 156.858 1100.99 156.732 1100.97 156.594C1100.72 147.889 1092.71 141 1083 141ZM1083 143C1090.41 143 1096.54 147.366 1098.41 153.25C1095.04 151.123 1088.89 150 1083 150C1077.11 150 1070.96 151.123 1067.59 153.25C1069.46 147.366 1075.59 143 1083 143ZM1065 161.312V182C1065 187.047 1072.91 191 1083 191C1093.09 191 1101 187.047 1101 182V161.312C1097.16 164.905 1088.61 166 1083 166C1077.39 166 1068.85 164.905 1065 161.312ZM1072 171.219C1072 171.219 1077.14 173 1083 173C1088.86 173 1094 171.219 1094 171.219V180.562C1094 180.562 1089.79 183 1083 183C1076.21 183 1072 180.562 1072 180.562V171.219Z" fill="#285477"/>
<path d="M939 141C929.286 141 921.276 147.889 921.032 156.594C921.014 156.732 921 156.858 921 157C920.998 157.095 921.008 157.189 921.032 157.281C921.421 161.641 930.464 164 939 164C947.538 164 956.58 161.641 956.969 157.281C956.97 157.26 956.97 157.24 956.969 157.219C956.971 157.197 956.999 157.179 957 157.156C957.005 157.104 957.005 157.052 957 157C957 156.858 956.987 156.732 956.969 156.594C956.725 147.889 948.715 141 939 141ZM939 143C946.41 143 952.544 147.366 954.407 153.25C951.04 151.123 944.895 150 939 150C933.107 150 926.962 151.123 923.594 153.25C925.457 147.366 931.591 143 939 143ZM921 161.312V182C921 187.047 928.907 191 939 191C949.094 191 957 187.047 957 182V161.312C953.155 164.905 944.612 166 939 166C933.388 166 924.845 164.905 921 161.312ZM928 171.219C928 171.219 933.136 173 939 173C944.863 173 950 171.219 950 171.219V180.562C950 180.562 945.791 183 939 183C932.209 183 928 180.562 928 180.562V171.219Z" fill="#285477"/>
</svg>
