<svg width="1010" height="587" viewBox="0 0 1010 587" fill="none" xmlns="http://www.w3.org/2000/svg">
<rect width="1010" height="587" fill="#F2F2F2"/>
<path fill-rule="evenodd" clip-rule="evenodd" d="M219.155 59.9395C219.269 59.9395 219.362 60.0322 219.362 60.1466V60.5458C219.362 60.6603 219.269 60.753 219.155 60.753C219.041 60.753 218.948 60.6603 218.948 60.5458V60.1466C218.948 60.0322 219.041 59.9395 219.155 59.9395Z" fill="#3A7FC3"/>
<path d="M809.359 191.38L809.352 189.549L813.102 189.535L813.127 196.215L809.377 196.229C809.216 195.155 808.862 194.351 808.313 193.816C807.774 193.271 807.075 193 806.215 193.003C805.61 193.006 805.093 193.178 804.664 193.522C804.236 193.865 804.023 194.296 804.025 194.813C804.026 195.272 804.165 195.667 804.439 195.998C804.714 196.329 805.067 196.611 805.497 196.844C805.928 197.067 806.573 197.367 807.434 197.745L808.329 198.123C810.275 198.955 811.744 199.936 812.734 201.065C813.735 202.194 814.238 203.609 814.244 205.308C814.252 207.329 813.677 208.933 812.519 210.119C811.361 211.295 809.801 211.887 807.838 211.894C805.924 211.901 804.432 211.189 803.362 209.757L803.369 211.647L799.619 211.661L799.591 204.161L803.341 204.147C803.424 205.445 803.76 206.435 804.349 207.117C804.947 207.788 805.749 208.122 806.755 208.119C807.428 208.116 807.994 207.885 808.451 207.424C808.918 206.963 809.151 206.406 809.148 205.751C809.146 205.087 808.875 204.483 808.336 203.938C807.806 203.383 806.901 202.83 805.62 202.278C803.438 201.329 801.853 200.305 800.862 199.205C799.882 198.105 799.389 196.837 799.383 195.402C799.379 194.279 799.634 193.252 800.148 192.323C800.662 191.393 801.373 190.663 802.279 190.132C803.195 189.592 804.19 189.319 805.264 189.315C806.124 189.312 806.905 189.485 807.61 189.834C808.314 190.183 808.897 190.698 809.359 191.38ZM823.452 191.797C823.455 192.578 823.189 193.229 822.654 193.748C822.128 194.258 821.499 194.514 820.767 194.517C820.025 194.52 819.384 194.258 818.845 193.733C818.316 193.198 818.05 192.559 818.047 191.817C818.044 191.085 818.306 190.454 818.831 189.924C819.366 189.385 820.005 189.114 820.747 189.112C821.479 189.109 822.11 189.375 822.64 189.91C823.179 190.436 823.449 191.065 823.452 191.797ZM825.49 208.02L825.503 211.565L815.996 211.6L815.983 208.055L818.327 208.047L818.296 199.8L815.952 199.808L815.939 196.205L823.161 196.178L823.205 208.029L825.49 208.02ZM835.348 196.133L835.362 199.736L832.52 199.747L832.545 206.471C832.546 206.949 832.64 207.31 832.827 207.553C833.013 207.787 833.36 207.903 833.868 207.901C834.288 207.9 834.796 207.79 835.39 207.573L835.403 210.986C834.087 211.509 832.847 211.772 831.685 211.776C830.347 211.781 829.34 211.448 828.664 210.777C827.997 210.096 827.662 209.135 827.657 207.895L827.627 199.765L825.679 199.772L825.666 196.169L827.614 196.162L827.605 193.774L832.485 190.24L832.506 196.143L835.348 196.133ZM853.471 204.796L841.987 204.839C842.108 206.02 842.517 206.956 843.213 207.647C843.919 208.328 844.823 208.666 845.927 208.662C847.147 208.658 848.337 208.048 849.494 206.833L853.307 208.049C852.472 209.312 851.436 210.263 850.198 210.902C848.96 211.532 847.491 211.85 845.792 211.856C844.093 211.862 842.588 211.551 841.277 210.921C839.976 210.281 838.962 209.377 838.235 208.207C837.517 207.038 837.156 205.662 837.15 204.08C837.144 202.518 837.51 201.101 838.248 199.828C838.995 198.556 840.002 197.561 841.269 196.843C842.545 196.116 843.931 195.75 845.425 195.744C847.046 195.738 848.459 196.109 849.662 196.856C850.866 197.594 851.793 198.65 852.443 200.025C853.102 201.39 853.445 202.98 853.471 204.796ZM845.203 199.012C844.324 199.015 843.617 199.271 843.081 199.781C842.556 200.291 842.227 201.068 842.094 202.114L848.51 202.09C848.37 201.173 847.991 200.432 847.374 199.868C846.766 199.294 846.042 199.008 845.203 199.012Z" fill="#5A5454"/>
<path d="M898.891 288.316C897.507 287.472 896.302 286.341 895.343 284.971C894.901 284.339 894.527 283.671 894.217 282.98H736.984V127.7H950.405V229.092C954.961 229.505 958.784 232.503 960.389 236.609C961.811 235.828 963.395 235.346 965.059 235.199C966.185 235.101 967.304 235.169 968.389 235.385V89.0166C968.389 80.7365 961.667 74 953.403 74H733.987C725.723 74 719 80.7365 719 89.0166V285.984C719 294.264 725.723 301 733.987 301H897.525C896.249 298.411 895.946 295.488 896.697 292.675C897.13 291.058 897.879 289.582 898.891 288.316V288.316ZM933.948 99.2158C933.948 96.1537 936.425 93.6708 939.481 93.6708H945.015C948.071 93.6708 950.548 96.1531 950.548 99.2158V105.5C950.548 108.562 948.071 111.044 945.015 111.044H939.481C936.424 111.044 933.948 108.562 933.948 105.5V99.2158ZM908.216 99.2158C908.216 96.1537 910.694 93.6708 913.75 93.6708H919.284C922.341 93.6708 924.818 96.1531 924.818 99.2158V105.5C924.818 108.562 922.34 111.044 919.284 111.044H913.75C910.694 111.044 908.216 108.562 908.216 105.5V99.2158ZM882.484 99.2158C882.484 96.1537 884.962 93.6708 888.018 93.6708H893.551C896.608 93.6708 899.085 96.1531 899.085 99.2158V105.5C899.085 108.562 896.608 111.044 893.551 111.044H888.018C884.962 111.044 882.484 108.562 882.484 105.5V99.2158Z" fill="#285477"/>
<path d="M916.812 266.682C916.812 265.162 915.923 263.765 914.546 263.124L901.944 257.257L914.546 251.39C915.923 250.749 916.812 249.352 916.812 247.832V247.73C916.812 246.383 916.136 245.146 915.003 244.423C914.376 244.022 913.646 243.81 912.893 243.81C912.325 243.81 911.755 243.935 911.245 244.172L891.098 253.559C889.722 254.201 888.833 255.597 888.833 257.117V257.398C888.833 258.916 889.721 260.311 891.098 260.956L911.247 270.344C911.768 270.586 912.323 270.708 912.896 270.708C913.643 270.708 914.37 270.496 915.003 270.092C916.136 269.367 916.813 268.131 916.813 266.785L916.812 266.682Z" fill="#285477"/>
<path d="M936.691 234.244C935.956 233.236 934.774 232.635 933.528 232.635H933.428C931.718 232.635 930.219 233.731 929.698 235.36L916.424 276.57C916.046 277.76 916.259 279.071 916.992 280.078C917.727 281.086 918.91 281.688 920.155 281.688H920.255C921.965 281.688 923.463 280.591 923.984 278.962L937.256 237.755C937.638 236.567 937.426 235.254 936.691 234.244V234.244Z" fill="#285477"/>
<path d="M962.584 253.559L942.437 244.172C941.928 243.935 941.359 243.81 940.791 243.81C940.038 243.81 939.308 244.022 938.682 244.422C937.547 245.146 936.87 246.383 936.87 247.73V247.832C936.87 249.351 937.759 250.748 939.137 251.392L951.739 257.258L939.137 263.124C937.76 263.765 936.87 265.162 936.87 266.682V266.785C936.87 268.131 937.547 269.366 938.681 270.093C939.312 270.496 940.04 270.708 940.788 270.708C941.36 270.708 941.914 270.586 942.439 270.343L962.587 260.955C963.963 260.312 964.851 258.916 964.851 257.398V257.118C964.85 255.597 963.961 254.201 962.584 253.559V253.559Z" fill="#285477"/>
<path d="M408.181 310.998C408.189 313.136 407.154 314.659 405.078 315.565C406.417 316.058 407.416 316.743 408.074 317.619C408.731 318.486 409.062 319.559 409.067 320.838C409.083 325.135 405.868 327.295 399.423 327.319L389.169 327.357L389.155 323.607L391.88 323.597L391.826 309.022L389.101 309.032L389.087 305.282L399.341 305.244C402.32 305.233 404.533 305.704 405.982 306.655C407.441 307.607 408.174 309.054 408.181 310.998ZM402.455 311.312C402.451 310.452 402.137 309.853 401.51 309.514C400.894 309.164 400.024 308.992 398.901 308.996L397.553 309.001L397.572 313.981L399.344 313.975C400.389 313.971 401.17 313.768 401.686 313.365C402.202 312.963 402.458 312.279 402.455 311.312ZM403.178 320.699C403.174 319.625 402.858 318.854 402.232 318.388C401.615 317.921 400.549 317.691 399.036 317.697L397.586 317.702L397.607 323.576L399.863 323.568C400.879 323.564 401.684 323.331 402.278 322.87C402.881 322.409 403.181 321.685 403.178 320.699ZM420.224 323.434C421.064 323.431 421.971 323.056 422.945 322.31L422.919 315.44L420.561 315.449L420.547 311.846L427.798 311.819L427.842 323.669L430.362 323.66L430.375 327.205L422.963 327.232L422.958 325.943C421.429 326.964 419.941 327.478 418.496 327.483C417.002 327.489 415.838 327.078 415.005 326.251C414.172 325.424 413.753 324.283 413.747 322.828L413.72 315.474L411.406 315.483L411.392 311.879L418.57 311.853L418.606 321.55C418.608 322.273 418.723 322.77 418.948 323.043C419.184 323.306 419.609 323.436 420.224 323.434ZM439.574 307.395C439.577 308.177 439.311 308.827 438.776 309.346C438.25 309.856 437.621 310.112 436.889 310.115C436.147 310.118 435.506 309.857 434.967 309.331C434.438 308.796 434.172 308.157 434.169 307.415C434.166 306.683 434.427 306.052 434.953 305.523C435.488 304.984 436.127 304.713 436.869 304.71C437.601 304.707 438.232 304.973 438.761 305.509C439.3 306.034 439.571 306.663 439.574 307.395ZM441.612 323.618L441.625 327.163L432.118 327.198L432.105 323.653L434.449 323.645L434.418 315.398L432.074 315.406L432.061 311.803L439.283 311.776L439.326 323.627L441.612 323.618ZM452.495 323.578L452.508 327.123L443.002 327.158L442.989 323.613L445.391 323.604L445.335 308.604L442.933 308.613L442.92 305.083L450.244 305.056L450.313 323.586L452.495 323.578ZM472.139 323.505L472.152 327.05L464.754 327.078L464.748 325.247C463.347 326.629 461.855 327.323 460.273 327.329C458.974 327.333 457.825 326.991 456.827 326.301C455.828 325.602 455.043 324.643 454.472 323.424C453.911 322.206 453.628 320.849 453.622 319.355C453.617 317.812 453.89 316.434 454.442 315.221C455.004 314.008 455.796 313.063 456.819 312.385C457.842 311.698 458.983 311.352 460.243 311.347C462.05 311.341 463.537 312.033 464.704 313.425L464.686 308.533L462.254 308.542L462.241 305.012L469.551 304.985L469.619 323.515L472.139 323.505ZM461.709 323.456C462.666 323.453 463.412 323.074 463.946 322.32C464.49 321.556 464.76 320.574 464.755 319.373C464.751 318.171 464.469 317.191 463.909 316.431C463.36 315.672 462.606 315.294 461.649 315.297C460.722 315.301 459.986 315.684 459.442 316.448C458.898 317.212 458.628 318.184 458.632 319.366C458.637 320.557 458.914 321.538 459.463 322.307C460.013 323.077 460.762 323.46 461.709 323.456Z" fill="#5A5454"/>
<path d="M661.348 499.83L661.336 496.592L654.495 496.618L654.514 501.686L660.036 501.666L660.05 505.386L654.527 505.407L654.549 511.193L661.389 511.168L661.377 507.901L665.611 507.885L665.637 514.902L646.169 514.974L646.155 511.224L648.821 511.214L648.767 496.639L646.101 496.649L646.087 492.899L665.555 492.827L665.581 499.814L661.348 499.83ZM684.993 496.505L682.151 496.515L682.137 492.766L691.995 492.729L692.009 496.479L688.933 496.49L689.001 514.962L684.109 514.98L674.497 498.639L674.544 511.119L677.312 511.109L677.326 514.859L667.658 514.894L667.644 511.144L670.618 511.133L670.564 496.558L667.59 496.569L667.577 492.819L676.849 492.785L685.03 506.554L684.993 496.505ZM700.842 496.446L704.604 507.463L708.283 496.419L705.5 496.429L705.486 492.679L715.228 492.643L715.241 496.393L712.575 496.403L706.286 514.869L701.731 514.886L695.085 496.468L692.449 496.477L692.435 492.727L703.685 492.686L703.699 496.436L700.842 496.446ZM731.247 502.867L733.704 509.845L736.491 502.848L734.484 502.855L734.471 499.252L742.601 499.222L742.614 502.825L740.417 502.833L735.452 514.878L731.291 514.893L726.047 502.886L723.835 502.895L723.822 499.291L733.153 499.257L733.166 502.86L731.247 502.867ZM758.268 505.316L758.289 511.014L760.779 511.005L760.792 514.55L753.41 514.577L753.405 513.376C752.012 514.338 750.617 514.822 749.221 514.827C747.532 514.833 746.177 514.404 745.159 513.539C744.14 512.673 743.628 511.503 743.622 510.029C743.616 508.466 744.178 507.214 745.307 506.272C746.447 505.321 747.958 504.842 749.843 504.835C750.497 504.832 751.079 504.903 751.587 505.048C752.105 505.183 752.702 505.42 753.377 505.759L753.372 504.529C753.369 503.747 753.123 503.123 752.633 502.656C752.143 502.189 751.41 501.958 750.433 501.961C749.369 501.965 748.428 502.379 747.611 503.202L743.653 502.499C744.845 500.073 747.321 498.853 751.081 498.839C753.659 498.829 755.497 499.355 756.594 500.415C757.702 501.466 758.26 503.099 758.268 505.316ZM750.308 511.762C751.187 511.758 752.215 511.227 753.393 510.168L753.388 508.791C752.331 508.112 751.363 507.773 750.484 507.777C749.781 507.779 749.244 507.947 748.874 508.281C748.505 508.614 748.321 509.088 748.323 509.704C748.328 511.08 748.99 511.767 750.308 511.762ZM775.471 498.924L775.488 503.539C774.141 503.631 773.067 503.85 772.268 504.195C771.478 504.53 770.865 505.108 770.428 505.93C770.002 506.752 769.791 507.925 769.797 509.448L769.803 510.972L772.864 510.96L772.877 514.505L762.081 514.545L762.068 511L764.895 510.99L764.865 502.743L762.184 502.753L762.171 499.149L769.349 499.123L769.363 503.034C769.72 501.851 770.385 500.867 771.359 500.082C772.333 499.297 773.542 498.902 774.987 498.897C775.202 498.896 775.363 498.905 775.471 498.924ZM784.757 494.686C784.76 495.467 784.494 496.118 783.959 496.637C783.433 497.147 782.804 497.403 782.072 497.406C781.33 497.409 780.689 497.147 780.15 496.622C779.621 496.087 779.355 495.448 779.352 494.706C779.349 493.973 779.61 493.343 780.136 492.813C780.671 492.274 781.31 492.003 782.052 492.001C782.784 491.998 783.415 492.264 783.944 492.799C784.483 493.325 784.754 493.953 784.757 494.686ZM786.795 510.909L786.808 514.454L777.301 514.489L777.288 510.944L779.632 510.935L779.601 502.688L777.257 502.697L777.244 499.094L784.466 499.067L784.509 510.917L786.795 510.909ZM803.15 505.15L803.171 510.848L805.662 510.839L805.675 514.384L798.292 514.411L798.288 513.21C796.895 514.172 795.5 514.656 794.103 514.661C792.414 514.667 791.06 514.238 790.041 513.373C789.022 512.507 788.51 511.337 788.505 509.863C788.499 508.3 789.061 507.048 790.19 506.106C791.329 505.155 792.841 504.676 794.726 504.669C795.38 504.666 795.961 504.737 796.47 504.882C796.988 505.017 797.584 505.254 798.259 505.593L798.255 504.363C798.252 503.581 798.006 502.957 797.516 502.49C797.025 502.023 796.292 501.792 795.316 501.795C794.251 501.799 793.31 502.213 792.493 503.036L788.535 502.333C789.728 499.907 792.204 498.687 795.963 498.673C798.541 498.663 800.379 499.189 801.477 500.249C802.584 501.3 803.142 502.933 803.15 505.15ZM795.191 511.596C796.07 511.592 797.098 511.061 798.276 510.002L798.271 508.625C797.213 507.946 796.245 507.607 795.366 507.611C794.663 507.613 794.127 507.781 793.757 508.115C793.387 508.448 793.203 508.922 793.206 509.538C793.211 510.915 793.872 511.601 795.191 511.596ZM818.815 498.588C820.133 498.583 821.301 498.945 822.32 499.674C823.348 500.393 824.137 501.362 824.689 502.58C825.25 503.799 825.533 505.121 825.539 506.547C825.544 507.982 825.275 509.316 824.733 510.549C824.2 511.781 823.437 512.761 822.444 513.487C821.46 514.204 820.319 514.564 819.02 514.569C817.399 514.575 815.898 513.912 814.516 512.579L814.522 514.351L806.964 514.379L806.951 510.834L809.617 510.825L809.561 495.825L806.895 495.835L806.882 492.304L814.441 492.276L814.472 500.728C815.707 499.308 817.155 498.594 818.815 498.588ZM817.512 510.766C818.45 510.763 819.181 510.374 819.705 509.601C820.239 508.817 820.504 507.781 820.499 506.492C820.494 505.213 820.222 504.242 819.683 503.58C819.153 502.908 818.429 502.574 817.511 502.578C816.554 502.581 815.804 502.965 815.259 503.728C814.725 504.492 814.46 505.504 814.465 506.764C814.469 507.945 814.746 508.911 815.296 509.661C815.855 510.401 816.594 510.769 817.512 510.766ZM836.203 510.726L836.217 514.271L826.71 514.306L826.697 510.761L829.099 510.753L829.044 495.753L826.641 495.762L826.628 492.231L833.952 492.204L834.021 510.734L836.203 510.726ZM853.653 507.542L842.168 507.584C842.29 508.765 842.699 509.701 843.395 510.392C844.1 511.073 845.005 511.411 846.108 511.407C847.329 511.403 848.518 510.793 849.676 509.578L853.489 510.794C852.654 512.057 851.617 513.008 850.379 513.647C849.141 514.277 847.673 514.595 845.974 514.601C844.274 514.608 842.769 514.296 841.458 513.666C840.157 513.026 839.143 512.122 838.416 510.952C837.699 509.783 837.337 508.408 837.332 506.826C837.326 505.263 837.692 503.846 838.429 502.573C839.176 501.301 840.184 500.306 841.45 499.589C842.727 498.861 844.112 498.495 845.607 498.489C847.228 498.483 848.64 498.854 849.844 499.602C851.048 500.339 851.975 501.395 852.624 502.77C853.284 504.135 853.626 505.725 853.653 507.542ZM845.384 501.757C844.505 501.76 843.798 502.016 843.263 502.526C842.738 503.036 842.408 503.814 842.276 504.859L848.692 504.835C848.551 503.918 848.173 503.177 847.555 502.613C846.948 502.039 846.224 501.754 845.384 501.757Z" fill="#5A5454"/>
<path d="M148.1 30.875H103.55L93.65 21H68.9C63.455 21 59 25.4437 59 30.875V90.125C59 95.5563 63.455 100 68.9 100H148.1C153.545 100 158 95.5563 158 90.125V40.75C158 35.3187 153.545 30.875 148.1 30.875Z" fill="#285477"/>
<path d="M83.9238 50.0977V49.7363H86.2578V52.7441H83.9238C83.722 52.0215 82.9733 51.6602 81.6777 51.6602C80.7467 51.6602 80.2812 51.9206 80.2812 52.4414C80.2812 52.6693 80.4049 52.8385 80.6523 52.9492C80.8997 53.0599 81.2611 53.151 81.7363 53.2227C83.071 53.3919 84.1224 53.6361 84.8906 53.9551C85.6589 54.2676 86.196 54.6582 86.502 55.127C86.8079 55.5892 86.9609 56.1523 86.9609 56.8164C86.9609 57.8971 86.5898 58.7402 85.8477 59.3457C85.112 59.9447 84.1094 60.2441 82.8398 60.2441C81.6029 60.2441 80.763 59.9967 80.3203 59.502V60H77.9375V56.4648H80.3203C80.3854 56.9531 80.6198 57.3372 81.0234 57.6172C81.4336 57.8971 81.9382 58.0371 82.5371 58.0371C83.123 58.0371 83.556 57.972 83.8359 57.8418C84.1159 57.7051 84.2559 57.4707 84.2559 57.1387C84.2559 56.9108 84.1973 56.735 84.0801 56.6113C83.9629 56.4811 83.735 56.3672 83.3965 56.2695C83.0645 56.1719 82.5534 56.0612 81.8633 55.9375C80.3268 55.6966 79.2201 55.3092 78.543 54.7754C77.8724 54.235 77.5371 53.5091 77.5371 52.5977C77.5371 51.6667 77.8854 50.9342 78.582 50.4004C79.2852 49.8665 80.2096 49.5996 81.3555 49.5996C82.2799 49.5996 83.1361 49.7656 83.9238 50.0977ZM93.2109 46.8164C93.2109 47.3372 93.0319 47.7702 92.6738 48.1152C92.3223 48.4538 91.9023 48.623 91.4141 48.623C90.9193 48.623 90.4928 48.4473 90.1348 48.0957C89.7832 47.7376 89.6074 47.3112 89.6074 46.8164C89.6074 46.3281 89.7832 45.9082 90.1348 45.5566C90.4928 45.1986 90.9193 45.0195 91.4141 45.0195C91.9023 45.0195 92.3223 45.1986 92.6738 45.5566C93.0319 45.9082 93.2109 46.3281 93.2109 46.8164ZM94.5293 57.6367V60H88.1914V57.6367H89.7539V52.1387H88.1914V49.7363H93.0059V57.6367H94.5293ZM101.131 49.7363V52.1387H99.2363V56.6211C99.2363 56.9401 99.2982 57.181 99.4219 57.3438C99.5456 57.5 99.7767 57.5781 100.115 57.5781C100.395 57.5781 100.734 57.5065 101.131 57.3633V59.6387C100.252 59.9837 99.4251 60.1562 98.6504 60.1562C97.7585 60.1562 97.0879 59.9316 96.6387 59.4824C96.196 59.0267 95.9746 58.3854 95.9746 57.5586V52.1387H94.6758V49.7363H95.9746V48.1445L99.2363 45.8008V49.7363H101.131ZM113.191 55.5566H105.535C105.613 56.3444 105.883 56.9694 106.346 57.4316C106.814 57.8874 107.417 58.1152 108.152 58.1152C108.966 58.1152 109.76 57.7116 110.535 56.9043L113.074 57.7246C112.514 58.5645 111.821 59.196 110.994 59.6191C110.167 60.0358 109.188 60.2441 108.055 60.2441C106.922 60.2441 105.919 60.0326 105.047 59.6094C104.181 59.1797 103.507 58.5742 103.025 57.793C102.55 57.0117 102.312 56.0938 102.312 55.0391C102.312 53.9974 102.56 53.0534 103.055 52.207C103.556 51.3607 104.23 50.6999 105.076 50.2246C105.929 49.7428 106.854 49.502 107.85 49.502C108.93 49.502 109.871 49.7526 110.672 50.2539C111.473 50.7487 112.088 51.4551 112.518 52.373C112.954 53.2845 113.178 54.3457 113.191 55.5566ZM107.693 51.6797C107.107 51.6797 106.635 51.849 106.277 52.1875C105.926 52.526 105.704 53.0436 105.613 53.7402H109.891C109.799 53.1283 109.549 52.6335 109.139 52.2559C108.735 51.8717 108.253 51.6797 107.693 51.6797ZM129.305 57.4805V60H121.805V57.4805H123.826V47.8027H121.668V45.2832H127.41V57.4805H129.305ZM86.0625 74.5957V73.7363H88.2988V77.8965H85.9844C85.4375 76.7637 84.6042 76.1973 83.4844 76.1973C82.8008 76.1973 82.2344 76.4479 81.7852 76.9492C81.3424 77.4505 81.1211 78.0755 81.1211 78.8242C81.1211 79.651 81.3327 80.3314 81.7559 80.8652C82.1855 81.3926 82.7552 81.6562 83.4648 81.6562C83.9792 81.6562 84.4674 81.513 84.9297 81.2266C85.3919 80.9401 85.7695 80.5365 86.0625 80.0156L88.6016 81.1387C88.0417 82.1934 87.3678 82.9746 86.5801 83.4824C85.7923 83.9902 84.7311 84.2441 83.3965 84.2441C81.6647 84.2441 80.291 83.7721 79.2754 82.8281C78.2663 81.8776 77.7617 80.5625 77.7617 78.8828C77.7617 77.8802 77.9928 76.9785 78.4551 76.1777C78.9238 75.377 79.5553 74.7487 80.3496 74.293C81.1439 73.8307 82.013 73.5996 82.957 73.5996C84.0378 73.5996 85.0729 73.9316 86.0625 74.5957ZM100.633 78.8633C100.633 79.8854 100.392 80.8066 99.9102 81.627C99.4284 82.4473 98.7773 83.0885 97.957 83.5508C97.1367 84.013 96.235 84.2441 95.252 84.2441C94.2103 84.2441 93.2793 84.013 92.459 83.5508C91.6387 83.0885 90.9974 82.4473 90.5352 81.627C90.0794 80.8066 89.8516 79.8854 89.8516 78.8633C89.8516 77.8477 90.0859 76.9329 90.5547 76.1191C91.0299 75.3053 91.681 74.6673 92.5078 74.2051C93.3346 73.7363 94.2493 73.502 95.252 73.502C96.2741 73.502 97.1953 73.7363 98.0156 74.2051C98.8359 74.6673 99.4772 75.3053 99.9395 76.1191C100.402 76.9329 100.633 77.8477 100.633 78.8633ZM95.2324 81.6953C95.8704 81.6953 96.3685 81.4479 96.7266 80.9531C97.0911 80.4518 97.2734 79.7357 97.2734 78.8047C97.2734 77.9323 97.0911 77.252 96.7266 76.7637C96.3685 76.2689 95.8639 76.0215 95.2129 76.0215C94.5553 76.0215 94.0573 76.2656 93.7188 76.7539C93.3802 77.2357 93.2109 77.9648 93.2109 78.9414C93.2109 79.7682 93.3932 80.4355 93.7578 80.9434C94.1289 81.4447 94.6204 81.6953 95.2324 81.6953ZM112.762 77.457V81.6367H114.305V84H109.48V77.7207C109.48 77.2389 109.406 76.8906 109.256 76.6758C109.113 76.4544 108.868 76.3438 108.523 76.3438C107.898 76.3438 107.27 76.5684 106.639 77.0176V81.6367H108.24V84H101.824V81.6367H103.387V76.1387H101.824V73.7363H106.639V74.7031C107.615 73.9674 108.618 73.5996 109.646 73.5996C110.669 73.5996 111.443 73.9251 111.971 74.5762C112.498 75.2207 112.762 76.181 112.762 77.457ZM117.049 73.7363V73.1016C117.049 71.7148 117.511 70.6895 118.436 70.0254C119.367 69.3548 120.551 69.0195 121.99 69.0195C123.208 69.0195 124.184 69.2409 124.92 69.6836C125.662 70.1198 126.147 70.7708 126.375 71.6367L123.152 71.998C122.977 71.4382 122.505 71.1582 121.736 71.1582C121.294 71.1582 120.942 71.2884 120.682 71.5488C120.421 71.8092 120.291 72.3333 120.291 73.1211V73.7363H126.395V81.6367H128.035V84H122.117V81.6367H123.133V76.1387H120.291V81.6367H121.375V84H115.438V81.6367H117.049V76.1387H115.438V73.7363H117.049ZM136.199 74.9961V73.7363H141.15V76.1387H139.451V83.8047C139.451 85.4128 139.012 86.64 138.133 87.4863C137.254 88.3327 135.9 88.7559 134.07 88.7559C132.046 88.7559 130.535 88.3848 129.539 87.6426L131.131 85.4844C131.971 85.9987 132.798 86.2559 133.611 86.2559C134.295 86.2559 134.822 86.1517 135.193 85.9434C135.571 85.7415 135.831 85.4258 135.975 84.9961C136.124 84.5729 136.199 84 136.199 83.2773V82.7207C135.118 83.6777 134.07 84.1562 133.055 84.1562C132.215 84.1562 131.469 83.9349 130.818 83.4922C130.174 83.043 129.676 82.418 129.324 81.6172C128.973 80.8164 128.797 79.8984 128.797 78.8633C128.797 77.8477 128.982 76.9395 129.354 76.1387C129.731 75.3379 130.262 74.7161 130.945 74.2734C131.629 73.8242 132.391 73.5996 133.23 73.5996C134.448 73.5996 135.438 74.0651 136.199 74.9961ZM134.158 81.5C134.757 81.5 135.249 81.2721 135.633 80.8164C136.023 80.3542 136.219 79.7161 136.219 78.9023C136.219 78.0755 136.033 77.4245 135.662 76.9492C135.298 76.474 134.796 76.2363 134.158 76.2363C133.54 76.2363 133.051 76.4805 132.693 76.9688C132.335 77.457 132.156 78.0951 132.156 78.8828C132.156 79.638 132.335 80.263 132.693 80.7578C133.051 81.2526 133.54 81.5 134.158 81.5Z" fill="#F2F2F2"/>
<path d="M148.1 157.875H103.55L93.65 148H68.9C63.455 148 59 152.444 59 157.875V217.125C59 222.556 63.455 227 68.9 227H148.1C153.545 227 158 222.556 158 217.125V167.75C158 162.319 153.545 157.875 148.1 157.875Z" fill="#285477"/>
<path d="M83.9238 177.098V176.736H86.2578V179.744H83.9238C83.722 179.021 82.9733 178.66 81.6777 178.66C80.7467 178.66 80.2812 178.921 80.2812 179.441C80.2812 179.669 80.4049 179.839 80.6523 179.949C80.8997 180.06 81.2611 180.151 81.7363 180.223C83.071 180.392 84.1224 180.636 84.8906 180.955C85.6589 181.268 86.196 181.658 86.502 182.127C86.8079 182.589 86.9609 183.152 86.9609 183.816C86.9609 184.897 86.5898 185.74 85.8477 186.346C85.112 186.945 84.1094 187.244 82.8398 187.244C81.6029 187.244 80.763 186.997 80.3203 186.502V187H77.9375V183.465H80.3203C80.3854 183.953 80.6198 184.337 81.0234 184.617C81.4336 184.897 81.9382 185.037 82.5371 185.037C83.123 185.037 83.556 184.972 83.8359 184.842C84.1159 184.705 84.2559 184.471 84.2559 184.139C84.2559 183.911 84.1973 183.735 84.0801 183.611C83.9629 183.481 83.735 183.367 83.3965 183.27C83.0645 183.172 82.5534 183.061 81.8633 182.938C80.3268 182.697 79.2201 182.309 78.543 181.775C77.8724 181.235 77.5371 180.509 77.5371 179.598C77.5371 178.667 77.8854 177.934 78.582 177.4C79.2852 176.867 80.2096 176.6 81.3555 176.6C82.2799 176.6 83.1361 176.766 83.9238 177.098ZM93.2109 173.816C93.2109 174.337 93.0319 174.77 92.6738 175.115C92.3223 175.454 91.9023 175.623 91.4141 175.623C90.9193 175.623 90.4928 175.447 90.1348 175.096C89.7832 174.738 89.6074 174.311 89.6074 173.816C89.6074 173.328 89.7832 172.908 90.1348 172.557C90.4928 172.199 90.9193 172.02 91.4141 172.02C91.9023 172.02 92.3223 172.199 92.6738 172.557C93.0319 172.908 93.2109 173.328 93.2109 173.816ZM94.5293 184.637V187H88.1914V184.637H89.7539V179.139H88.1914V176.736H93.0059V184.637H94.5293ZM101.131 176.736V179.139H99.2363V183.621C99.2363 183.94 99.2982 184.181 99.4219 184.344C99.5456 184.5 99.7767 184.578 100.115 184.578C100.395 184.578 100.734 184.507 101.131 184.363V186.639C100.252 186.984 99.4251 187.156 98.6504 187.156C97.7585 187.156 97.0879 186.932 96.6387 186.482C96.196 186.027 95.9746 185.385 95.9746 184.559V179.139H94.6758V176.736H95.9746V175.145L99.2363 172.801V176.736H101.131ZM113.191 182.557H105.535C105.613 183.344 105.883 183.969 106.346 184.432C106.814 184.887 107.417 185.115 108.152 185.115C108.966 185.115 109.76 184.712 110.535 183.904L113.074 184.725C112.514 185.564 111.821 186.196 110.994 186.619C110.167 187.036 109.188 187.244 108.055 187.244C106.922 187.244 105.919 187.033 105.047 186.609C104.181 186.18 103.507 185.574 103.025 184.793C102.55 184.012 102.312 183.094 102.312 182.039C102.312 180.997 102.56 180.053 103.055 179.207C103.556 178.361 104.23 177.7 105.076 177.225C105.929 176.743 106.854 176.502 107.85 176.502C108.93 176.502 109.871 176.753 110.672 177.254C111.473 177.749 112.088 178.455 112.518 179.373C112.954 180.285 113.178 181.346 113.191 182.557ZM107.693 178.68C107.107 178.68 106.635 178.849 106.277 179.188C105.926 179.526 105.704 180.044 105.613 180.74H109.891C109.799 180.128 109.549 179.633 109.139 179.256C108.735 178.872 108.253 178.68 107.693 178.68ZM130.77 176.16C130.77 176.909 130.6 177.56 130.262 178.113C129.93 178.667 129.48 179.171 128.914 179.627C128.348 180.076 127.524 180.626 126.443 181.277C124.686 182.358 123.712 183.426 123.523 184.48H127.967V182.576H130.945L130.77 187H120.047C120.047 185.691 120.203 184.614 120.516 183.768C120.828 182.921 121.32 182.146 121.99 181.443C122.667 180.734 123.66 179.894 124.969 178.924C125.659 178.416 126.183 177.924 126.541 177.449C126.906 176.974 127.088 176.486 127.088 175.984C127.088 175.49 126.945 175.115 126.658 174.861C126.372 174.607 125.962 174.48 125.428 174.48C124.738 174.48 124.223 174.721 123.885 175.203C123.553 175.678 123.354 176.456 123.289 177.537L120.232 177.42C120.271 175.604 120.737 174.249 121.629 173.357C122.521 172.465 123.855 172.02 125.633 172.02C127.228 172.02 128.481 172.387 129.393 173.123C130.311 173.852 130.77 174.865 130.77 176.16ZM86.0625 201.596V200.736H88.2988V204.896H85.9844C85.4375 203.764 84.6042 203.197 83.4844 203.197C82.8008 203.197 82.2344 203.448 81.7852 203.949C81.3424 204.451 81.1211 205.076 81.1211 205.824C81.1211 206.651 81.3327 207.331 81.7559 207.865C82.1855 208.393 82.7552 208.656 83.4648 208.656C83.9792 208.656 84.4674 208.513 84.9297 208.227C85.3919 207.94 85.7695 207.536 86.0625 207.016L88.6016 208.139C88.0417 209.193 87.3678 209.975 86.5801 210.482C85.7923 210.99 84.7311 211.244 83.3965 211.244C81.6647 211.244 80.291 210.772 79.2754 209.828C78.2663 208.878 77.7617 207.562 77.7617 205.883C77.7617 204.88 77.9928 203.979 78.4551 203.178C78.9238 202.377 79.5553 201.749 80.3496 201.293C81.1439 200.831 82.013 200.6 82.957 200.6C84.0378 200.6 85.0729 200.932 86.0625 201.596ZM100.633 205.863C100.633 206.885 100.392 207.807 99.9102 208.627C99.4284 209.447 98.7773 210.089 97.957 210.551C97.1367 211.013 96.235 211.244 95.252 211.244C94.2103 211.244 93.2793 211.013 92.459 210.551C91.6387 210.089 90.9974 209.447 90.5352 208.627C90.0794 207.807 89.8516 206.885 89.8516 205.863C89.8516 204.848 90.0859 203.933 90.5547 203.119C91.0299 202.305 91.681 201.667 92.5078 201.205C93.3346 200.736 94.2493 200.502 95.252 200.502C96.2741 200.502 97.1953 200.736 98.0156 201.205C98.8359 201.667 99.4772 202.305 99.9395 203.119C100.402 203.933 100.633 204.848 100.633 205.863ZM95.2324 208.695C95.8704 208.695 96.3685 208.448 96.7266 207.953C97.0911 207.452 97.2734 206.736 97.2734 205.805C97.2734 204.932 97.0911 204.252 96.7266 203.764C96.3685 203.269 95.8639 203.021 95.2129 203.021C94.5553 203.021 94.0573 203.266 93.7188 203.754C93.3802 204.236 93.2109 204.965 93.2109 205.941C93.2109 206.768 93.3932 207.436 93.7578 207.943C94.1289 208.445 94.6204 208.695 95.2324 208.695ZM112.762 204.457V208.637H114.305V211H109.48V204.721C109.48 204.239 109.406 203.891 109.256 203.676C109.113 203.454 108.868 203.344 108.523 203.344C107.898 203.344 107.27 203.568 106.639 204.018V208.637H108.24V211H101.824V208.637H103.387V203.139H101.824V200.736H106.639V201.703C107.615 200.967 108.618 200.6 109.646 200.6C110.669 200.6 111.443 200.925 111.971 201.576C112.498 202.221 112.762 203.181 112.762 204.457ZM117.049 200.736V200.102C117.049 198.715 117.511 197.689 118.436 197.025C119.367 196.355 120.551 196.02 121.99 196.02C123.208 196.02 124.184 196.241 124.92 196.684C125.662 197.12 126.147 197.771 126.375 198.637L123.152 198.998C122.977 198.438 122.505 198.158 121.736 198.158C121.294 198.158 120.942 198.288 120.682 198.549C120.421 198.809 120.291 199.333 120.291 200.121V200.736H126.395V208.637H128.035V211H122.117V208.637H123.133V203.139H120.291V208.637H121.375V211H115.438V208.637H117.049V203.139H115.438V200.736H117.049ZM136.199 201.996V200.736H141.15V203.139H139.451V210.805C139.451 212.413 139.012 213.64 138.133 214.486C137.254 215.333 135.9 215.756 134.07 215.756C132.046 215.756 130.535 215.385 129.539 214.643L131.131 212.484C131.971 212.999 132.798 213.256 133.611 213.256C134.295 213.256 134.822 213.152 135.193 212.943C135.571 212.742 135.831 212.426 135.975 211.996C136.124 211.573 136.199 211 136.199 210.277V209.721C135.118 210.678 134.07 211.156 133.055 211.156C132.215 211.156 131.469 210.935 130.818 210.492C130.174 210.043 129.676 209.418 129.324 208.617C128.973 207.816 128.797 206.898 128.797 205.863C128.797 204.848 128.982 203.939 129.354 203.139C129.731 202.338 130.262 201.716 130.945 201.273C131.629 200.824 132.391 200.6 133.23 200.6C134.448 200.6 135.438 201.065 136.199 201.996ZM134.158 208.5C134.757 208.5 135.249 208.272 135.633 207.816C136.023 207.354 136.219 206.716 136.219 205.902C136.219 205.076 136.033 204.424 135.662 203.949C135.298 203.474 134.796 203.236 134.158 203.236C133.54 203.236 133.051 203.48 132.693 203.969C132.335 204.457 132.156 205.095 132.156 205.883C132.156 206.638 132.335 207.263 132.693 207.758C133.051 208.253 133.54 208.5 134.158 208.5Z" fill="#F2F2F2"/>
<path d="M148.1 284.875H103.55L93.65 275H68.9C63.455 275 59 279.444 59 284.875V344.125C59 349.556 63.455 354 68.9 354H148.1C153.545 354 158 349.556 158 344.125V294.75C158 289.319 153.545 284.875 148.1 284.875Z" fill="#285477"/>
<path d="M83.9238 304.098V303.736H86.2578V306.744H83.9238C83.722 306.021 82.9733 305.66 81.6777 305.66C80.7467 305.66 80.2812 305.921 80.2812 306.441C80.2812 306.669 80.4049 306.839 80.6523 306.949C80.8997 307.06 81.2611 307.151 81.7363 307.223C83.071 307.392 84.1224 307.636 84.8906 307.955C85.6589 308.268 86.196 308.658 86.502 309.127C86.8079 309.589 86.9609 310.152 86.9609 310.816C86.9609 311.897 86.5898 312.74 85.8477 313.346C85.112 313.945 84.1094 314.244 82.8398 314.244C81.6029 314.244 80.763 313.997 80.3203 313.502V314H77.9375V310.465H80.3203C80.3854 310.953 80.6198 311.337 81.0234 311.617C81.4336 311.897 81.9382 312.037 82.5371 312.037C83.123 312.037 83.556 311.972 83.8359 311.842C84.1159 311.705 84.2559 311.471 84.2559 311.139C84.2559 310.911 84.1973 310.735 84.0801 310.611C83.9629 310.481 83.735 310.367 83.3965 310.27C83.0645 310.172 82.5534 310.061 81.8633 309.938C80.3268 309.697 79.2201 309.309 78.543 308.775C77.8724 308.235 77.5371 307.509 77.5371 306.598C77.5371 305.667 77.8854 304.934 78.582 304.4C79.2852 303.867 80.2096 303.6 81.3555 303.6C82.2799 303.6 83.1361 303.766 83.9238 304.098ZM93.2109 300.816C93.2109 301.337 93.0319 301.77 92.6738 302.115C92.3223 302.454 91.9023 302.623 91.4141 302.623C90.9193 302.623 90.4928 302.447 90.1348 302.096C89.7832 301.738 89.6074 301.311 89.6074 300.816C89.6074 300.328 89.7832 299.908 90.1348 299.557C90.4928 299.199 90.9193 299.02 91.4141 299.02C91.9023 299.02 92.3223 299.199 92.6738 299.557C93.0319 299.908 93.2109 300.328 93.2109 300.816ZM94.5293 311.637V314H88.1914V311.637H89.7539V306.139H88.1914V303.736H93.0059V311.637H94.5293ZM101.131 303.736V306.139H99.2363V310.621C99.2363 310.94 99.2982 311.181 99.4219 311.344C99.5456 311.5 99.7767 311.578 100.115 311.578C100.395 311.578 100.734 311.507 101.131 311.363V313.639C100.252 313.984 99.4251 314.156 98.6504 314.156C97.7585 314.156 97.0879 313.932 96.6387 313.482C96.196 313.027 95.9746 312.385 95.9746 311.559V306.139H94.6758V303.736H95.9746V302.145L99.2363 299.801V303.736H101.131ZM113.191 309.557H105.535C105.613 310.344 105.883 310.969 106.346 311.432C106.814 311.887 107.417 312.115 108.152 312.115C108.966 312.115 109.76 311.712 110.535 310.904L113.074 311.725C112.514 312.564 111.821 313.196 110.994 313.619C110.167 314.036 109.188 314.244 108.055 314.244C106.922 314.244 105.919 314.033 105.047 313.609C104.181 313.18 103.507 312.574 103.025 311.793C102.55 311.012 102.312 310.094 102.312 309.039C102.312 307.997 102.56 307.053 103.055 306.207C103.556 305.361 104.23 304.7 105.076 304.225C105.929 303.743 106.854 303.502 107.85 303.502C108.93 303.502 109.871 303.753 110.672 304.254C111.473 304.749 112.088 305.455 112.518 306.373C112.954 307.285 113.178 308.346 113.191 309.557ZM107.693 305.68C107.107 305.68 106.635 305.849 106.277 306.188C105.926 306.526 105.704 307.044 105.613 307.74H109.891C109.799 307.128 109.549 306.633 109.139 306.256C108.735 305.872 108.253 305.68 107.693 305.68ZM130.408 302.965C130.408 304.443 129.669 305.527 128.191 306.217C130.04 306.848 130.965 308.017 130.965 309.723C130.965 310.602 130.727 311.383 130.252 312.066C129.783 312.743 129.129 313.268 128.289 313.639C127.449 314.01 126.502 314.195 125.447 314.195C121.925 314.195 120.037 312.59 119.783 309.381L122.986 309.117C122.999 310.836 123.706 311.695 125.105 311.695C125.75 311.695 126.274 311.493 126.678 311.09C127.081 310.686 127.283 310.188 127.283 309.596C127.283 308.984 127.068 308.489 126.639 308.111C126.215 307.727 125.613 307.535 124.832 307.535C124.708 307.535 124.435 307.551 124.012 307.584V304.898C124.917 304.885 125.623 304.726 126.131 304.42C126.639 304.114 126.893 303.674 126.893 303.102C126.893 302.646 126.72 302.275 126.375 301.988C126.036 301.702 125.607 301.559 125.086 301.559C123.914 301.559 123.328 302.213 123.328 303.521L120.232 303.258C120.337 301.923 120.838 300.885 121.736 300.143C122.635 299.394 123.82 299.02 125.291 299.02C126.847 299.02 128.087 299.374 129.012 300.084C129.943 300.787 130.408 301.747 130.408 302.965ZM86.0625 328.596V327.736H88.2988V331.896H85.9844C85.4375 330.764 84.6042 330.197 83.4844 330.197C82.8008 330.197 82.2344 330.448 81.7852 330.949C81.3424 331.451 81.1211 332.076 81.1211 332.824C81.1211 333.651 81.3327 334.331 81.7559 334.865C82.1855 335.393 82.7552 335.656 83.4648 335.656C83.9792 335.656 84.4674 335.513 84.9297 335.227C85.3919 334.94 85.7695 334.536 86.0625 334.016L88.6016 335.139C88.0417 336.193 87.3678 336.975 86.5801 337.482C85.7923 337.99 84.7311 338.244 83.3965 338.244C81.6647 338.244 80.291 337.772 79.2754 336.828C78.2663 335.878 77.7617 334.562 77.7617 332.883C77.7617 331.88 77.9928 330.979 78.4551 330.178C78.9238 329.377 79.5553 328.749 80.3496 328.293C81.1439 327.831 82.013 327.6 82.957 327.6C84.0378 327.6 85.0729 327.932 86.0625 328.596ZM100.633 332.863C100.633 333.885 100.392 334.807 99.9102 335.627C99.4284 336.447 98.7773 337.089 97.957 337.551C97.1367 338.013 96.235 338.244 95.252 338.244C94.2103 338.244 93.2793 338.013 92.459 337.551C91.6387 337.089 90.9974 336.447 90.5352 335.627C90.0794 334.807 89.8516 333.885 89.8516 332.863C89.8516 331.848 90.0859 330.933 90.5547 330.119C91.0299 329.305 91.681 328.667 92.5078 328.205C93.3346 327.736 94.2493 327.502 95.252 327.502C96.2741 327.502 97.1953 327.736 98.0156 328.205C98.8359 328.667 99.4772 329.305 99.9395 330.119C100.402 330.933 100.633 331.848 100.633 332.863ZM95.2324 335.695C95.8704 335.695 96.3685 335.448 96.7266 334.953C97.0911 334.452 97.2734 333.736 97.2734 332.805C97.2734 331.932 97.0911 331.252 96.7266 330.764C96.3685 330.269 95.8639 330.021 95.2129 330.021C94.5553 330.021 94.0573 330.266 93.7188 330.754C93.3802 331.236 93.2109 331.965 93.2109 332.941C93.2109 333.768 93.3932 334.436 93.7578 334.943C94.1289 335.445 94.6204 335.695 95.2324 335.695ZM112.762 331.457V335.637H114.305V338H109.48V331.721C109.48 331.239 109.406 330.891 109.256 330.676C109.113 330.454 108.868 330.344 108.523 330.344C107.898 330.344 107.27 330.568 106.639 331.018V335.637H108.24V338H101.824V335.637H103.387V330.139H101.824V327.736H106.639V328.703C107.615 327.967 108.618 327.6 109.646 327.6C110.669 327.6 111.443 327.925 111.971 328.576C112.498 329.221 112.762 330.181 112.762 331.457ZM117.049 327.736V327.102C117.049 325.715 117.511 324.689 118.436 324.025C119.367 323.355 120.551 323.02 121.99 323.02C123.208 323.02 124.184 323.241 124.92 323.684C125.662 324.12 126.147 324.771 126.375 325.637L123.152 325.998C122.977 325.438 122.505 325.158 121.736 325.158C121.294 325.158 120.942 325.288 120.682 325.549C120.421 325.809 120.291 326.333 120.291 327.121V327.736H126.395V335.637H128.035V338H122.117V335.637H123.133V330.139H120.291V335.637H121.375V338H115.438V335.637H117.049V330.139H115.438V327.736H117.049ZM136.199 328.996V327.736H141.15V330.139H139.451V337.805C139.451 339.413 139.012 340.64 138.133 341.486C137.254 342.333 135.9 342.756 134.07 342.756C132.046 342.756 130.535 342.385 129.539 341.643L131.131 339.484C131.971 339.999 132.798 340.256 133.611 340.256C134.295 340.256 134.822 340.152 135.193 339.943C135.571 339.742 135.831 339.426 135.975 338.996C136.124 338.573 136.199 338 136.199 337.277V336.721C135.118 337.678 134.07 338.156 133.055 338.156C132.215 338.156 131.469 337.935 130.818 337.492C130.174 337.043 129.676 336.418 129.324 335.617C128.973 334.816 128.797 333.898 128.797 332.863C128.797 331.848 128.982 330.939 129.354 330.139C129.731 329.338 130.262 328.716 130.945 328.273C131.629 327.824 132.391 327.6 133.23 327.6C134.448 327.6 135.438 328.065 136.199 328.996ZM134.158 335.5C134.757 335.5 135.249 335.272 135.633 334.816C136.023 334.354 136.219 333.716 136.219 332.902C136.219 332.076 136.033 331.424 135.662 330.949C135.298 330.474 134.796 330.236 134.158 330.236C133.54 330.236 133.051 330.48 132.693 330.969C132.335 331.457 132.156 332.095 132.156 332.883C132.156 333.638 132.335 334.263 132.693 334.758C133.051 335.253 133.54 335.5 134.158 335.5Z" fill="#F2F2F2"/>
<path d="M453.196 232.053C453.196 230.643 453.664 228.763 453.664 227.353C453.664 225.943 453.664 224.063 453.196 222.653L463.022 215.603C463.958 215.133 464.426 213.723 463.49 212.313L454.132 195.863C453.664 194.453 452.26 193.983 451.324 194.453L440.095 199.623C437.755 197.743 434.48 195.863 431.672 194.923L430.269 182.703C430.269 181.293 429.333 180.353 427.929 180.353H409.213C407.809 180.353 406.873 181.293 406.873 182.703L405.47 194.453C402.194 195.863 399.387 197.273 397.047 199.153L385.818 194.453C384.882 193.983 383.478 194.453 383.01 195.393L373.652 211.843C372.716 213.253 372.716 214.663 374.12 215.133L383.946 222.653C383.946 224.063 383.478 225.943 383.478 227.353C383.478 228.763 383.478 230.643 383.946 232.053L374.12 239.103C373.184 239.573 372.716 240.983 373.652 242.393L383.01 258.843C383.478 260.253 384.882 260.723 385.818 260.253L397.047 255.083C399.387 256.963 402.662 258.843 405.47 259.783L406.873 272.003C406.873 273.413 407.809 274.353 409.213 274.353H427.929C429.333 274.353 430.269 273.413 430.269 272.003L431.672 259.783C434.948 258.373 437.755 256.963 440.095 255.083L451.324 260.253C452.26 260.723 453.664 260.253 454.132 259.313L463.49 242.863C463.958 241.923 463.958 240.513 463.022 239.573L453.196 232.053ZM418.571 246.153C408.277 246.153 399.855 237.693 399.855 227.353C399.855 217.013 408.277 208.553 418.571 208.553C428.865 208.553 437.287 217.013 437.287 227.353C437.287 237.693 428.865 246.153 418.571 246.153Z" fill="#285477"/>
<path d="M476.027 170.072C476.436 169.205 477.269 168.183 477.678 167.316C478.087 166.448 478.632 165.291 478.753 164.287L486.845 162.798C487.557 162.78 488.254 162.048 488.087 160.909L487.098 148.071C487.218 147.068 486.491 146.372 485.779 146.39L477.368 146.315C476.474 144.48 475.003 142.373 473.548 140.98L476.227 133.053C476.636 132.185 476.333 131.335 475.469 130.928L463.95 125.501C463.087 125.094 462.238 125.401 461.829 126.269L457.558 133.093C455.134 133.011 452.997 133.065 451.012 133.543L445.464 127.394C445.024 126.834 444.024 126.716 443.463 127.159L432.934 134.569C431.949 135.165 431.54 136.033 432.268 136.73L436.135 144.207C435.726 145.075 434.893 146.096 434.484 146.964C434.075 147.831 433.53 148.988 433.409 149.992L425.317 151.481C424.605 151.499 423.908 152.231 424.075 153.371L425.065 166.208C424.944 167.211 425.671 167.908 426.383 167.89L434.794 167.964C435.688 169.8 437.159 171.907 438.614 173.299L435.935 181.227C435.526 182.094 435.829 182.944 436.693 183.351L448.212 188.779C449.075 189.186 449.924 188.878 450.333 188.011L454.74 180.897C457.165 180.979 459.301 180.925 461.286 180.447L466.698 186.885C467.138 187.446 468.138 187.563 468.699 187.121L479.228 179.71C479.789 179.267 480.197 178.4 479.894 177.55L476.027 170.072ZM450.63 168.71C444.294 165.725 441.564 158.076 444.562 151.712C447.561 145.349 455.197 142.585 461.533 145.57C467.868 148.555 470.598 156.203 467.6 162.567C464.601 168.93 456.965 171.695 450.63 168.71Z" fill="#285477"/>
<path d="M694.828 197.828C696.391 196.266 696.391 193.734 694.828 192.172L669.373 166.716C667.81 165.154 665.278 165.154 663.716 166.716C662.154 168.278 662.154 170.81 663.716 172.373L686.343 195L663.716 217.627C662.154 219.19 662.154 221.722 663.716 223.284C665.278 224.846 667.81 224.846 669.373 223.284L694.828 197.828ZM529 199H692V191H529V199Z" fill="#285477"/>
<path d="M81.0044 523.298L81.0021 522.654L82.6793 522.647L82.6908 525.768L80.955 525.774C80.5417 524.926 79.9151 524.503 79.0753 524.506C78.5626 524.508 78.1385 524.698 77.803 525.075C77.4723 525.452 77.3081 525.922 77.3101 526.483C77.3124 527.103 77.473 527.613 77.7919 528.012C78.1156 528.407 78.5436 528.603 79.0758 528.601C79.4615 528.599 79.8273 528.491 80.1732 528.274C80.5191 528.058 80.8012 527.754 81.0195 527.363L82.9269 528.198C82.5099 528.991 82.0067 529.579 81.4173 529.962C80.8279 530.345 80.0327 530.538 79.0317 530.542C77.7329 530.547 76.7013 530.196 75.937 529.491C75.1775 528.781 74.7954 527.796 74.7908 526.536C74.788 525.785 74.9588 525.108 75.3033 524.506C75.6526 523.904 76.1245 523.431 76.719 523.087C77.3134 522.738 77.9646 522.562 78.6726 522.56C79.4831 522.557 80.2604 522.803 81.0044 523.298ZM89.4682 522.447C90.2494 522.444 90.8362 522.678 91.2286 523.15C91.6258 523.623 91.8261 524.31 91.8295 525.214L91.8418 528.539L92.9843 528.535L92.9909 530.307L89.3874 530.32L89.369 525.34C89.3678 525.023 89.3059 524.796 89.1834 524.66C89.0657 524.523 88.8677 524.456 88.5893 524.457C88.2085 524.458 87.7794 524.616 87.302 524.93L87.3154 528.556L88.3921 528.552L88.3986 530.324L83.6306 530.342L83.6241 528.569L84.8692 528.565L84.8414 521.065L83.5963 521.069L83.5898 519.304L87.2812 519.291L87.2959 523.26C88.0849 522.72 88.809 522.449 89.4682 522.447ZM100.796 525.657L100.807 528.506L102.052 528.501L102.058 530.274L98.3668 530.287L98.3646 529.687C97.6681 530.168 96.9708 530.41 96.2726 530.412C95.4278 530.415 94.7508 530.2 94.2413 529.768C93.7319 529.335 93.4759 528.75 93.4731 528.013C93.4702 527.232 93.7511 526.606 94.3158 526.135C94.8853 525.659 95.6413 525.419 96.5837 525.416C96.9108 525.415 97.2015 525.45 97.4557 525.522C97.7147 525.59 98.013 525.708 98.3505 525.878L98.3483 525.263C98.3468 524.872 98.2236 524.56 97.9786 524.327C97.7336 524.093 97.3669 523.977 96.8787 523.979C96.3464 523.981 95.876 524.188 95.4674 524.6L93.4885 524.248C94.0846 523.035 95.3226 522.425 97.2025 522.418C98.4915 522.413 99.4105 522.676 99.9593 523.206C100.513 523.731 100.792 524.548 100.796 525.657ZM96.8162 528.879C97.2557 528.878 97.7698 528.612 98.3587 528.083L98.3561 527.394C97.8275 527.054 97.3435 526.885 96.9041 526.887C96.5525 526.888 96.2842 526.972 96.0993 527.139C95.9144 527.306 95.8225 527.543 95.8236 527.85C95.8262 528.539 96.157 528.882 96.8162 528.879ZM111.115 525.333L111.126 528.468L112.284 528.463L112.29 530.236L108.672 530.249L108.655 525.54C108.653 525.178 108.596 524.917 108.483 524.757C108.375 524.591 108.192 524.509 107.933 524.51C107.464 524.511 106.994 524.682 106.521 525.02L106.534 528.485L107.735 528.48L107.742 530.253L102.93 530.27L102.923 528.498L104.095 528.494L104.08 524.37L102.908 524.374L102.901 522.573L106.512 522.559L106.515 523.284C107.245 522.73 107.996 522.451 108.768 522.448C109.534 522.446 110.116 522.688 110.513 523.174C110.911 523.656 111.111 524.376 111.115 525.333ZM118.505 523.46L118.502 522.515L122.215 522.501L122.222 524.303L120.947 524.308L120.969 530.057C120.973 531.263 120.647 532.185 119.99 532.822C119.333 533.459 118.319 533.78 116.947 533.785C115.428 533.791 114.294 533.517 113.545 532.963L114.733 531.34C115.364 531.723 115.985 531.914 116.596 531.912C117.108 531.91 117.504 531.83 117.781 531.673C118.064 531.521 118.258 531.283 118.365 530.96C118.476 530.643 118.53 530.213 118.528 529.671L118.527 529.253C117.719 529.974 116.934 530.336 116.172 530.339C115.542 530.341 114.983 530.177 114.493 529.847C114.009 529.512 113.633 529.044 113.367 528.445C113.102 527.845 112.967 527.157 112.964 526.381C112.961 525.619 113.098 524.937 113.374 524.336C113.655 523.734 114.051 523.266 114.563 522.932C115.074 522.594 115.645 522.423 116.275 522.421C117.188 522.417 117.931 522.764 118.505 523.46ZM116.993 528.343C117.442 528.342 117.81 528.169 118.097 527.827C118.388 527.479 118.533 527 118.531 526.389C118.528 525.769 118.388 525.282 118.108 524.926C117.833 524.571 117.457 524.394 116.978 524.396C116.514 524.397 116.149 524.582 115.881 524.949C115.614 525.316 115.482 525.795 115.484 526.386C115.486 526.952 115.622 527.421 115.892 527.791C116.162 528.161 116.529 528.345 116.993 528.343ZM130.808 526.835L125.066 526.856C125.127 527.447 125.331 527.915 125.679 528.26C126.032 528.6 126.484 528.77 127.036 528.768C127.646 528.765 128.241 528.46 128.819 527.853L130.726 528.461C130.308 529.092 129.79 529.568 129.171 529.888C128.552 530.202 127.818 530.361 126.968 530.365C126.119 530.368 125.366 530.212 124.711 529.897C124.06 529.577 123.553 529.125 123.19 528.54C122.831 527.956 122.65 527.268 122.647 526.477C122.644 525.695 122.827 524.987 123.196 524.351C123.57 523.714 124.073 523.217 124.707 522.858C125.345 522.495 126.038 522.311 126.785 522.309C127.595 522.306 128.302 522.491 128.904 522.865C129.506 523.234 129.969 523.762 130.294 524.449C130.623 525.131 130.795 525.927 130.808 526.835ZM126.674 523.942C126.234 523.944 125.881 524.072 125.613 524.327C125.35 524.582 125.186 524.971 125.119 525.493L128.327 525.482C128.257 525.023 128.068 524.652 127.759 524.37C127.455 524.083 127.094 523.941 126.674 523.942ZM140.468 522.705L140.467 522.434L142.217 522.427L142.226 524.683L140.475 524.69C140.322 524.148 139.759 523.879 138.788 523.883C138.09 523.885 137.741 524.082 137.743 524.473C137.743 524.644 137.836 524.77 138.022 524.852C138.208 524.935 138.479 525.002 138.836 525.055C139.837 525.178 140.627 525.358 141.204 525.595C141.781 525.827 142.185 526.119 142.416 526.47C142.646 526.815 142.763 527.237 142.764 527.735C142.767 528.546 142.491 529.179 141.936 529.635C141.386 530.087 140.635 530.314 139.683 530.318C138.755 530.321 138.125 530.138 137.791 529.768L137.793 530.141L136.006 530.148L135.996 527.497L137.783 527.49C137.833 527.856 138.01 528.144 138.314 528.352C138.622 528.561 139.001 528.665 139.45 528.663C139.889 528.662 140.214 528.611 140.424 528.513C140.633 528.41 140.737 528.234 140.737 527.985C140.736 527.814 140.691 527.682 140.603 527.59C140.515 527.492 140.344 527.407 140.09 527.335C139.84 527.263 139.457 527.181 138.939 527.09C137.786 526.914 136.955 526.626 136.445 526.228C135.941 525.825 135.687 525.281 135.685 524.597C135.682 523.899 135.942 523.349 136.463 522.947C136.988 522.544 137.681 522.341 138.54 522.338C139.234 522.336 139.876 522.458 140.468 522.705ZM147.424 520.218C147.426 520.609 147.293 520.934 147.025 521.194C146.762 521.449 146.448 521.577 146.082 521.578C145.71 521.579 145.39 521.449 145.121 521.186C144.856 520.918 144.723 520.599 144.722 520.228C144.72 519.862 144.851 519.546 145.114 519.282C145.381 519.012 145.7 518.877 146.072 518.875C146.438 518.874 146.753 519.007 147.018 519.275C147.287 519.537 147.423 519.852 147.424 520.218ZM148.443 528.33L148.449 530.102L143.696 530.12L143.69 528.347L144.861 528.343L144.846 524.219L143.674 524.224L143.668 522.422L147.278 522.409L147.3 528.334L148.443 528.33ZM153.372 522.386L153.379 524.188L151.958 524.193L151.97 527.555C151.971 527.794 152.018 527.975 152.112 528.096C152.205 528.213 152.378 528.271 152.632 528.27C152.842 528.269 153.096 528.215 153.393 528.106L153.4 529.813C152.741 530.074 152.122 530.206 151.541 530.208C150.872 530.21 150.368 530.044 150.03 529.708C149.697 529.367 149.529 528.887 149.527 528.267L149.512 524.202L148.538 524.206L148.531 522.404L149.505 522.4L149.501 521.206L151.94 519.44L151.951 522.391L153.372 522.386ZM162.434 526.718L156.692 526.739C156.752 527.33 156.957 527.798 157.305 528.143C157.657 528.483 158.11 528.653 158.661 528.651C159.272 528.648 159.866 528.343 160.445 527.736L162.352 528.344C161.934 528.975 161.416 529.451 160.797 529.771C160.178 530.086 159.444 530.244 158.594 530.248C157.745 530.251 156.992 530.095 156.337 529.78C155.686 529.46 155.179 529.008 154.815 528.423C154.457 527.839 154.276 527.151 154.273 526.36C154.27 525.579 154.453 524.87 154.822 524.234C155.196 523.598 155.699 523.1 156.332 522.741C156.971 522.378 157.663 522.194 158.411 522.192C159.221 522.189 159.927 522.374 160.529 522.748C161.131 523.117 161.595 523.645 161.919 524.332C162.249 525.014 162.421 525.81 162.434 526.718ZM158.299 523.825C157.86 523.827 157.506 523.955 157.239 524.21C156.976 524.465 156.811 524.854 156.745 525.376L159.953 525.365C159.883 524.906 159.694 524.536 159.385 524.253C159.081 523.966 158.719 523.824 158.299 523.825ZM101.277 540.85L101.276 540.579L103.026 540.572L103.035 542.828L101.284 542.835C101.131 542.293 100.568 542.024 99.5968 542.028C98.8985 542.03 98.5501 542.227 98.5516 542.618C98.5522 542.789 98.6455 542.915 98.8313 542.997C99.0172 543.08 99.2884 543.147 99.6451 543.2C100.646 543.323 101.436 543.503 102.013 543.74C102.59 543.972 102.994 544.264 103.225 544.615C103.455 544.96 103.572 545.382 103.573 545.88C103.576 546.691 103.3 547.324 102.746 547.78C102.195 548.232 101.444 548.459 100.492 548.463C99.5644 548.466 98.9339 548.283 98.6005 547.913L98.6018 548.286L96.8147 548.293L96.8049 545.642L98.592 545.635C98.6422 546.001 98.8191 546.289 99.1226 546.497C99.431 546.706 99.8098 546.81 100.259 546.808C100.698 546.807 101.023 546.757 101.233 546.658C101.442 546.555 101.546 546.379 101.546 546.13C101.545 545.959 101.5 545.827 101.412 545.735C101.324 545.637 101.153 545.552 100.899 545.48C100.649 545.408 100.266 545.326 99.7478 545.235C98.5948 545.059 97.7636 544.771 97.2544 544.373C96.7499 543.97 96.4965 543.426 96.4939 542.742C96.4913 542.044 96.7505 541.494 97.2715 541.092C97.7974 540.689 98.49 540.487 99.3494 540.483C100.043 540.481 100.685 540.603 101.277 540.85ZM110.719 541.188L110.717 540.544L112.394 540.538L112.406 543.658L110.67 543.664C110.257 542.816 109.63 542.394 108.79 542.397C108.277 542.399 107.853 542.588 107.518 542.965C107.187 543.343 107.023 543.812 107.025 544.373C107.027 544.994 107.188 545.503 107.507 545.902C107.83 546.297 108.258 546.493 108.791 546.491C109.176 546.49 109.542 546.381 109.888 546.165C110.234 545.949 110.516 545.645 110.734 545.253L112.642 546.089C112.225 546.881 111.721 547.469 111.132 547.852C110.543 548.235 109.747 548.428 108.746 548.432C107.448 548.437 106.416 548.087 105.652 547.381C104.892 546.671 104.51 545.686 104.506 544.427C104.503 543.675 104.674 542.998 105.018 542.396C105.367 541.794 105.839 541.321 106.434 540.977C107.028 540.628 107.679 540.453 108.387 540.45C109.198 540.447 109.975 540.693 110.719 541.188ZM120.04 540.421L120.049 542.729C119.375 542.775 118.838 542.884 118.439 543.057C118.044 543.224 117.737 543.514 117.519 543.924C117.306 544.335 117.2 544.922 117.203 545.683L117.206 546.445L118.737 546.44L118.743 548.212L113.345 548.232L113.339 546.46L114.752 546.454L114.737 542.331L113.397 542.336L113.39 540.534L116.979 540.521L116.986 542.476C117.165 541.885 117.497 541.393 117.984 541C118.471 540.608 119.076 540.41 119.798 540.408C119.906 540.407 119.986 540.412 120.04 540.421ZM124.683 538.302C124.685 538.693 124.552 539.018 124.284 539.278C124.021 539.533 123.707 539.661 123.341 539.662C122.97 539.664 122.649 539.533 122.38 539.27C122.115 539.003 121.982 538.683 121.981 538.312C121.979 537.946 122.11 537.631 122.373 537.366C122.64 537.096 122.96 536.961 123.331 536.96C123.697 536.958 124.012 537.091 124.277 537.359C124.546 537.622 124.682 537.936 124.683 538.302ZM125.702 546.414L125.709 548.186L120.955 548.204L120.949 546.431L122.121 546.427L122.105 542.304L120.933 542.308L120.927 540.506L124.538 540.493L124.559 546.418L125.702 546.414ZM135.033 544.387C135.036 545.139 134.904 545.816 134.638 546.417C134.371 547.014 133.985 547.484 133.478 547.828C132.977 548.172 132.396 548.345 131.737 548.347C130.927 548.35 130.176 548.033 129.485 547.396L129.494 549.864L131.018 549.859L131.024 551.631L125.751 551.65L125.744 549.878L127.048 549.873L127.02 542.285L125.921 542.289L125.915 540.488L129.459 540.475L129.463 541.434C130.139 540.724 130.897 540.367 131.737 540.364C132.416 540.361 133.002 540.537 133.497 540.892C133.996 541.241 134.376 541.721 134.637 542.33C134.898 542.94 135.03 543.625 135.033 544.387ZM131.019 546.409C131.503 546.407 131.873 546.227 132.131 545.87C132.388 545.508 132.516 544.997 132.513 544.338C132.511 543.708 132.377 543.218 132.112 542.867C131.847 542.517 131.468 542.342 130.975 542.344C130.506 542.346 130.131 542.53 129.849 542.897C129.572 543.265 129.435 543.758 129.437 544.378C129.439 544.96 129.585 545.445 129.875 545.834C130.169 546.219 130.551 546.411 131.019 546.409ZM140.592 540.433L140.599 542.235L139.178 542.24L139.19 545.602C139.191 545.841 139.238 546.022 139.332 546.144C139.425 546.261 139.598 546.318 139.852 546.318C140.062 546.317 140.316 546.262 140.613 546.154L140.62 547.86C139.961 548.121 139.342 548.253 138.761 548.255C138.092 548.258 137.588 548.091 137.25 547.755C136.917 547.415 136.749 546.934 136.747 546.314L136.732 542.249L135.758 542.253L135.751 540.451L136.725 540.448L136.721 539.254L139.16 537.487L139.171 540.439L140.592 540.433Z" fill="#5A5454"/>
<path d="M61.6677 440C60.1923 440 58.6818 440.541 57.6112 441.611C56.5407 442.682 56 444.192 56 445.668V556.327C56 557.802 56.5406 559.317 57.6112 560.389C58.6819 561.46 60.1923 562 61.6677 562H172.327C173.802 562 175.317 561.459 176.389 560.389C177.46 559.318 178 557.808 178 556.332V445.668C178 444.192 177.459 442.682 176.389 441.611C175.318 440.541 173.808 440 172.332 440H61.6677ZM61.8095 445.81H172.19V556.19H61.8095V445.81ZM125.538 485.926C119.395 485.926 116.257 489.849 116.257 494.555C116.257 497.21 117.785 500.307 121.794 502.747C124.278 504.357 125.584 505.406 125.584 507.541C125.584 509.459 124.274 510.849 121.573 510.849C119.917 510.849 117.915 510.374 116.739 509.72L115.911 514.639C116.869 515.205 119.18 515.819 121.533 515.819C127.284 515.819 131.246 512.288 131.246 506.929C131.246 503.832 129.808 500.871 125.93 498.515C122.749 496.598 121.879 495.685 121.879 493.942C121.879 492.374 123.059 490.89 125.499 490.89C127.154 490.89 128.415 491.368 129.243 491.894L130.157 486.975C129.285 486.455 127.456 485.926 125.538 485.926ZM106.981 486.187V506.452C106.981 510.24 105.584 510.894 103.929 510.894C103.188 510.894 102.623 510.853 102.056 510.679L101.574 515.467C102.228 515.726 103.274 515.904 104.451 515.904C108.633 515.904 112.728 514.638 112.728 506.185V486.187H106.981Z" fill="#285477"/>
<path d="M348.679 197.828C350.241 196.266 350.241 193.734 348.679 192.172L323.223 166.716C321.661 165.154 319.128 165.154 317.566 166.716C316.004 168.278 316.004 170.81 317.566 172.373L340.193 195L317.566 217.627C316.004 219.19 316.004 221.722 317.566 223.284C319.128 224.846 321.661 224.846 323.223 223.284L348.679 197.828ZM115.328 368.672C113.766 367.109 111.234 367.109 109.672 368.672L84.2157 394.127C82.6536 395.69 82.6536 398.222 84.2157 399.784C85.7778 401.346 88.3105 401.346 89.8726 399.784L112.5 377.157L135.127 399.784C136.69 401.346 139.222 401.346 140.784 399.784C142.346 398.222 142.346 395.69 140.784 394.127L115.328 368.672ZM204.672 501.172C203.11 502.734 203.11 505.266 204.672 506.828L230.128 532.284C231.69 533.846 234.222 533.846 235.784 532.284C237.346 530.722 237.346 528.19 235.784 526.627L213.157 504L235.784 481.373C237.346 479.81 237.346 477.278 235.784 475.716C234.222 474.154 231.69 474.154 230.128 475.716L204.672 501.172ZM186 199H345.85V191H186V199ZM116.5 428V371.5H108.5V428H116.5ZM592 500H207.5V508H592V500Z" fill="#285477"/>
</svg>
