<svg width="473" height="878" viewBox="0 0 473 878" fill="none" xmlns="http://www.w3.org/2000/svg">
<rect width="473" height="878" fill="#F2F2F2"/>
<path fill-rule="evenodd" clip-rule="evenodd" d="M219.155 60.9395C219.269 60.9395 219.362 61.0322 219.362 61.1466V61.5458C219.362 61.6603 219.269 61.753 219.155 61.753C219.041 61.753 218.948 61.6603 218.948 61.5458V61.1466C218.948 61.0322 219.041 60.9395 219.155 60.9395Z" fill="#3A7FC3"/>
<path d="M194.359 711.38L194.352 709.549L198.102 709.535L198.127 716.215L194.377 716.229C194.216 715.155 193.862 714.351 193.313 713.816C192.774 713.271 192.075 713 191.215 713.003C190.61 713.006 190.093 713.178 189.664 713.522C189.236 713.865 189.023 714.296 189.025 714.813C189.026 715.272 189.165 715.667 189.439 715.998C189.714 716.329 190.067 716.611 190.497 716.844C190.928 717.067 191.573 717.367 192.434 717.745L193.329 718.123C195.275 718.955 196.744 719.936 197.734 721.065C198.735 722.194 199.238 723.609 199.244 725.308C199.252 727.329 198.677 728.933 197.519 730.119C196.361 731.295 194.801 731.887 192.838 731.894C190.924 731.901 189.432 731.189 188.362 729.757L188.369 731.647L184.619 731.661L184.591 724.161L188.341 724.147C188.424 725.445 188.76 726.435 189.349 727.117C189.947 727.788 190.749 728.122 191.755 728.119C192.428 728.116 192.994 727.885 193.451 727.424C193.918 726.963 194.151 726.406 194.148 725.751C194.146 725.087 193.875 724.483 193.336 723.938C192.806 723.383 191.901 722.83 190.62 722.278C188.438 721.329 186.853 720.305 185.862 719.205C184.882 718.105 184.389 716.837 184.383 715.402C184.379 714.279 184.634 713.252 185.148 712.323C185.662 711.393 186.373 710.663 187.279 710.132C188.195 709.592 189.19 709.319 190.264 709.315C191.124 709.312 191.905 709.485 192.61 709.834C193.314 710.183 193.897 710.698 194.359 711.38ZM208.452 711.797C208.455 712.578 208.189 713.229 207.654 713.748C207.128 714.258 206.499 714.514 205.767 714.517C205.025 714.52 204.384 714.258 203.845 713.733C203.316 713.198 203.05 712.559 203.047 711.817C203.044 711.085 203.306 710.454 203.831 709.924C204.366 709.385 205.005 709.114 205.747 709.112C206.479 709.109 207.11 709.375 207.64 709.91C208.179 710.436 208.449 711.065 208.452 711.797ZM210.49 728.02L210.503 731.565L200.996 731.6L200.983 728.055L203.327 728.047L203.296 719.8L200.952 719.808L200.939 716.205L208.161 716.178L208.205 728.029L210.49 728.02ZM220.348 716.133L220.362 719.736L217.52 719.747L217.545 726.471C217.546 726.949 217.64 727.31 217.827 727.553C218.013 727.787 218.36 727.903 218.868 727.901C219.288 727.9 219.796 727.79 220.39 727.573L220.403 730.986C219.087 731.509 217.847 731.772 216.685 731.776C215.347 731.781 214.34 731.448 213.664 730.777C212.997 730.096 212.662 729.135 212.657 727.895L212.627 719.765L210.679 719.772L210.666 716.169L212.614 716.162L212.605 713.774L217.485 710.24L217.506 716.143L220.348 716.133ZM238.471 724.796L226.987 724.839C227.108 726.02 227.517 726.956 228.213 727.647C228.919 728.328 229.823 728.666 230.927 728.662C232.147 728.658 233.337 728.048 234.494 726.833L238.307 728.049C237.472 729.312 236.436 730.263 235.198 730.902C233.96 731.532 232.491 731.85 230.792 731.856C229.093 731.862 227.588 731.551 226.277 730.921C224.976 730.281 223.962 729.377 223.235 728.207C222.517 727.038 222.156 725.662 222.15 724.08C222.144 722.518 222.51 721.101 223.248 719.828C223.995 718.556 225.002 717.561 226.269 716.843C227.545 716.116 228.931 715.75 230.425 715.744C232.046 715.738 233.459 716.109 234.662 716.856C235.866 717.594 236.793 718.65 237.443 720.025C238.102 721.39 238.445 722.98 238.471 724.796ZM230.203 719.012C229.324 719.015 228.617 719.271 228.081 719.781C227.556 720.291 227.227 721.068 227.094 722.114L233.51 722.09C233.37 721.173 232.991 720.432 232.374 719.868C231.766 719.294 231.042 719.008 230.203 719.012Z" fill="#5A5454"/>
<path d="M283.891 808.316C282.507 807.472 281.302 806.341 280.343 804.971C279.901 804.339 279.527 803.671 279.217 802.98H121.984V647.7H335.405V749.092C339.961 749.505 343.784 752.503 345.389 756.609C346.811 755.828 348.395 755.346 350.059 755.199C351.185 755.101 352.304 755.169 353.389 755.385V609.017C353.389 600.736 346.667 594 338.403 594H118.987C110.723 594 104 600.736 104 609.017V805.984C104 814.264 110.723 821 118.987 821H282.525C281.249 818.411 280.946 815.488 281.697 812.675C282.13 811.058 282.879 809.582 283.891 808.316V808.316ZM318.948 619.216C318.948 616.154 321.425 613.671 324.481 613.671H330.015C333.071 613.671 335.548 616.153 335.548 619.216V625.5C335.548 628.562 333.071 631.044 330.015 631.044H324.481C321.424 631.044 318.948 628.562 318.948 625.5V619.216ZM293.216 619.216C293.216 616.154 295.694 613.671 298.75 613.671H304.284C307.341 613.671 309.818 616.153 309.818 619.216V625.5C309.818 628.562 307.34 631.044 304.284 631.044H298.75C295.694 631.044 293.216 628.562 293.216 625.5V619.216ZM267.484 619.216C267.484 616.154 269.962 613.671 273.018 613.671H278.551C281.608 613.671 284.085 616.153 284.085 619.216V625.5C284.085 628.562 281.608 631.044 278.551 631.044H273.018C269.962 631.044 267.484 628.562 267.484 625.5V619.216Z" fill="#285477"/>
<path d="M301.812 786.682C301.812 785.162 300.923 783.765 299.546 783.124L286.944 777.257L299.546 771.39C300.923 770.749 301.812 769.352 301.812 767.832V767.73C301.812 766.383 301.136 765.146 300.003 764.423C299.376 764.022 298.646 763.81 297.893 763.81C297.325 763.81 296.755 763.935 296.245 764.172L276.098 773.559C274.722 774.201 273.833 775.597 273.833 777.117V777.398C273.833 778.916 274.721 780.311 276.098 780.956L296.247 790.344C296.768 790.586 297.323 790.708 297.896 790.708C298.643 790.708 299.37 790.496 300.003 790.092C301.136 789.367 301.813 788.131 301.813 786.785L301.812 786.682Z" fill="#285477"/>
<path d="M321.691 754.244C320.956 753.236 319.774 752.635 318.528 752.635H318.428C316.718 752.635 315.219 753.731 314.698 755.36L301.424 796.57C301.046 797.76 301.259 799.071 301.992 800.078C302.727 801.086 303.91 801.688 305.155 801.688H305.255C306.965 801.688 308.463 800.591 308.984 798.962L322.256 757.755C322.638 756.567 322.426 755.254 321.691 754.244V754.244Z" fill="#285477"/>
<path d="M347.584 773.559L327.437 764.172C326.928 763.935 326.359 763.81 325.791 763.81C325.038 763.81 324.308 764.022 323.682 764.422C322.547 765.146 321.87 766.383 321.87 767.73V767.832C321.87 769.351 322.759 770.748 324.137 771.392L336.739 777.258L324.137 783.124C322.76 783.765 321.87 785.162 321.87 786.682V786.785C321.87 788.131 322.547 789.366 323.681 790.093C324.312 790.496 325.04 790.708 325.788 790.708C326.36 790.708 326.914 790.586 327.439 790.343L347.587 780.955C348.963 780.312 349.851 778.916 349.851 777.398V777.118C349.85 775.597 348.961 774.201 347.584 773.559V773.559Z" fill="#285477"/>
<path d="M332.181 437.998C332.189 440.136 331.154 441.659 329.078 442.565C330.417 443.058 331.416 443.743 332.074 444.619C332.731 445.486 333.062 446.559 333.067 447.838C333.083 452.135 329.868 454.295 323.423 454.319L313.169 454.357L313.155 450.607L315.88 450.597L315.826 436.022L313.101 436.032L313.087 432.282L323.341 432.244C326.32 432.233 328.533 432.704 329.982 433.655C331.441 434.607 332.174 436.054 332.181 437.998ZM326.455 438.312C326.451 437.452 326.137 436.853 325.51 436.514C324.894 436.164 324.024 435.992 322.901 435.996L321.553 436.001L321.572 440.981L323.344 440.975C324.389 440.971 325.17 440.768 325.686 440.365C326.202 439.963 326.458 439.279 326.455 438.312ZM327.178 447.699C327.174 446.625 326.858 445.854 326.232 445.388C325.615 444.921 324.549 444.691 323.036 444.697L321.586 444.702L321.607 450.576L323.863 450.568C324.879 450.564 325.684 450.331 326.278 449.87C326.881 449.409 327.181 448.685 327.178 447.699ZM344.224 450.434C345.064 450.431 345.971 450.056 346.945 449.31L346.919 442.44L344.561 442.449L344.547 438.846L351.798 438.819L351.842 450.669L354.362 450.66L354.375 454.205L346.963 454.232L346.958 452.943C345.429 453.964 343.941 454.478 342.496 454.483C341.002 454.489 339.838 454.078 339.005 453.251C338.172 452.424 337.753 451.283 337.747 449.828L337.72 442.474L335.406 442.483L335.392 438.879L342.57 438.853L342.606 448.55C342.608 449.273 342.723 449.77 342.948 450.043C343.184 450.306 343.609 450.436 344.224 450.434ZM363.574 434.395C363.577 435.177 363.311 435.827 362.776 436.346C362.25 436.856 361.621 437.112 360.889 437.115C360.147 437.118 359.506 436.857 358.967 436.331C358.438 435.796 358.172 435.157 358.169 434.415C358.166 433.683 358.427 433.052 358.953 432.523C359.488 431.984 360.127 431.713 360.869 431.71C361.601 431.707 362.232 431.973 362.761 432.509C363.3 433.034 363.571 433.663 363.574 434.395ZM365.612 450.618L365.625 454.163L356.118 454.198L356.105 450.653L358.449 450.645L358.418 442.398L356.074 442.406L356.061 438.803L363.283 438.776L363.326 450.627L365.612 450.618ZM376.495 450.578L376.508 454.123L367.002 454.158L366.989 450.613L369.391 450.604L369.335 435.604L366.933 435.613L366.92 432.083L374.244 432.056L374.313 450.586L376.495 450.578ZM396.139 450.505L396.152 454.05L388.754 454.078L388.748 452.247C387.347 453.629 385.855 454.323 384.273 454.329C382.974 454.333 381.825 453.991 380.827 453.301C379.828 452.602 379.043 451.643 378.472 450.424C377.911 449.206 377.628 447.849 377.622 446.355C377.617 444.812 377.89 443.434 378.442 442.221C379.004 441.008 379.796 440.063 380.819 439.385C381.842 438.698 382.983 438.352 384.243 438.347C386.05 438.341 387.537 439.033 388.704 440.425L388.686 435.533L386.254 435.542L386.241 432.012L393.551 431.985L393.619 450.515L396.139 450.505ZM385.709 450.456C386.666 450.453 387.412 450.074 387.946 449.32C388.49 448.556 388.76 447.574 388.755 446.373C388.751 445.171 388.469 444.191 387.909 443.431C387.36 442.672 386.606 442.294 385.649 442.297C384.722 442.301 383.986 442.684 383.442 443.448C382.898 444.212 382.628 445.184 382.632 446.366C382.637 447.557 382.914 448.538 383.463 449.307C384.013 450.077 384.762 450.46 385.709 450.456Z" fill="#5A5454"/>
<path d="M54.7177 47.8989L54.7113 46.1724L51.0629 46.1859L51.0729 48.889L54.0182 48.8781L54.0255 50.8625L51.0802 50.8734L51.0916 53.9593L54.74 53.9458L54.7336 52.2036L56.9914 52.1953L57.0052 55.9374L46.6225 55.9758L46.6151 53.9758L48.037 53.9706L48.0082 46.1972L46.5864 46.2024L46.579 44.2025L56.9617 44.1641L56.9755 47.8906L54.7177 47.8989ZM67.3284 46.1257L65.8128 46.1313L65.8054 44.1314L71.0632 44.1119L71.0706 46.1119L69.4299 46.118L69.4664 55.9695L66.857 55.9791L61.731 47.2636L61.7556 53.9198L63.2322 53.9144L63.2396 55.9144L58.0834 55.9334L58.076 53.9334L59.6619 53.9276L59.6331 46.1542L58.0472 46.1601L58.0398 44.1601L62.9851 44.1418L67.3482 51.4851L67.3284 46.1257ZM75.7815 46.0945L77.7876 51.9699L79.7502 46.0798L78.2658 46.0853L78.2584 44.0853L83.4537 44.0661L83.4611 46.0661L82.0392 46.0713L78.685 55.9198L76.2553 55.9287L72.7112 46.1058L71.3049 46.111L71.2975 44.1111L77.2975 44.0889L77.3049 46.0889L75.7815 46.0945ZM91.9974 49.5189L93.308 53.2407L94.7942 49.5086L93.7239 49.5125L93.7168 47.5907L98.0527 47.5746L98.0598 49.4965L96.888 49.5008L94.2398 55.9247L92.0211 55.9329L89.2239 49.5292L88.0443 49.5335L88.0372 47.6117L93.0137 47.5933L93.0208 49.5151L91.9974 49.5189ZM106.409 50.825L106.42 53.8641L107.748 53.8592L107.755 55.7498L103.817 55.7643L103.815 55.1237C103.072 55.6369 102.328 55.8948 101.584 55.8976C100.682 55.9009 99.9603 55.6718 99.4169 55.2103C98.8735 54.7487 98.6004 54.1248 98.5975 53.3383C98.5944 52.505 98.894 51.8372 99.4963 51.335C100.104 50.8275 100.91 50.5719 101.915 50.5682C102.264 50.5669 102.574 50.6048 102.845 50.6819C103.122 50.7538 103.44 50.8803 103.8 51.0612L103.798 50.405C103.796 49.9883 103.665 49.6555 103.403 49.4064C103.142 49.1574 102.751 49.0338 102.23 49.0358C101.662 49.0379 101.161 49.2585 100.725 49.6976L98.6139 49.3226C99.2497 48.0286 100.57 47.3778 102.575 47.3704C103.95 47.3653 104.931 47.6456 105.516 48.2111C106.107 48.7714 106.404 49.6427 106.409 50.825ZM102.163 54.2626C102.632 54.2609 103.181 53.9776 103.809 53.4128L103.806 52.6784C103.242 52.3159 102.726 52.1355 102.257 52.1373C101.882 52.1386 101.596 52.2282 101.399 52.4061C101.201 52.5839 101.103 52.8368 101.105 53.165C101.107 53.8993 101.46 54.2652 102.163 54.2626ZM115.584 47.4161L115.593 49.877C114.874 49.9265 114.302 50.0432 113.875 50.2271C113.454 50.4057 113.127 50.7142 112.894 51.1526C112.667 51.591 112.554 52.2164 112.557 53.0289L112.56 53.8414L114.193 53.8353L114.2 55.7259L108.442 55.7472L108.435 53.8566L109.943 53.851L109.927 49.4526L108.497 49.4579L108.49 47.5361L112.318 47.5219L112.326 49.6078C112.516 48.9769 112.871 48.4522 113.39 48.0336C113.91 47.615 114.555 47.4043 115.326 47.4014C115.44 47.401 115.526 47.4059 115.584 47.4161ZM120.536 45.1556C120.538 45.5722 120.396 45.9191 120.11 46.1962C119.83 46.4681 119.495 46.6047 119.104 46.6062C118.708 46.6076 118.366 46.4683 118.079 46.1881C117.797 45.9027 117.655 45.5621 117.653 45.1662C117.652 44.7756 117.791 44.4391 118.071 44.1569C118.357 43.8693 118.697 43.7249 119.093 43.7234C119.484 43.7219 119.82 43.8639 120.103 44.1493C120.39 44.4295 120.535 44.7649 120.536 45.1556ZM121.623 53.8079L121.63 55.6985L116.56 55.7172L116.553 53.8266L117.803 53.822L117.786 49.4236L116.536 49.4282L116.529 47.5063L120.381 47.4921L120.404 53.8124L121.623 53.8079ZM130.346 50.7365L130.357 53.7756L131.685 53.7706L131.692 55.6613L127.755 55.6758L127.752 55.0352C127.009 55.5484 126.266 55.8063 125.521 55.8091C124.62 55.8124 123.898 55.5833 123.354 55.1218C122.811 54.6602 122.538 54.0362 122.535 53.2498C122.532 52.4165 122.831 51.7487 123.434 51.2465C124.041 50.739 124.848 50.4834 125.853 50.4797C126.202 50.4784 126.512 50.5163 126.783 50.5934C127.059 50.6653 127.377 50.7918 127.737 50.9727L127.735 50.3165C127.733 49.8998 127.602 49.567 127.341 49.3179C127.079 49.0689 126.688 48.9453 126.167 48.9473C125.6 48.9494 125.098 49.17 124.662 49.6091L122.551 49.2341C123.187 47.94 124.508 47.2893 126.513 47.2819C127.888 47.2768 128.868 47.5571 129.453 48.1226C130.044 48.6829 130.342 49.5542 130.346 50.7365ZM126.101 54.1741C126.569 54.1724 127.118 53.8891 127.746 53.3243L127.743 52.5899C127.179 52.2274 126.663 52.047 126.194 52.0487C125.819 52.0501 125.533 52.1397 125.336 52.3176C125.139 52.4954 125.041 52.7483 125.042 53.0765C125.045 53.8108 125.398 54.1767 126.101 54.1741ZM138.7 47.2369C139.403 47.2343 140.026 47.4273 140.57 47.8159C141.118 48.1993 141.539 48.7159 141.833 49.3659C142.132 50.0158 142.283 50.721 142.286 51.4814C142.289 52.2471 142.146 52.9585 141.857 53.6158C141.573 54.2732 141.166 54.7955 140.636 55.1829C140.111 55.565 139.503 55.7574 138.81 55.7599C137.945 55.7631 137.144 55.4093 136.407 54.6985L136.411 55.6438L132.38 55.6587L132.373 53.7681L133.795 53.7628L133.765 45.7629L132.343 45.7682L132.336 43.8854L136.367 43.8705L136.384 48.3782C137.043 47.6206 137.815 47.2401 138.7 47.2369ZM138.005 53.7317C138.505 53.7298 138.895 53.5226 139.175 53.1101C139.46 52.6924 139.601 52.1398 139.599 51.4523C139.596 50.77 139.451 50.2523 139.163 49.8992C138.881 49.5409 138.495 49.3626 138.005 49.3644C137.495 49.3663 137.094 49.5709 136.804 49.9783C136.519 50.3856 136.378 50.9252 136.38 51.597C136.383 52.2272 136.53 52.7423 136.824 53.1423C137.122 53.537 137.516 53.7335 138.005 53.7317ZM147.974 53.7104L147.981 55.601L142.911 55.6198L142.904 53.7292L144.185 53.7244L144.156 45.7245L142.874 45.7292L142.867 43.8464L146.774 43.832L146.81 53.7147L147.974 53.7104ZM157.28 52.0119L151.156 52.0346C151.22 52.6646 151.438 53.1638 151.809 53.5322C152.186 53.8954 152.668 54.0759 153.257 54.0737C153.908 54.0713 154.542 53.746 155.159 53.0979L157.193 53.7466C156.748 54.4202 156.195 54.9274 155.535 55.2684C154.874 55.6042 154.091 55.7738 153.185 55.7771C152.279 55.7805 151.476 55.6141 150.777 55.2782C150.083 54.937 149.542 54.4546 149.154 53.8311C148.772 53.2075 148.579 52.4738 148.576 51.6301C148.573 50.7967 148.768 50.0408 149.161 49.3622C149.56 48.6837 150.097 48.1531 150.773 47.7703C151.453 47.3824 152.192 47.187 152.989 47.184C153.854 47.1808 154.607 47.3786 155.249 47.7772C155.891 48.1707 156.386 48.734 156.732 49.4671C157.084 50.1949 157.266 51.0432 157.28 52.0119ZM152.871 48.9267C152.402 48.9284 152.025 49.0652 151.739 49.3371C151.459 49.609 151.283 50.0237 151.213 50.5812L154.634 50.5686C154.56 50.0793 154.358 49.6842 154.029 49.3833C153.704 49.0772 153.319 48.925 152.871 48.9267Z" fill="#5A5454"/>
<path d="M135.1 190.875H90.55L80.65 181H55.9C50.455 181 46 185.444 46 190.875V250.125C46 255.556 50.455 260 55.9 260H135.1C140.545 260 145 255.556 145 250.125V200.75C145 195.319 140.545 190.875 135.1 190.875Z" fill="#285477"/>
<path d="M70.9238 210.098V209.736H73.2578V212.744H70.9238C70.722 212.021 69.9733 211.66 68.6777 211.66C67.7467 211.66 67.2812 211.921 67.2812 212.441C67.2812 212.669 67.4049 212.839 67.6523 212.949C67.8997 213.06 68.2611 213.151 68.7363 213.223C70.071 213.392 71.1224 213.636 71.8906 213.955C72.6589 214.268 73.196 214.658 73.502 215.127C73.8079 215.589 73.9609 216.152 73.9609 216.816C73.9609 217.897 73.5898 218.74 72.8477 219.346C72.112 219.945 71.1094 220.244 69.8398 220.244C68.6029 220.244 67.763 219.997 67.3203 219.502V220H64.9375V216.465H67.3203C67.3854 216.953 67.6198 217.337 68.0234 217.617C68.4336 217.897 68.9382 218.037 69.5371 218.037C70.123 218.037 70.556 217.972 70.8359 217.842C71.1159 217.705 71.2559 217.471 71.2559 217.139C71.2559 216.911 71.1973 216.735 71.0801 216.611C70.9629 216.481 70.735 216.367 70.3965 216.27C70.0645 216.172 69.5534 216.061 68.8633 215.938C67.3268 215.697 66.2201 215.309 65.543 214.775C64.8724 214.235 64.5371 213.509 64.5371 212.598C64.5371 211.667 64.8854 210.934 65.582 210.4C66.2852 209.867 67.2096 209.6 68.3555 209.6C69.2799 209.6 70.1361 209.766 70.9238 210.098ZM80.2109 206.816C80.2109 207.337 80.0319 207.77 79.6738 208.115C79.3223 208.454 78.9023 208.623 78.4141 208.623C77.9193 208.623 77.4928 208.447 77.1348 208.096C76.7832 207.738 76.6074 207.311 76.6074 206.816C76.6074 206.328 76.7832 205.908 77.1348 205.557C77.4928 205.199 77.9193 205.02 78.4141 205.02C78.9023 205.02 79.3223 205.199 79.6738 205.557C80.0319 205.908 80.2109 206.328 80.2109 206.816ZM81.5293 217.637V220H75.1914V217.637H76.7539V212.139H75.1914V209.736H80.0059V217.637H81.5293ZM88.1309 209.736V212.139H86.2363V216.621C86.2363 216.94 86.2982 217.181 86.4219 217.344C86.5456 217.5 86.7767 217.578 87.1152 217.578C87.3952 217.578 87.7337 217.507 88.1309 217.363V219.639C87.252 219.984 86.4251 220.156 85.6504 220.156C84.7585 220.156 84.0879 219.932 83.6387 219.482C83.196 219.027 82.9746 218.385 82.9746 217.559V212.139H81.6758V209.736H82.9746V208.145L86.2363 205.801V209.736H88.1309ZM100.191 215.557H92.5352C92.6133 216.344 92.8835 216.969 93.3457 217.432C93.8145 217.887 94.4167 218.115 95.1523 218.115C95.9661 218.115 96.7604 217.712 97.5352 216.904L100.074 217.725C99.5143 218.564 98.821 219.196 97.9941 219.619C97.1673 220.036 96.1875 220.244 95.0547 220.244C93.9219 220.244 92.9193 220.033 92.0469 219.609C91.181 219.18 90.5072 218.574 90.0254 217.793C89.5501 217.012 89.3125 216.094 89.3125 215.039C89.3125 213.997 89.5599 213.053 90.0547 212.207C90.556 211.361 91.2298 210.7 92.0762 210.225C92.929 209.743 93.8535 209.502 94.8496 209.502C95.9303 209.502 96.8711 209.753 97.6719 210.254C98.4727 210.749 99.0879 211.455 99.5176 212.373C99.9538 213.285 100.178 214.346 100.191 215.557ZM94.6934 211.68C94.1074 211.68 93.6354 211.849 93.2773 212.188C92.9258 212.526 92.7044 213.044 92.6133 213.74H96.8906C96.7995 213.128 96.5488 212.633 96.1387 212.256C95.735 211.872 95.2533 211.68 94.6934 211.68ZM116.305 217.48V220H108.805V217.48H110.826V207.803H108.668V205.283H114.41V217.48H116.305ZM73.0625 234.596V233.736H75.2988V237.896H72.9844C72.4375 236.764 71.6042 236.197 70.4844 236.197C69.8008 236.197 69.2344 236.448 68.7852 236.949C68.3424 237.451 68.1211 238.076 68.1211 238.824C68.1211 239.651 68.3327 240.331 68.7559 240.865C69.1855 241.393 69.7552 241.656 70.4648 241.656C70.9792 241.656 71.4674 241.513 71.9297 241.227C72.3919 240.94 72.7695 240.536 73.0625 240.016L75.6016 241.139C75.0417 242.193 74.3678 242.975 73.5801 243.482C72.7923 243.99 71.7311 244.244 70.3965 244.244C68.6647 244.244 67.291 243.772 66.2754 242.828C65.2663 241.878 64.7617 240.562 64.7617 238.883C64.7617 237.88 64.9928 236.979 65.4551 236.178C65.9238 235.377 66.5553 234.749 67.3496 234.293C68.1439 233.831 69.013 233.6 69.957 233.6C71.0378 233.6 72.0729 233.932 73.0625 234.596ZM87.6328 238.863C87.6328 239.885 87.3919 240.807 86.9102 241.627C86.4284 242.447 85.7773 243.089 84.957 243.551C84.1367 244.013 83.235 244.244 82.252 244.244C81.2103 244.244 80.2793 244.013 79.459 243.551C78.6387 243.089 77.9974 242.447 77.5352 241.627C77.0794 240.807 76.8516 239.885 76.8516 238.863C76.8516 237.848 77.0859 236.933 77.5547 236.119C78.0299 235.305 78.681 234.667 79.5078 234.205C80.3346 233.736 81.2493 233.502 82.252 233.502C83.2741 233.502 84.1953 233.736 85.0156 234.205C85.8359 234.667 86.4772 235.305 86.9395 236.119C87.4017 236.933 87.6328 237.848 87.6328 238.863ZM82.2324 241.695C82.8704 241.695 83.3685 241.448 83.7266 240.953C84.0911 240.452 84.2734 239.736 84.2734 238.805C84.2734 237.932 84.0911 237.252 83.7266 236.764C83.3685 236.269 82.8639 236.021 82.2129 236.021C81.5553 236.021 81.0573 236.266 80.7188 236.754C80.3802 237.236 80.2109 237.965 80.2109 238.941C80.2109 239.768 80.3932 240.436 80.7578 240.943C81.1289 241.445 81.6204 241.695 82.2324 241.695ZM99.7617 237.457V241.637H101.305V244H96.4805V237.721C96.4805 237.239 96.4056 236.891 96.2559 236.676C96.1126 236.454 95.8685 236.344 95.5234 236.344C94.8984 236.344 94.2702 236.568 93.6387 237.018V241.637H95.2402V244H88.8242V241.637H90.3867V236.139H88.8242V233.736H93.6387V234.703C94.6152 233.967 95.6178 233.6 96.6465 233.6C97.6686 233.6 98.4434 233.925 98.9707 234.576C99.498 235.221 99.7617 236.181 99.7617 237.457ZM104.049 233.736V233.102C104.049 231.715 104.511 230.689 105.436 230.025C106.367 229.355 107.551 229.02 108.99 229.02C110.208 229.02 111.184 229.241 111.92 229.684C112.662 230.12 113.147 230.771 113.375 231.637L110.152 231.998C109.977 231.438 109.505 231.158 108.736 231.158C108.294 231.158 107.942 231.288 107.682 231.549C107.421 231.809 107.291 232.333 107.291 233.121V233.736H113.395V241.637H115.035V244H109.117V241.637H110.133V236.139H107.291V241.637H108.375V244H102.438V241.637H104.049V236.139H102.438V233.736H104.049ZM123.199 234.996V233.736H128.15V236.139H126.451V243.805C126.451 245.413 126.012 246.64 125.133 247.486C124.254 248.333 122.9 248.756 121.07 248.756C119.046 248.756 117.535 248.385 116.539 247.643L118.131 245.484C118.971 245.999 119.798 246.256 120.611 246.256C121.295 246.256 121.822 246.152 122.193 245.943C122.571 245.742 122.831 245.426 122.975 244.996C123.124 244.573 123.199 244 123.199 243.277V242.721C122.118 243.678 121.07 244.156 120.055 244.156C119.215 244.156 118.469 243.935 117.818 243.492C117.174 243.043 116.676 242.418 116.324 241.617C115.973 240.816 115.797 239.898 115.797 238.863C115.797 237.848 115.982 236.939 116.354 236.139C116.731 235.338 117.262 234.716 117.945 234.273C118.629 233.824 119.391 233.6 120.23 233.6C121.448 233.6 122.438 234.065 123.199 234.996ZM121.158 241.5C121.757 241.5 122.249 241.272 122.633 240.816C123.023 240.354 123.219 239.716 123.219 238.902C123.219 238.076 123.033 237.424 122.662 236.949C122.298 236.474 121.796 236.236 121.158 236.236C120.54 236.236 120.051 236.48 119.693 236.969C119.335 237.457 119.156 238.095 119.156 238.883C119.156 239.638 119.335 240.263 119.693 240.758C120.051 241.253 120.54 241.5 121.158 241.5Z" fill="#F2F2F2"/>
<path d="M262.1 190.875H217.55L207.65 181H182.9C177.455 181 173 185.444 173 190.875V250.125C173 255.556 177.455 260 182.9 260H262.1C267.545 260 272 255.556 272 250.125V200.75C272 195.319 267.545 190.875 262.1 190.875Z" fill="#285477"/>
<path d="M197.924 210.098V209.736H200.258V212.744H197.924C197.722 212.021 196.973 211.66 195.678 211.66C194.747 211.66 194.281 211.921 194.281 212.441C194.281 212.669 194.405 212.839 194.652 212.949C194.9 213.06 195.261 213.151 195.736 213.223C197.071 213.392 198.122 213.636 198.891 213.955C199.659 214.268 200.196 214.658 200.502 215.127C200.808 215.589 200.961 216.152 200.961 216.816C200.961 217.897 200.59 218.74 199.848 219.346C199.112 219.945 198.109 220.244 196.84 220.244C195.603 220.244 194.763 219.997 194.32 219.502V220H191.938V216.465H194.32C194.385 216.953 194.62 217.337 195.023 217.617C195.434 217.897 195.938 218.037 196.537 218.037C197.123 218.037 197.556 217.972 197.836 217.842C198.116 217.705 198.256 217.471 198.256 217.139C198.256 216.911 198.197 216.735 198.08 216.611C197.963 216.481 197.735 216.367 197.396 216.27C197.064 216.172 196.553 216.061 195.863 215.938C194.327 215.697 193.22 215.309 192.543 214.775C191.872 214.235 191.537 213.509 191.537 212.598C191.537 211.667 191.885 210.934 192.582 210.4C193.285 209.867 194.21 209.6 195.355 209.6C196.28 209.6 197.136 209.766 197.924 210.098ZM207.211 206.816C207.211 207.337 207.032 207.77 206.674 208.115C206.322 208.454 205.902 208.623 205.414 208.623C204.919 208.623 204.493 208.447 204.135 208.096C203.783 207.738 203.607 207.311 203.607 206.816C203.607 206.328 203.783 205.908 204.135 205.557C204.493 205.199 204.919 205.02 205.414 205.02C205.902 205.02 206.322 205.199 206.674 205.557C207.032 205.908 207.211 206.328 207.211 206.816ZM208.529 217.637V220H202.191V217.637H203.754V212.139H202.191V209.736H207.006V217.637H208.529ZM215.131 209.736V212.139H213.236V216.621C213.236 216.94 213.298 217.181 213.422 217.344C213.546 217.5 213.777 217.578 214.115 217.578C214.395 217.578 214.734 217.507 215.131 217.363V219.639C214.252 219.984 213.425 220.156 212.65 220.156C211.758 220.156 211.088 219.932 210.639 219.482C210.196 219.027 209.975 218.385 209.975 217.559V212.139H208.676V209.736H209.975V208.145L213.236 205.801V209.736H215.131ZM227.191 215.557H219.535C219.613 216.344 219.883 216.969 220.346 217.432C220.814 217.887 221.417 218.115 222.152 218.115C222.966 218.115 223.76 217.712 224.535 216.904L227.074 217.725C226.514 218.564 225.821 219.196 224.994 219.619C224.167 220.036 223.188 220.244 222.055 220.244C220.922 220.244 219.919 220.033 219.047 219.609C218.181 219.18 217.507 218.574 217.025 217.793C216.55 217.012 216.312 216.094 216.312 215.039C216.312 213.997 216.56 213.053 217.055 212.207C217.556 211.361 218.23 210.7 219.076 210.225C219.929 209.743 220.854 209.502 221.85 209.502C222.93 209.502 223.871 209.753 224.672 210.254C225.473 210.749 226.088 211.455 226.518 212.373C226.954 213.285 227.178 214.346 227.191 215.557ZM221.693 211.68C221.107 211.68 220.635 211.849 220.277 212.188C219.926 212.526 219.704 213.044 219.613 213.74H223.891C223.799 213.128 223.549 212.633 223.139 212.256C222.735 211.872 222.253 211.68 221.693 211.68ZM244.77 209.16C244.77 209.909 244.6 210.56 244.262 211.113C243.93 211.667 243.48 212.171 242.914 212.627C242.348 213.076 241.524 213.626 240.443 214.277C238.686 215.358 237.712 216.426 237.523 217.48H241.967V215.576H244.945L244.77 220H234.047C234.047 218.691 234.203 217.614 234.516 216.768C234.828 215.921 235.32 215.146 235.99 214.443C236.667 213.734 237.66 212.894 238.969 211.924C239.659 211.416 240.183 210.924 240.541 210.449C240.906 209.974 241.088 209.486 241.088 208.984C241.088 208.49 240.945 208.115 240.658 207.861C240.372 207.607 239.962 207.48 239.428 207.48C238.738 207.48 238.223 207.721 237.885 208.203C237.553 208.678 237.354 209.456 237.289 210.537L234.232 210.42C234.271 208.604 234.737 207.249 235.629 206.357C236.521 205.465 237.855 205.02 239.633 205.02C241.228 205.02 242.481 205.387 243.393 206.123C244.311 206.852 244.77 207.865 244.77 209.16ZM200.062 234.596V233.736H202.299V237.896H199.984C199.438 236.764 198.604 236.197 197.484 236.197C196.801 236.197 196.234 236.448 195.785 236.949C195.342 237.451 195.121 238.076 195.121 238.824C195.121 239.651 195.333 240.331 195.756 240.865C196.186 241.393 196.755 241.656 197.465 241.656C197.979 241.656 198.467 241.513 198.93 241.227C199.392 240.94 199.77 240.536 200.062 240.016L202.602 241.139C202.042 242.193 201.368 242.975 200.58 243.482C199.792 243.99 198.731 244.244 197.396 244.244C195.665 244.244 194.291 243.772 193.275 242.828C192.266 241.878 191.762 240.562 191.762 238.883C191.762 237.88 191.993 236.979 192.455 236.178C192.924 235.377 193.555 234.749 194.35 234.293C195.144 233.831 196.013 233.6 196.957 233.6C198.038 233.6 199.073 233.932 200.062 234.596ZM214.633 238.863C214.633 239.885 214.392 240.807 213.91 241.627C213.428 242.447 212.777 243.089 211.957 243.551C211.137 244.013 210.235 244.244 209.252 244.244C208.21 244.244 207.279 244.013 206.459 243.551C205.639 243.089 204.997 242.447 204.535 241.627C204.079 240.807 203.852 239.885 203.852 238.863C203.852 237.848 204.086 236.933 204.555 236.119C205.03 235.305 205.681 234.667 206.508 234.205C207.335 233.736 208.249 233.502 209.252 233.502C210.274 233.502 211.195 233.736 212.016 234.205C212.836 234.667 213.477 235.305 213.939 236.119C214.402 236.933 214.633 237.848 214.633 238.863ZM209.232 241.695C209.87 241.695 210.368 241.448 210.727 240.953C211.091 240.452 211.273 239.736 211.273 238.805C211.273 237.932 211.091 237.252 210.727 236.764C210.368 236.269 209.864 236.021 209.213 236.021C208.555 236.021 208.057 236.266 207.719 236.754C207.38 237.236 207.211 237.965 207.211 238.941C207.211 239.768 207.393 240.436 207.758 240.943C208.129 241.445 208.62 241.695 209.232 241.695ZM226.762 237.457V241.637H228.305V244H223.48V237.721C223.48 237.239 223.406 236.891 223.256 236.676C223.113 236.454 222.868 236.344 222.523 236.344C221.898 236.344 221.27 236.568 220.639 237.018V241.637H222.24V244H215.824V241.637H217.387V236.139H215.824V233.736H220.639V234.703C221.615 233.967 222.618 233.6 223.646 233.6C224.669 233.6 225.443 233.925 225.971 234.576C226.498 235.221 226.762 236.181 226.762 237.457ZM231.049 233.736V233.102C231.049 231.715 231.511 230.689 232.436 230.025C233.367 229.355 234.551 229.02 235.99 229.02C237.208 229.02 238.184 229.241 238.92 229.684C239.662 230.12 240.147 230.771 240.375 231.637L237.152 231.998C236.977 231.438 236.505 231.158 235.736 231.158C235.294 231.158 234.942 231.288 234.682 231.549C234.421 231.809 234.291 232.333 234.291 233.121V233.736H240.395V241.637H242.035V244H236.117V241.637H237.133V236.139H234.291V241.637H235.375V244H229.438V241.637H231.049V236.139H229.438V233.736H231.049ZM250.199 234.996V233.736H255.15V236.139H253.451V243.805C253.451 245.413 253.012 246.64 252.133 247.486C251.254 248.333 249.9 248.756 248.07 248.756C246.046 248.756 244.535 248.385 243.539 247.643L245.131 245.484C245.971 245.999 246.798 246.256 247.611 246.256C248.295 246.256 248.822 246.152 249.193 245.943C249.571 245.742 249.831 245.426 249.975 244.996C250.124 244.573 250.199 244 250.199 243.277V242.721C249.118 243.678 248.07 244.156 247.055 244.156C246.215 244.156 245.469 243.935 244.818 243.492C244.174 243.043 243.676 242.418 243.324 241.617C242.973 240.816 242.797 239.898 242.797 238.863C242.797 237.848 242.982 236.939 243.354 236.139C243.731 235.338 244.262 234.716 244.945 234.273C245.629 233.824 246.391 233.6 247.23 233.6C248.448 233.6 249.438 234.065 250.199 234.996ZM248.158 241.5C248.757 241.5 249.249 241.272 249.633 240.816C250.023 240.354 250.219 239.716 250.219 238.902C250.219 238.076 250.033 237.424 249.662 236.949C249.298 236.474 248.796 236.236 248.158 236.236C247.54 236.236 247.051 236.48 246.693 236.969C246.335 237.457 246.156 238.095 246.156 238.883C246.156 239.638 246.335 240.263 246.693 240.758C247.051 241.253 247.54 241.5 248.158 241.5Z" fill="#F2F2F2"/>
<path d="M396.1 190.875H351.55L341.65 181H316.9C311.455 181 307 185.444 307 190.875V250.125C307 255.556 311.455 260 316.9 260H396.1C401.545 260 406 255.556 406 250.125V200.75C406 195.319 401.545 190.875 396.1 190.875Z" fill="#285477"/>
<path d="M331.924 210.098V209.736H334.258V212.744H331.924C331.722 212.021 330.973 211.66 329.678 211.66C328.747 211.66 328.281 211.921 328.281 212.441C328.281 212.669 328.405 212.839 328.652 212.949C328.9 213.06 329.261 213.151 329.736 213.223C331.071 213.392 332.122 213.636 332.891 213.955C333.659 214.268 334.196 214.658 334.502 215.127C334.808 215.589 334.961 216.152 334.961 216.816C334.961 217.897 334.59 218.74 333.848 219.346C333.112 219.945 332.109 220.244 330.84 220.244C329.603 220.244 328.763 219.997 328.32 219.502V220H325.938V216.465H328.32C328.385 216.953 328.62 217.337 329.023 217.617C329.434 217.897 329.938 218.037 330.537 218.037C331.123 218.037 331.556 217.972 331.836 217.842C332.116 217.705 332.256 217.471 332.256 217.139C332.256 216.911 332.197 216.735 332.08 216.611C331.963 216.481 331.735 216.367 331.396 216.27C331.064 216.172 330.553 216.061 329.863 215.938C328.327 215.697 327.22 215.309 326.543 214.775C325.872 214.235 325.537 213.509 325.537 212.598C325.537 211.667 325.885 210.934 326.582 210.4C327.285 209.867 328.21 209.6 329.355 209.6C330.28 209.6 331.136 209.766 331.924 210.098ZM341.211 206.816C341.211 207.337 341.032 207.77 340.674 208.115C340.322 208.454 339.902 208.623 339.414 208.623C338.919 208.623 338.493 208.447 338.135 208.096C337.783 207.738 337.607 207.311 337.607 206.816C337.607 206.328 337.783 205.908 338.135 205.557C338.493 205.199 338.919 205.02 339.414 205.02C339.902 205.02 340.322 205.199 340.674 205.557C341.032 205.908 341.211 206.328 341.211 206.816ZM342.529 217.637V220H336.191V217.637H337.754V212.139H336.191V209.736H341.006V217.637H342.529ZM349.131 209.736V212.139H347.236V216.621C347.236 216.94 347.298 217.181 347.422 217.344C347.546 217.5 347.777 217.578 348.115 217.578C348.395 217.578 348.734 217.507 349.131 217.363V219.639C348.252 219.984 347.425 220.156 346.65 220.156C345.758 220.156 345.088 219.932 344.639 219.482C344.196 219.027 343.975 218.385 343.975 217.559V212.139H342.676V209.736H343.975V208.145L347.236 205.801V209.736H349.131ZM361.191 215.557H353.535C353.613 216.344 353.883 216.969 354.346 217.432C354.814 217.887 355.417 218.115 356.152 218.115C356.966 218.115 357.76 217.712 358.535 216.904L361.074 217.725C360.514 218.564 359.821 219.196 358.994 219.619C358.167 220.036 357.188 220.244 356.055 220.244C354.922 220.244 353.919 220.033 353.047 219.609C352.181 219.18 351.507 218.574 351.025 217.793C350.55 217.012 350.312 216.094 350.312 215.039C350.312 213.997 350.56 213.053 351.055 212.207C351.556 211.361 352.23 210.7 353.076 210.225C353.929 209.743 354.854 209.502 355.85 209.502C356.93 209.502 357.871 209.753 358.672 210.254C359.473 210.749 360.088 211.455 360.518 212.373C360.954 213.285 361.178 214.346 361.191 215.557ZM355.693 211.68C355.107 211.68 354.635 211.849 354.277 212.188C353.926 212.526 353.704 213.044 353.613 213.74H357.891C357.799 213.128 357.549 212.633 357.139 212.256C356.735 211.872 356.253 211.68 355.693 211.68ZM378.408 208.965C378.408 210.443 377.669 211.527 376.191 212.217C378.04 212.848 378.965 214.017 378.965 215.723C378.965 216.602 378.727 217.383 378.252 218.066C377.783 218.743 377.129 219.268 376.289 219.639C375.449 220.01 374.502 220.195 373.447 220.195C369.925 220.195 368.037 218.59 367.783 215.381L370.986 215.117C370.999 216.836 371.706 217.695 373.105 217.695C373.75 217.695 374.274 217.493 374.678 217.09C375.081 216.686 375.283 216.188 375.283 215.596C375.283 214.984 375.068 214.489 374.639 214.111C374.215 213.727 373.613 213.535 372.832 213.535C372.708 213.535 372.435 213.551 372.012 213.584V210.898C372.917 210.885 373.623 210.726 374.131 210.42C374.639 210.114 374.893 209.674 374.893 209.102C374.893 208.646 374.72 208.275 374.375 207.988C374.036 207.702 373.607 207.559 373.086 207.559C371.914 207.559 371.328 208.213 371.328 209.521L368.232 209.258C368.337 207.923 368.838 206.885 369.736 206.143C370.635 205.394 371.82 205.02 373.291 205.02C374.847 205.02 376.087 205.374 377.012 206.084C377.943 206.787 378.408 207.747 378.408 208.965ZM334.062 234.596V233.736H336.299V237.896H333.984C333.438 236.764 332.604 236.197 331.484 236.197C330.801 236.197 330.234 236.448 329.785 236.949C329.342 237.451 329.121 238.076 329.121 238.824C329.121 239.651 329.333 240.331 329.756 240.865C330.186 241.393 330.755 241.656 331.465 241.656C331.979 241.656 332.467 241.513 332.93 241.227C333.392 240.94 333.77 240.536 334.062 240.016L336.602 241.139C336.042 242.193 335.368 242.975 334.58 243.482C333.792 243.99 332.731 244.244 331.396 244.244C329.665 244.244 328.291 243.772 327.275 242.828C326.266 241.878 325.762 240.562 325.762 238.883C325.762 237.88 325.993 236.979 326.455 236.178C326.924 235.377 327.555 234.749 328.35 234.293C329.144 233.831 330.013 233.6 330.957 233.6C332.038 233.6 333.073 233.932 334.062 234.596ZM348.633 238.863C348.633 239.885 348.392 240.807 347.91 241.627C347.428 242.447 346.777 243.089 345.957 243.551C345.137 244.013 344.235 244.244 343.252 244.244C342.21 244.244 341.279 244.013 340.459 243.551C339.639 243.089 338.997 242.447 338.535 241.627C338.079 240.807 337.852 239.885 337.852 238.863C337.852 237.848 338.086 236.933 338.555 236.119C339.03 235.305 339.681 234.667 340.508 234.205C341.335 233.736 342.249 233.502 343.252 233.502C344.274 233.502 345.195 233.736 346.016 234.205C346.836 234.667 347.477 235.305 347.939 236.119C348.402 236.933 348.633 237.848 348.633 238.863ZM343.232 241.695C343.87 241.695 344.368 241.448 344.727 240.953C345.091 240.452 345.273 239.736 345.273 238.805C345.273 237.932 345.091 237.252 344.727 236.764C344.368 236.269 343.864 236.021 343.213 236.021C342.555 236.021 342.057 236.266 341.719 236.754C341.38 237.236 341.211 237.965 341.211 238.941C341.211 239.768 341.393 240.436 341.758 240.943C342.129 241.445 342.62 241.695 343.232 241.695ZM360.762 237.457V241.637H362.305V244H357.48V237.721C357.48 237.239 357.406 236.891 357.256 236.676C357.113 236.454 356.868 236.344 356.523 236.344C355.898 236.344 355.27 236.568 354.639 237.018V241.637H356.24V244H349.824V241.637H351.387V236.139H349.824V233.736H354.639V234.703C355.615 233.967 356.618 233.6 357.646 233.6C358.669 233.6 359.443 233.925 359.971 234.576C360.498 235.221 360.762 236.181 360.762 237.457ZM365.049 233.736V233.102C365.049 231.715 365.511 230.689 366.436 230.025C367.367 229.355 368.551 229.02 369.99 229.02C371.208 229.02 372.184 229.241 372.92 229.684C373.662 230.12 374.147 230.771 374.375 231.637L371.152 231.998C370.977 231.438 370.505 231.158 369.736 231.158C369.294 231.158 368.942 231.288 368.682 231.549C368.421 231.809 368.291 232.333 368.291 233.121V233.736H374.395V241.637H376.035V244H370.117V241.637H371.133V236.139H368.291V241.637H369.375V244H363.438V241.637H365.049V236.139H363.438V233.736H365.049ZM384.199 234.996V233.736H389.15V236.139H387.451V243.805C387.451 245.413 387.012 246.64 386.133 247.486C385.254 248.333 383.9 248.756 382.07 248.756C380.046 248.756 378.535 248.385 377.539 247.643L379.131 245.484C379.971 245.999 380.798 246.256 381.611 246.256C382.295 246.256 382.822 246.152 383.193 245.943C383.571 245.742 383.831 245.426 383.975 244.996C384.124 244.573 384.199 244 384.199 243.277V242.721C383.118 243.678 382.07 244.156 381.055 244.156C380.215 244.156 379.469 243.935 378.818 243.492C378.174 243.043 377.676 242.418 377.324 241.617C376.973 240.816 376.797 239.898 376.797 238.863C376.797 237.848 376.982 236.939 377.354 236.139C377.731 235.338 378.262 234.716 378.945 234.273C379.629 233.824 380.391 233.6 381.23 233.6C382.448 233.6 383.438 234.065 384.199 234.996ZM382.158 241.5C382.757 241.5 383.249 241.272 383.633 240.816C384.023 240.354 384.219 239.716 384.219 238.902C384.219 238.076 384.033 237.424 383.662 236.949C383.298 236.474 382.796 236.236 382.158 236.236C381.54 236.236 381.051 236.48 380.693 236.969C380.335 237.457 380.156 238.095 380.156 238.883C380.156 239.638 380.335 240.263 380.693 240.758C381.051 241.253 381.54 241.5 382.158 241.5Z" fill="#F2F2F2"/>
<path d="M254.196 464.053C254.196 462.643 254.664 460.763 254.664 459.353C254.664 457.943 254.664 456.063 254.196 454.653L264.022 447.603C264.958 447.133 265.426 445.723 264.49 444.313L255.132 427.863C254.664 426.453 253.26 425.983 252.324 426.453L241.095 431.623C238.755 429.743 235.48 427.863 232.672 426.923L231.269 414.703C231.269 413.293 230.333 412.353 228.929 412.353H210.213C208.809 412.353 207.873 413.293 207.873 414.703L206.47 426.453C203.194 427.863 200.387 429.273 198.047 431.153L186.818 426.453C185.882 425.983 184.478 426.453 184.01 427.393L174.652 443.843C173.716 445.253 173.716 446.663 175.12 447.133L184.946 454.653C184.946 456.063 184.478 457.943 184.478 459.353C184.478 460.763 184.478 462.643 184.946 464.053L175.12 471.103C174.184 471.573 173.716 472.983 174.652 474.393L184.01 490.843C184.478 492.253 185.882 492.723 186.818 492.253L198.047 487.083C200.387 488.963 203.662 490.843 206.47 491.783L207.873 504.003C207.873 505.413 208.809 506.353 210.213 506.353H228.929C230.333 506.353 231.269 505.413 231.269 504.003L232.672 491.783C235.948 490.373 238.755 488.963 241.095 487.083L252.324 492.253C253.26 492.723 254.664 492.253 255.132 491.313L264.49 474.863C264.958 473.923 264.958 472.513 264.022 471.573L254.196 464.053ZM219.571 478.153C209.277 478.153 200.855 469.693 200.855 459.353C200.855 449.013 209.277 440.553 219.571 440.553C229.865 440.553 238.287 449.013 238.287 459.353C238.287 469.693 229.865 478.153 219.571 478.153Z" fill="#285477"/>
<path d="M277.027 402.072C277.436 401.205 278.269 400.183 278.678 399.316C279.087 398.448 279.632 397.291 279.753 396.287L287.845 394.798C288.557 394.78 289.254 394.048 289.087 392.909L288.098 380.071C288.218 379.068 287.491 378.372 286.779 378.39L278.368 378.315C277.474 376.48 276.003 374.373 274.548 372.98L277.227 365.053C277.636 364.185 277.333 363.335 276.469 362.928L264.95 357.501C264.087 357.094 263.238 357.401 262.829 358.269L258.558 365.093C256.134 365.011 253.997 365.065 252.012 365.543L246.464 359.394C246.024 358.834 245.024 358.716 244.463 359.159L233.934 366.569C232.949 367.165 232.54 368.033 233.268 368.73L237.135 376.207C236.726 377.075 235.893 378.096 235.484 378.964C235.075 379.831 234.53 380.988 234.409 381.992L226.317 383.481C225.605 383.499 224.908 384.231 225.075 385.371L226.065 398.208C225.944 399.211 226.671 399.908 227.383 399.89L235.794 399.964C236.688 401.8 238.159 403.907 239.614 405.299L236.935 413.227C236.526 414.094 236.829 414.944 237.693 415.351L249.212 420.779C250.075 421.186 250.924 420.878 251.333 420.011L255.74 412.897C258.165 412.979 260.301 412.925 262.286 412.447L267.698 418.885C268.138 419.446 269.138 419.563 269.699 419.121L280.228 411.71C280.789 411.267 281.197 410.4 280.894 409.55L277.027 402.072ZM251.63 400.71C245.294 397.725 242.564 390.076 245.562 383.712C248.561 377.349 256.197 374.585 262.533 377.57C268.868 380.555 271.598 388.203 268.6 394.567C265.601 400.93 257.965 403.695 251.63 400.71Z" fill="#285477"/>
<path d="M290.853 51.8035C292.401 50.2278 292.379 47.6952 290.804 46.1469L265.125 20.9153C263.55 19.367 261.017 19.3892 259.469 20.9649C257.92 22.5407 257.943 25.0732 259.518 26.6216L282.343 49.0496L259.915 71.8746C258.367 73.4504 258.389 75.9829 259.965 77.5313C261.541 79.0796 264.073 79.0574 265.622 77.4817L290.853 51.8035ZM174.035 53.9998L288.035 52.9998L287.965 45.0002L173.965 46.0002L174.035 53.9998Z" fill="#285477"/>
<path d="M225.124 161.01C224.578 163.151 225.87 165.329 228.01 165.876L262.892 174.781C265.032 175.328 267.21 174.036 267.757 171.895C268.303 169.755 267.011 167.577 264.871 167.03L233.865 159.114L241.781 128.108C242.328 125.968 241.036 123.79 238.895 123.243C236.755 122.697 234.577 123.989 234.03 126.129L225.124 161.01ZM285.959 123.56L226.959 158.56L231.041 165.44L290.041 130.44L285.959 123.56Z" fill="#285477"/>
<path d="M219.129 586.785C220.667 588.371 223.2 588.409 224.785 586.871L250.624 561.804C252.209 560.265 252.248 557.733 250.71 556.147C249.171 554.562 246.639 554.524 245.053 556.062L222.086 578.344L199.804 555.376C198.265 553.791 195.733 553.752 194.147 555.29C192.562 556.829 192.524 559.361 194.062 560.947L219.129 586.785ZM219 517.939L218 583.939L226 584.061L227 518.061L219 517.939Z" fill="#285477"/>
<path d="M220.129 339.785C221.667 341.371 224.2 341.409 225.785 339.871L251.624 314.804C253.209 313.265 253.248 310.733 251.71 309.147C250.171 307.562 247.639 307.524 246.053 309.062L223.086 331.344L200.804 308.376C199.265 306.791 196.733 306.752 195.147 308.29C193.562 309.829 193.524 312.361 195.062 313.947L220.129 339.785ZM220 270.939L219 336.939L227 337.061L228 271.061L220 270.939Z" fill="#285477"/>
<path d="M317.441 92.6114L317.439 91.9669L319.116 91.9604L319.127 95.0805L317.391 95.0872C316.978 94.2392 316.351 93.8168 315.512 93.82C314.999 93.822 314.575 94.0116 314.239 94.3889C313.909 94.7662 313.744 95.2356 313.746 95.7971C313.748 96.4172 313.909 96.9268 314.228 97.326C314.551 97.7203 314.979 97.9164 315.511 97.9143C315.897 97.9128 316.263 97.804 316.609 97.5878C316.955 97.3716 317.237 97.0678 317.455 96.6763L319.363 97.5112C318.945 98.3039 318.442 98.8918 317.853 99.2749C317.263 99.658 316.468 99.8515 315.467 99.8554C314.168 99.8604 313.137 99.5104 312.373 98.8053C311.613 98.0954 311.231 97.1105 311.227 95.8508C311.224 95.0988 311.395 94.4219 311.74 93.82C312.089 93.218 312.561 92.745 313.156 92.4009C313.75 92.0519 314.401 91.8761 315.109 91.8733C315.92 91.8702 316.697 92.1162 317.441 92.6114ZM325.905 91.7584C326.686 91.7554 327.273 91.9899 327.665 92.462C328.062 92.9341 328.262 93.6218 328.266 94.5252L328.277 97.8503L329.42 97.8459L329.426 99.6184L325.823 99.6323L325.805 94.6519C325.804 94.3345 325.742 94.1077 325.62 93.9714C325.502 93.8351 325.304 93.7676 325.026 93.7686C324.645 93.7701 324.216 93.928 323.738 94.2424L323.751 97.8678L324.828 97.8637L324.834 99.6361L320.066 99.6545L320.06 97.8821L321.305 97.8773L321.278 90.3773L320.033 90.3821L320.027 88.617L323.718 88.6027L323.732 92.5724C324.521 92.0323 325.246 91.7609 325.905 91.7584ZM337.232 94.9666L337.242 97.8157L338.487 97.8109L338.494 99.5833L334.802 99.5976L334.8 98.997C334.104 99.4782 333.406 99.7202 332.708 99.7229C331.863 99.7261 331.186 99.5115 330.677 99.0789C330.167 98.6463 329.911 98.0613 329.909 97.324C329.906 96.5428 330.187 95.9167 330.752 95.4457C331.321 94.9699 332.077 94.7302 333.02 94.7265C333.347 94.7253 333.638 94.7608 333.892 94.833C334.151 94.9004 334.449 95.0189 334.787 95.1885L334.784 94.5732C334.783 94.1826 334.66 93.8706 334.415 93.6371C334.17 93.4037 333.803 93.2879 333.315 93.2898C332.783 93.2919 332.312 93.4988 331.904 93.9105L329.925 93.5593C330.521 92.346 331.759 91.7358 333.639 91.7285C334.928 91.7235 335.847 91.9861 336.396 92.5162C336.949 93.0414 337.228 93.8582 337.232 94.9666ZM333.252 98.19C333.691 98.1883 334.205 97.9226 334.794 97.393L334.792 96.7046C334.263 96.3648 333.779 96.1958 333.34 96.1975C332.988 96.1988 332.72 96.2829 332.535 96.4496C332.35 96.6163 332.258 96.8535 332.259 97.1611C332.262 97.8496 332.593 98.1926 333.252 98.19ZM347.551 94.6411L347.562 97.7758L348.719 97.7714L348.725 99.5438L345.107 99.5578L345.091 94.8484C345.089 94.487 345.032 94.226 344.919 94.0653C344.811 93.8997 344.628 93.8174 344.369 93.8184C343.9 93.8202 343.43 93.9905 342.957 94.3292L342.97 97.7936L344.171 97.7889L344.177 99.5614L339.365 99.58L339.359 97.8075L340.531 97.803L340.516 93.6795L339.344 93.684L339.338 91.8823L342.949 91.8683L342.951 92.5934C343.682 92.0388 344.433 91.76 345.204 91.7571C345.971 91.7541 346.553 91.996 346.95 92.4828C347.347 92.9646 347.547 93.6841 347.551 94.6411ZM354.942 92.7668L354.938 91.822L358.652 91.8077L358.658 93.6094L357.384 93.6143L357.404 99.3638C357.408 100.57 357.082 101.492 356.425 102.129C355.768 102.766 354.754 103.087 353.382 103.093C351.863 103.099 350.729 102.825 349.98 102.271L351.168 100.648C351.8 101.031 352.42 101.221 353.031 101.219C353.543 101.217 353.939 101.137 354.216 100.98C354.499 100.828 354.694 100.59 354.8 100.267C354.911 99.9496 354.966 99.5197 354.964 98.9777L354.962 98.5602C354.154 99.2811 353.369 99.6431 352.608 99.646C351.978 99.6484 351.418 99.4846 350.929 99.1544C350.444 98.8194 350.069 98.3521 349.803 97.7525C349.537 97.153 349.403 96.465 349.4 95.6886C349.398 94.9269 349.534 94.2452 349.811 93.6436C350.092 93.0419 350.488 92.5741 350.999 92.2401C351.511 91.9012 352.082 91.7305 352.711 91.7281C353.625 91.7245 354.368 92.0708 354.942 92.7668ZM353.428 97.6506C353.877 97.6489 354.246 97.4766 354.532 97.1337C354.824 96.7859 354.969 96.3068 354.967 95.6964C354.965 95.0763 354.824 94.5886 354.544 94.2332C354.269 93.8778 353.893 93.7011 353.414 93.7029C352.95 93.7047 352.585 93.8892 352.318 94.2565C352.05 94.6237 351.918 95.1027 351.92 95.6936C351.922 96.26 352.058 96.7282 352.328 97.0982C352.598 97.4683 352.964 97.6524 353.428 97.6506ZM367.244 96.1397L361.502 96.1619C361.562 96.7525 361.767 97.2205 362.115 97.5658C362.467 97.9062 362.92 98.0754 363.471 98.0733C364.082 98.0709 364.676 97.7659 365.255 97.1582L367.162 97.766C366.744 98.3975 366.226 98.8732 365.607 99.193C364.988 99.5078 364.253 99.6669 363.404 99.6702C362.554 99.6735 361.802 99.5177 361.146 99.2029C360.496 98.8831 359.989 98.431 359.625 97.8464C359.267 97.2619 359.086 96.5741 359.083 95.7831C359.081 95.0018 359.264 94.2931 359.632 93.6569C360.006 93.0207 360.51 92.5231 361.143 92.1642C361.782 91.8005 362.474 91.6171 363.221 91.6142C364.032 91.6111 364.738 91.7964 365.34 92.17C365.942 92.5388 366.405 93.0668 366.73 93.754C367.06 94.4363 367.231 95.2316 367.244 96.1397ZM363.11 93.248C362.671 93.2497 362.317 93.378 362.049 93.6329C361.787 93.8878 361.622 94.2767 361.555 94.7994L364.763 94.787C364.693 94.3283 364.504 93.9579 364.196 93.6759C363.892 93.389 363.53 93.2463 363.11 93.248ZM376.905 92.0081L376.904 91.7371L378.654 91.7304L378.662 93.9862L376.912 93.993C376.758 93.4516 376.196 93.1828 375.224 93.1865C374.526 93.1892 374.177 93.3859 374.179 93.7765C374.179 93.9474 374.273 94.074 374.459 94.1563C374.644 94.2386 374.916 94.3059 375.272 94.3582C376.274 94.4813 377.063 94.6614 377.64 94.8984C378.217 95.1305 378.621 95.422 378.851 95.7726C379.082 96.1184 379.198 96.5403 379.2 97.0384C379.203 97.8489 378.927 98.4823 378.372 98.9386C377.822 99.3899 377.071 99.6174 376.118 99.6211C375.191 99.6247 374.56 99.4416 374.227 99.0718L374.228 99.4453L372.441 99.4522L372.432 96.8008L374.219 96.7939C374.269 97.16 374.446 97.4474 374.749 97.6562C375.058 97.8649 375.436 97.9685 375.886 97.9667C376.325 97.965 376.65 97.9149 376.859 97.8165C377.069 97.7131 377.173 97.5369 377.172 97.2879C377.172 97.117 377.127 96.9853 377.039 96.8929C376.951 96.7956 376.78 96.7108 376.525 96.6385C376.276 96.5663 375.893 96.4847 375.375 96.394C374.222 96.2178 373.391 95.9304 372.881 95.532C372.377 95.1287 372.124 94.5852 372.121 93.9016C372.119 93.2034 372.378 92.6531 372.899 92.2507C373.425 91.8482 374.118 91.6454 374.977 91.6421C375.67 91.6394 376.313 91.7614 376.905 92.0081ZM383.861 89.5203C383.862 89.9109 383.729 90.2362 383.462 90.496C383.199 90.7509 382.884 90.8791 382.518 90.8805C382.147 90.8819 381.827 90.7513 381.557 90.4887C381.293 90.2212 381.16 89.9018 381.158 89.5308C381.157 89.1645 381.288 88.8491 381.551 88.5844C381.818 88.3148 382.138 88.1793 382.509 88.1779C382.875 88.1765 383.19 88.3095 383.455 88.5771C383.724 88.8397 383.86 89.1541 383.861 89.5203ZM384.879 97.6317L384.885 99.4041L380.131 99.4225L380.125 97.65L381.297 97.6455L381.282 93.522L380.111 93.5265L380.104 91.7248L383.715 91.7108L383.736 97.6361L384.879 97.6317ZM389.809 91.6873L389.815 93.489L388.394 93.4945L388.406 96.8563C388.407 97.0956 388.454 97.2761 388.547 97.3978C388.64 97.5146 388.814 97.5725 389.068 97.5715C389.278 97.5707 389.532 97.516 389.829 97.4075L389.835 99.114C389.177 99.3753 388.557 99.5071 387.976 99.5094C387.307 99.512 386.804 99.3454 386.466 99.0098C386.132 98.6693 385.965 98.189 385.962 97.5689L385.948 93.504L384.974 93.5077L384.967 91.706L385.942 91.7022L385.937 90.5084L388.377 88.7411L388.388 91.6928L389.809 91.6873ZM398.87 96.0176L393.127 96.0397C393.188 96.6303 393.392 97.0983 393.74 97.4436C394.093 97.7841 394.545 97.9532 395.097 97.9511C395.707 97.9487 396.302 97.6437 396.881 97.036L398.787 97.6439C398.37 98.2754 397.851 98.751 397.232 99.0708C396.613 99.3857 395.879 99.5448 395.029 99.548C394.18 99.5513 393.427 99.3955 392.772 99.0807C392.121 98.7609 391.614 98.3088 391.251 97.7242C390.893 97.1397 390.712 96.4519 390.709 95.6609C390.706 94.8797 390.889 94.1709 391.258 93.5347C391.632 92.8985 392.136 92.401 392.769 92.0421C393.407 91.6783 394.1 91.4949 394.847 91.492C395.658 91.4889 396.364 91.6742 396.966 92.0478C397.568 92.4166 398.031 92.9446 398.356 93.6318C398.685 94.3142 398.857 95.1094 398.87 96.0176ZM394.736 93.1258C394.296 93.1275 393.943 93.2558 393.675 93.5108C393.412 93.7657 393.248 94.1545 393.181 94.6772L396.389 94.6648C396.319 94.2061 396.13 93.8357 395.821 93.5537C395.517 93.2668 395.156 93.1242 394.736 93.1258ZM337.711 110.16L337.71 109.889L339.46 109.882L339.468 112.138L337.718 112.145C337.564 111.603 337.002 111.334 336.03 111.338C335.332 111.341 334.984 111.537 334.985 111.928C334.986 112.099 335.079 112.226 335.265 112.308C335.451 112.39 335.722 112.457 336.078 112.51C337.08 112.633 337.869 112.813 338.446 113.05C339.023 113.282 339.427 113.573 339.658 113.924C339.888 114.27 340.005 114.692 340.006 115.19C340.009 116 339.733 116.634 339.178 117.09C338.628 117.541 337.877 117.769 336.925 117.773C335.997 117.776 335.366 117.593 335.033 117.223L335.034 117.597L333.247 117.604L333.238 114.952L335.025 114.945C335.075 115.312 335.252 115.599 335.555 115.808C335.864 116.016 336.243 116.12 336.692 116.118C337.131 116.117 337.456 116.066 337.665 115.968C337.875 115.865 337.979 115.688 337.978 115.439C337.978 115.269 337.933 115.137 337.845 115.044C337.757 114.947 337.586 114.862 337.332 114.79C337.082 114.718 336.699 114.636 336.181 114.546C335.028 114.369 334.197 114.082 333.688 113.684C333.183 113.28 332.93 112.737 332.927 112.053C332.925 111.355 333.184 110.805 333.705 110.402C334.231 110 334.924 109.797 335.783 109.794C336.476 109.791 337.119 109.913 337.711 110.16ZM347.153 110.497L347.151 109.852L348.828 109.846L348.839 112.966L347.103 112.973C346.69 112.125 346.063 111.702 345.224 111.705C344.711 111.707 344.287 111.897 343.951 112.274C343.62 112.652 343.456 113.121 343.458 113.682C343.46 114.303 343.621 114.812 343.94 115.211C344.263 115.606 344.691 115.802 345.223 115.8C345.609 115.798 345.975 115.689 346.321 115.473C346.667 115.257 346.949 114.953 347.167 114.562L349.075 115.397C348.657 116.189 348.154 116.777 347.565 117.16C346.975 117.543 346.18 117.737 345.179 117.741C343.88 117.746 342.849 117.396 342.084 116.691C341.325 115.981 340.943 114.996 340.939 113.736C340.936 112.984 341.107 112.307 341.452 111.705C341.801 111.103 342.273 110.63 342.867 110.286C343.462 109.937 344.113 109.761 344.821 109.759C345.632 109.756 346.409 110.002 347.153 110.497ZM356.474 109.728L356.482 112.035C355.808 112.082 355.272 112.191 354.872 112.364C354.477 112.531 354.17 112.821 353.952 113.232C353.739 113.643 353.633 114.229 353.636 114.991L353.639 115.752L355.17 115.747L355.176 117.519L349.778 117.54L349.772 115.767L351.185 115.762L351.171 111.638L349.83 111.644L349.824 109.842L353.413 109.828L353.42 111.784C353.598 111.192 353.931 110.7 354.418 110.308C354.905 109.915 355.51 109.717 356.232 109.715C356.34 109.714 356.42 109.719 356.474 109.728ZM361.117 107.608C361.119 107.999 360.986 108.324 360.718 108.584C360.455 108.839 360.141 108.967 359.775 108.968C359.403 108.97 359.083 108.839 358.814 108.577C358.549 108.309 358.416 107.99 358.415 107.619C358.413 107.253 358.544 106.937 358.807 106.672C359.075 106.403 359.394 106.267 359.765 106.266C360.131 106.264 360.447 106.398 360.711 106.665C360.981 106.928 361.116 107.242 361.117 107.608ZM362.135 115.72L362.141 117.492L357.388 117.51L357.381 115.738L358.553 115.734L358.539 111.61L357.367 111.615L357.36 109.813L360.971 109.799L360.992 115.724L362.135 115.72ZM371.466 113.691C371.469 114.443 371.337 115.12 371.07 115.722C370.804 116.319 370.417 116.789 369.911 117.133C369.409 117.476 368.829 117.649 368.17 117.652C367.359 117.655 366.608 117.338 365.918 116.701L365.926 119.169L367.45 119.164L367.456 120.936L362.183 120.956L362.176 119.184L363.48 119.179L363.453 111.591L362.355 111.595L362.348 109.794L365.893 109.78L365.897 110.739C366.573 110.029 367.331 109.672 368.171 109.668C368.849 109.666 369.436 109.842 369.93 110.196C370.43 110.546 370.81 111.025 371.071 111.635C371.332 112.244 371.463 112.93 371.466 113.691ZM367.452 115.714C367.936 115.712 368.306 115.532 368.564 115.175C368.821 114.812 368.949 114.302 368.946 113.643C368.944 113.013 368.811 112.522 368.546 112.172C368.281 111.821 367.902 111.647 367.409 111.649C366.94 111.651 366.564 111.835 366.283 112.203C366.006 112.57 365.868 113.064 365.87 113.684C365.872 114.265 366.018 114.75 366.308 115.14C366.602 115.524 366.983 115.716 367.452 115.714ZM377.026 109.737L377.032 111.539L375.611 111.544L375.623 114.906C375.624 115.145 375.671 115.326 375.764 115.447C375.858 115.564 376.031 115.622 376.285 115.621C376.495 115.62 376.749 115.566 377.046 115.457L377.052 117.164C376.394 117.425 375.774 117.557 375.193 117.559C374.524 117.561 374.021 117.395 373.683 117.059C373.349 116.719 373.182 116.239 373.179 115.618L373.165 111.553L372.191 111.557L372.185 109.756L373.159 109.752L373.154 108.558L375.595 106.791L375.605 109.742L377.026 109.737Z" fill="#5A5454"/>
<path d="M305.891 17C304.618 17 303.314 17.4875 302.39 18.4528C301.467 19.418 301 20.78 301 22.1102V121.885C301 123.215 301.467 124.581 302.39 125.547C303.314 126.513 304.618 127 305.891 127H401.39C402.663 127 403.971 126.513 404.895 125.547C405.82 124.582 406.286 123.22 406.286 121.89V22.1102C406.286 20.78 405.819 19.418 404.895 18.4528C403.971 17.4875 402.668 17 401.395 17H305.891ZM306.014 22.2381H401.272V121.762H306.014V22.2381ZM361.011 58.4086C355.71 58.4086 353.001 61.9461 353.001 66.189C353.001 68.5828 354.321 71.3755 357.78 73.5755C359.923 75.0265 361.051 75.973 361.051 77.898C361.051 79.6265 359.92 80.8802 357.589 80.8802C356.16 80.8802 354.433 80.4515 353.418 79.8623L352.703 84.2972C353.53 84.808 355.524 85.3612 357.555 85.3612C362.518 85.3612 365.937 82.1777 365.937 77.3455C365.937 74.5536 364.696 71.8835 361.349 69.7595C358.604 68.0309 357.854 67.208 357.854 65.6365C357.854 64.2222 358.872 62.8845 360.977 62.8845C362.406 62.8845 363.494 63.3159 364.209 63.7899L364.997 59.3549C364.245 58.8861 362.666 58.4086 361.011 58.4086ZM344.996 58.6439V76.9158C344.996 80.3311 343.791 80.9211 342.362 80.9211C341.723 80.9211 341.235 80.8839 340.747 80.7267L340.33 85.0441C340.894 85.2772 341.797 85.438 342.813 85.438C346.422 85.438 349.956 84.2968 349.956 76.6754V58.6439H344.996Z" fill="#285477"/>
</svg>
