<?xml version="1.0" encoding="UTF-8" standalone="no"?>
<svg
   xmlns:dc="http://purl.org/dc/elements/1.1/"
   xmlns:cc="http://creativecommons.org/ns#"
   xmlns:rdf="http://www.w3.org/1999/02/22-rdf-syntax-ns#"
   xmlns:svg="http://www.w3.org/2000/svg"
   xmlns="http://www.w3.org/2000/svg"
   xmlns:sodipodi="http://sodipodi.sourceforge.net/DTD/sodipodi-0.dtd"
   xmlns:inkscape="http://www.inkscape.org/namespaces/inkscape"
   sodipodi:docname="1428616740.svg"
   height="451.72818"
   width="535.19556"
   inkscape:version="1.0beta2 (2b71d25, 2019-12-03)"
   version="1.1"
   id="svg2">
  <metadata
     id="metadata8">
    <rdf:RDF>
      <cc:Work
         rdf:about="">
        <dc:format>image/svg+xml</dc:format>
        <dc:type
           rdf:resource="http://purl.org/dc/dcmitype/StillImage" />
        <dc:title></dc:title>
      </cc:Work>
    </rdf:RDF>
  </metadata>
  <defs
     id="defs6" />
  <sodipodi:namedview
     inkscape:document-rotation="0"
     fit-margin-bottom="0"
     fit-margin-right="0"
     fit-margin-left="0"
     fit-margin-top="0"
     inkscape:current-layer="svg2"
     inkscape:window-maximized="1"
     inkscape:window-y="23"
     inkscape:window-x="0"
     inkscape:cy="229.75792"
     inkscape:cx="199.93909"
     inkscape:zoom="0.66880627"
     showgrid="false"
     id="namedview4"
     inkscape:window-height="759"
     inkscape:window-width="1440"
     inkscape:pageshadow="2"
     inkscape:pageopacity="0"
     guidetolerance="10"
     gridtolerance="10"
     objecttolerance="10"
     borderopacity="1"
     bordercolor="#666666"
     pagecolor="#ffffff" />
  <g
     transform="matrix(1.2779598,0,0,1.2779598,104.67656,90.746911)"
     id="g4387" />
  <g
     transform="translate(-7.4960899,-71.576385)"
     id="g1101">
    <rect
       style="opacity:0.617363;fill:#285477;fill-opacity:1;stroke:none;stroke-width:1.64275;stroke-miterlimit:4;stroke-dasharray:none;stroke-opacity:1"
       id="rect1038"
       width="535.19556"
       height="451.72818"
       x="7.4960899"
       y="71.576385"
       ry="51.009262" />
    <g
       id="g913">
      <rect
         ry="0"
         y="126.20522"
         x="85.140465"
         height="208.24895"
         width="385.04959"
         id="rect4241"
         style="fill:#ffffff;fill-opacity:1;stroke:none" />
      <path
         inkscape:connector-curvature="0"
         id="rect4175-2"
         d="m 85.752632,110.51492 c -9.876102,0 -17.84375,7.96765 -17.84375,17.84375 V 349.70242 H 486.62763 V 128.35867 c 0,-9.8761 -7.9364,-17.84375 -17.8125,-17.84375 z m 400.781248,288.8125 c -0.18162,1.80191 -0.63874,3.52535 -1.3125,5.125 0.67478,-1.60066 1.13057,-3.32277 1.3125,-5.125 z M 75.752632,412.29617 c 0.948099,0.63947 1.964143,1.17515 3.03125,1.625 -1.067897,-0.44918 -2.082164,-0.98637 -3.03125,-1.625 z m 3.03125,1.625 c 1.600661,0.67478 3.322768,1.13057 5.125,1.3125 -1.791403,-0.1836 -3.532294,-0.64258 -5.125,-1.3125 z m 399.999998,-1.625 c -0.94725,0.63863 -1.96482,1.17582 -3.03125,1.625 1.06711,-0.44985 2.08315,-0.98553 3.03125,-1.625 z m -3.03125,1.625 c -1.59965,0.67376 -3.32309,1.13088 -5.125,1.3125 1.80223,-0.18193 3.52434,-0.63772 5.125,-1.3125 z"
         style="fill:#08191e;fill-opacity:1;stroke:none" />
      <rect
         ry="0"
         y="128.68901"
         x="83.21492"
         height="203.28137"
         width="388.90067"
         id="rect4241-6"
         style="fill:#ffffff;fill-opacity:1;stroke:none" />
      <g
         style="fill:#d3d2d3;fill-opacity:1"
         transform="translate(163.09877,171.26492)"
         id="g4306">
        <path
           id="path4263-6"
           style="fill:#d3d2d3;fill-opacity:1;stroke:none"
           d="m 169.11865,243.52542 10.30508,61.01695 c -42.90561,-0.79412 -85.80587,-0.3616 -128.711866,0 l 10.305085,-61.01695 54.050851,-25.8983 z"
           inkscape:connector-curvature="0"
           sodipodi:nodetypes="cccccc" />
        <rect
           style="fill:#d3d2d3;fill-opacity:1;stroke:none"
           id="rect4261"
           width="161.08475"
           height="8.1355934"
           x="33.627117"
           y="298.57626" />
      </g>
      <rect
         ry="0"
         y="137.36697"
         x="93.850769"
         height="185.92545"
         width="367.62897"
         id="rect4241-6-8"
         style="fill:#e6e6e6;fill-opacity:1;stroke:none" />
      <path
         inkscape:connector-curvature="0"
         id="rect4175-2-4"
         d="m 67.908882,349.70242 v 47.8125 c 0,9.8761 7.967648,17.8125 17.84375,17.8125 H 468.81513 c 9.8761,0 17.8125,-7.9364 17.8125,-17.8125 v -47.8125 z"
         style="fill:#d3d2d3;fill-opacity:1;stroke:none" />
      <path
         r="8.820857"
         cy="208.44408"
         cx="111.98654"
         transform="translate(165.28172,174.07084)"
         id="path4284"
         style="fill:#08191e;fill-opacity:1;stroke:none"
         d=""
         inkscape:connector-curvature="0" />
    </g>
    <g
       id="g918"
       transform="matrix(0.2258274,0,0,0.2258274,551.88437,353.69684)">
      <rect
         inkscape:export-ydpi="90"
         inkscape:export-xdpi="90"
         ry="45.344303"
         style="fill:#ececec;stroke:#000000;stroke-width:1;stroke-miterlimit:4;stroke-dasharray:none;stroke-opacity:1"
         y="-45.334145"
         x="-495.15613"
         height="614.66718"
         width="337.56314"
         id="rect10" />
      <rect
         id="rect10-0"
         width="328.88519"
         height="605.26062"
         x="-490.13919"
         y="-41.334145"
         style="fill:#000000;fill-opacity:1;stroke-width:4.88527"
         ry="44.650379"
         inkscape:export-xdpi="90"
         inkscape:export-ydpi="90" />
      <rect
         inkscape:export-ydpi="90"
         inkscape:export-xdpi="90"
         ry="5.1212163"
         y="-27.930384"
         x="-363.78165"
         height="10.242433"
         width="74.814285"
         id="rect24"
         style="fill:#4d4d4d;stroke:none;stroke-width:4.98762" />
    </g>
    <g
       id="g1079"
       transform="matrix(1.0221826,0,0,1.0221826,330.79988,138.34516)">
      <rect
         inkscape:export-ydpi="90"
         inkscape:export-xdpi="90"
         ry="15.997636"
         style="fill:#f9f9f9;fill-opacity:1;stroke-width:2.02792"
         y="133.29555"
         x="-292.32883"
         height="216.85684"
         width="158.17319"
         id="rect10-9" />
      <circle
         inkscape:export-ydpi="90"
         inkscape:export-xdpi="90"
         r="6.4739723"
         cy="340.6001"
         cx="-212.1192"
         id="path22"
         style="fill:#f9f9f9;stroke:#000000;stroke-width:0.2;stroke-miterlimit:4;stroke-dasharray:none;stroke-opacity:1" />
      <circle
         style="fill:#000000;stroke:none;stroke-width:0.285863"
         id="path22-5"
         cx="-212.40947"
         cy="139.15063"
         r="1.263347"
         inkscape:export-xdpi="90"
         inkscape:export-ydpi="90" />
      <rect
         y="145.84848"
         x="-286.45151"
         height="184.45612"
         width="147.46069"
         id="rect999"
         style="fill:#000000;fill-opacity:1;stroke:none;stroke-width:0.885001;stroke-miterlimit:4;stroke-dasharray:none;stroke-opacity:1" />
    </g>
  </g>
</svg>
