<?xml version="1.0" encoding="UTF-8" standalone="no"?>
<svg
   xmlns:dc="http://purl.org/dc/elements/1.1/"
   xmlns:cc="http://creativecommons.org/ns#"
   xmlns:rdf="http://www.w3.org/1999/02/22-rdf-syntax-ns#"
   xmlns:svg="http://www.w3.org/2000/svg"
   xmlns="http://www.w3.org/2000/svg"
   xmlns:sodipodi="http://sodipodi.sourceforge.net/DTD/sodipodi-0.dtd"
   xmlns:inkscape="http://www.inkscape.org/namespaces/inkscape"
   sodipodi:docname="other.svg"
   inkscape:version="1.0beta2 (2b71d25, 2019-12-03)"
   id="svg8"
   version="1.1"
   viewBox="0 0 83.860703 87.402504"
   height="87.402504mm"
   width="83.860703mm">
  <defs
     id="defs2"><radialGradient
   gradientUnits="userSpaceOnUse"
   gradientTransform="scale(0.93060448,1.0745704)"
   cx="137.58"
   cy="137.68379"
   fx="137.58"
   fy="137.68379"
   r="137.25987"
   id="radialGradient-1">
  <stop
     stop-color="#93B4E7"
     offset="0%"
     id="stop943" />
  <stop
     stop-color="#B9D1F8"
     offset="59.2733578%"
     id="stop945" />
  <stop
     stop-color="#9CB6E0"
     offset="100%"
     id="stop947" />
</radialGradient>
<clipPath
   id="a">
  <path
     inkscape:connector-curvature="0"
     d="m 239.03,226.605 -42.13,24.317 c -1.578,0.91 -2.546,2.59 -2.546,4.406 v 48.668 c 0,1.817 0.968,3.496 2.546,4.406 l 42.133,24.336 c 1.575,0.907 3.517,0.907 5.09,0 l 42.126,-24.336 c 1.57,-0.91 2.54,-2.59 2.54,-4.406 v -48.668 c 0,-1.816 -0.97,-3.496 -2.55,-4.406 l -42.12,-24.317 c -0.79,-0.453 -1.67,-0.68 -2.55,-0.68 -0.88,0 -1.76,0.227 -2.55,0.68"
     id="path983" />
</clipPath>
<linearGradient
   id="b"
   x1="-0.34799999"
   x2="1.251"
   gradientTransform="matrix(-38.064915,77.652126,-77.652126,-38.064915,258.72325,244.62943)"
   gradientUnits="userSpaceOnUse">
  <stop
     offset=".3"
     stop-color="#3E863D"
     id="stop986" />
  <stop
     offset=".5"
     stop-color="#55934F"
     id="stop988" />
  <stop
     offset=".8"
     stop-color="#5AAD45"
     id="stop990" />
</linearGradient>
<clipPath
   id="c">
  <path
     inkscape:connector-curvature="0"
     d="m 195.398,307.086 c 0.403,0.523 0.907,0.976 1.5,1.316 l 36.14,20.875 6.02,3.46 c 0.9,0.52 1.926,0.74 2.934,0.665 0.336,-0.027 0.672,-0.09 1,-0.183 l 44.434,-81.36 c -0.34,-0.37 -0.738,-0.68 -1.184,-0.94 l -27.586,-15.93 -14.582,-8.39 c -0.414,-0.24 -0.863,-0.41 -1.32,-0.53 z m 0,0"
     id="path993" />
</clipPath>
<linearGradient
   id="d"
   x1="-0.456"
   x2="0.58200002"
   gradientTransform="matrix(106.8057,-78.916731,78.916731,106.8057,235.18824,285.39477)"
   gradientUnits="userSpaceOnUse">
  <stop
     offset=".57"
     stop-color="#3E863D"
     id="stop996" />
  <stop
     offset=".72"
     stop-color="#619857"
     id="stop998" />
  <stop
     offset="1"
     stop-color="#76AC64"
     id="stop1000" />
</linearGradient>
<clipPath
   id="e">
  <path
     inkscape:connector-curvature="0"
     d="m 241.066,225.953 c -0.707,0.07 -1.398,0.29 -2.035,0.652 l -42.01,24.247 45.3,82.51 c 0.63,-0.09 1.25,-0.3 1.81,-0.624 l 42.13,-24.336 c 1.3,-0.754 2.19,-2.03 2.46,-3.476 l -46.18,-78.89 c -0.34,-0.067 -0.68,-0.102 -1.03,-0.102 -0.14,0 -0.28,0.007 -0.42,0.02"
     id="path1003" />
</clipPath>
<linearGradient
   id="f"
   x1="0.043000001"
   x2="0.98400003"
   gradientTransform="matrix(97.417,0,0,97.417,192.862,279.652)"
   gradientUnits="userSpaceOnUse">
  <stop
     offset=".16"
     stop-color="#6BBF47"
     id="stop1006" />
  <stop
     offset=".38"
     stop-color="#79B461"
     id="stop1008" />
  <stop
     offset=".47"
     stop-color="#75AC64"
     id="stop1010" />
  <stop
     offset=".7"
     stop-color="#659E5A"
     id="stop1012" />
  <stop
     offset=".9"
     stop-color="#3E863D"
     id="stop1014" />
</linearGradient>

	
	
</defs>
  <sodipodi:namedview
     fit-margin-bottom="0"
     fit-margin-right="0"
     fit-margin-left="0"
     fit-margin-top="0"
     showguides="false"
     inkscape:snap-global="false"
     inkscape:window-maximized="0"
     inkscape:window-y="23"
     inkscape:window-x="0"
     inkscape:window-height="759"
     inkscape:window-width="1440"
     showgrid="false"
     inkscape:document-rotation="0"
     inkscape:current-layer="layer1"
     inkscape:document-units="mm"
     inkscape:cy="191.43832"
     inkscape:cx="538.46719"
     inkscape:zoom="0.49497475"
     inkscape:pageshadow="2"
     inkscape:pageopacity="0.0"
     borderopacity="1.0"
     bordercolor="#666666"
     pagecolor="#ffffff"
     id="base" />
  <metadata
     id="metadata5">
    <rdf:RDF>
      <cc:Work
         rdf:about="">
        <dc:format>image/svg+xml</dc:format>
        <dc:type
           rdf:resource="http://purl.org/dc/dcmitype/StillImage" />
        <dc:title></dc:title>
      </cc:Work>
    </rdf:RDF>
  </metadata>
  <g
     transform="translate(-54.334128,-101.57248)"
     id="layer1"
     inkscape:groupmode="layer"
     inkscape:label="Layer 1">
    <g
       transform="translate(-13.363476,13.363476)"
       id="g2117">
      <path
         style="opacity:0.99;fill:#5a5454;fill-opacity:0.619608;stroke-width:0.597636"
         inkscape:connector-curvature="0"
         d="m 125.07322,96.431468 v -0.05976 c -0.89645,-1.195272 -1.9722,-2.211253 -3.22724,-3.167471 v 0.05976 c -1.01598,0.776927 -2.03196,1.613617 -2.98818,2.450308 -0.41834,-0.239055 -0.77692,-0.418346 -1.1355,-0.597636 -0.47811,-0.239055 -0.95622,-0.478109 -1.49409,-0.597637 -0.1793,-0.05976 -0.35859,-0.119527 -0.53788,-0.119527 -0.11952,-1.314799 -0.23905,-2.629599 -0.41834,-3.944398 -0.59764,-0.119527 -1.19527,-0.119527 -1.85267,-0.179291 h -0.95622 c -0.59764,0.05976 -1.13551,0.05976 -1.67338,0.179291 -0.17929,1.255036 -0.29882,2.569835 -0.35858,3.884635 -0.23906,0 -0.41835,0.05976 -0.6574,0.119527 -0.0598,0 -0.11953,0 -0.1793,0.05976 -0.4781,0.119528 -0.95621,0.358582 -1.43432,0.597637 -0.41835,0.17929 -0.77693,0.358581 -1.13551,0.597636 -1.01598,-0.836691 -1.9722,-1.613618 -2.98818,-2.450308 l -0.0598,-0.05976 c -0.23905,0.179291 -0.4781,0.358582 -0.65739,0.537872 -0.41835,0.298819 -0.77693,0.6574 -1.07575,1.015982 -0.53787,0.478109 -0.95622,1.075745 -1.43433,1.673381 h 0.0598 c 0.77692,1.015981 1.61361,1.972199 2.45031,2.988181 -0.23906,0.358581 -0.47811,0.77693 -0.6574,1.13551 -0.23906,0.47811 -0.41835,1.01598 -0.53788,1.49409 -0.11952,0.23905 -0.17929,0.47811 -0.17929,0.6574 -1.3148,0.11952 -2.629597,0.23905 -3.884633,0.41834 -0.119527,0.59764 -0.17929,1.19527 -0.17929,1.85267 0,0.89646 0.05976,1.79291 0.239054,2.6296 1.255036,0.11953 2.510069,0.23906 3.824869,0.35859 0,0.23905 0.0598,0.4781 0.17929,0.65739 0.11953,0.53788 0.29882,1.01599 0.53788,1.55386 0.23905,0.41834 0.41834,0.83669 0.71716,1.19527 -0.83669,1.01598 -1.67338,1.9722 -2.45031,2.98818 0.89645,1.25504 1.9722,2.33078 3.22724,3.22724 v -0.0598 c 0.95621,-0.77692 1.97219,-1.61361 2.92841,-2.45031 h 0.0598 c 0.29881,0.1793 0.6574,0.35859 0.95621,0.53788 0.53788,0.23905 1.13551,0.47811 1.67339,0.59763 0.23905,0.0598 0.41834,0.11953 0.59763,0.17929 0.11953,1.25504 0.23906,2.56984 0.41835,3.88464 0.53787,0.0598 1.07574,0.11953 1.67338,0.11953 h 0.89645 c 0.6574,0 1.3148,-0.0598 1.9722,-0.17929 0.11953,-1.25504 0.23906,-2.56984 0.35858,-3.88464 0.17929,-0.0598 0.35858,-0.11953 0.53788,-0.17929 0.53787,-0.11953 1.01598,-0.29882 1.49409,-0.53787 0.41834,-0.17929 0.83669,-0.41835 1.25503,-0.71717 0,0.0598 0,0.0598 0.0598,0.0598 0.95621,0.83669 1.97219,1.67338 2.98818,2.45031 0.17929,-0.11953 0.35858,-0.23906 0.59763,-0.41835 0.35858,-0.29882 0.71717,-0.6574 1.01598,-1.01598 0.53788,-0.53787 1.07575,-1.13551 1.55386,-1.79291 -0.83669,-1.01598 -1.67338,-2.03196 -2.51007,-2.98818 v -0.0598 c 0.17929,-0.29882 0.35858,-0.6574 0.53787,-1.01598 0.17929,-0.47811 0.41834,-0.95622 0.53787,-1.43433 0,-0.0598 0,-0.11953 0.0598,-0.11953 0,-0.23905 0.0598,-0.41834 0.11953,-0.53787 1.3148,-0.11953 2.6296,-0.23906 3.88464,-0.35858 0.11952,-0.59764 0.11952,-1.19528 0.17929,-1.79291 v -1.01598 c -0.0598,-0.59764 -0.0598,-1.19527 -0.17929,-1.79291 -1.25504,-0.11953 -2.56984,-0.23906 -3.88464,-0.35858 -0.0598,-0.17929 -0.11953,-0.35858 -0.11953,-0.53788 -0.17929,-0.53787 -0.35858,-1.07574 -0.59763,-1.61361 -0.17929,-0.35858 -0.41835,-0.776929 -0.59764,-1.13551 0.77693,-0.956218 1.61362,-1.9722 2.45031,-2.988181 z m -15.95688,4.960382 c 1.07574,-1.13551 2.39054,-1.673383 3.88463,-1.61362 1.55385,-0.05976 2.80889,0.47811 3.9444,1.61362 1.07574,1.07574 1.61362,2.39054 1.61362,3.88463 0,1.55386 -0.53788,2.80889 -1.61362,3.9444 -1.13551,1.07575 -2.39055,1.61362 -3.9444,1.61362 -1.49409,0 -2.80889,-0.53787 -3.88463,-1.61362 -1.07575,-1.13551 -1.61362,-2.39054 -1.61362,-3.9444 0,-1.49409 0.53787,-2.80889 1.61362,-3.88463 z"
         id="path833" />
      <path
         style="opacity:0.99;fill:#5a5454;fill-opacity:0.619608;stroke-width:0.597636"
         inkscape:connector-curvature="0"
         d="m 97.701486,110.35639 c -0.239055,-0.11953 -0.418346,-0.17929 -0.597636,-0.17929 -0.717164,-0.17929 -1.434327,-0.29882 -2.15149,-0.41835 -0.6574,1.61362 -1.195273,3.16747 -1.733145,4.72133 H 92.14347 c -0.717164,0.0598 -1.374563,0.11953 -2.031963,0.23905 -0.537873,0.0598 -1.075745,0.23906 -1.613618,0.41835 -0.956217,-1.37456 -1.972199,-2.74913 -2.928417,-4.06393 l -0.05976,-0.0598 c -0.358582,0.11953 -0.717163,0.23905 -1.015982,0.41834 -0.597636,0.23906 -1.135508,0.53788 -1.673381,0.89646 -0.83669,0.41834 -1.613617,0.95622 -2.330781,1.61362 v 0.0598 c 0.717164,1.49409 1.374564,2.98818 2.091727,4.48227 -0.418345,0.41835 -0.776927,0.77693 -1.135509,1.25504 -0.478109,0.47811 -0.896454,1.07574 -1.255036,1.67338 -0.17929,0.23905 -0.298818,0.47811 -0.418345,0.77692 -1.673381,-0.29881 -3.346762,-0.59763 -5.020143,-0.83669 -0.298818,0.71717 -0.597636,1.43433 -0.836691,2.21126 -0.239054,1.19527 -0.478109,2.33078 -0.597636,3.46629 l 4.661562,1.79291 v 0.83669 c 0,0.6574 0.05976,1.37456 0.239054,2.09172 0.05976,0.59764 0.239055,1.19527 0.418345,1.79291 -1.374563,0.95622 -2.689362,1.91244 -4.063925,2.92842 0.717163,1.79291 1.733145,3.46629 2.928417,5.02014 h 0.05976 c 1.494091,-0.71716 2.988181,-1.37456 4.542035,-2.09172 0.358582,0.35858 0.717163,0.65739 1.075745,1.01598 0.537872,0.47811 1.195272,0.89645 1.912436,1.3148 0.17929,0.11952 0.418345,0.23905 0.657399,0.41834 -0.298818,1.61362 -0.537872,3.287 -0.776927,4.96038 0.6574,0.29882 1.3148,0.53787 2.031963,0.71716 0.179291,0.0598 0.537873,0.1793 1.135509,0.29882 0.83669,0.23906 1.673381,0.35858 2.450308,0.47811 0.6574,-1.61362 1.255036,-3.16747 1.792908,-4.78109 h 0.776927 c 0.717164,0 1.374563,-0.0598 2.031963,-0.17929 0.597636,-0.11953 1.195272,-0.29882 1.792908,-0.47811 0,0 0,0.0598 0.05976,0.0598 0.956218,1.37456 1.972199,2.74912 2.928417,4.12369 0.298821,-0.1793 0.597641,-0.29882 0.836691,-0.41835 0.59764,-0.23905 1.13551,-0.53787 1.67338,-0.83669 0.89646,-0.53787 1.73315,-1.13551 2.51008,-1.79291 -0.6574,-1.55385 -1.37457,-3.04794 -2.09173,-4.6018 0.35858,-0.35858 0.6574,-0.71716 1.01598,-1.07574 0.41835,-0.53787 0.83669,-1.13551 1.19527,-1.67338 0,-0.0598 0.0598,-0.11953 0.0598,-0.17929 0.11952,-0.17929 0.23905,-0.41835 0.35858,-0.59764 1.67338,0.29882 3.34676,0.53787 5.02014,0.83669 0.29882,-0.71716 0.53787,-1.43433 0.77693,-2.21125 0.0598,-0.17929 0.11953,-0.35858 0.17929,-0.59764 0.0598,-0.17929 0.0598,-0.35858 0.17929,-0.59764 0.11953,-0.77692 0.29882,-1.55385 0.35858,-2.27101 -1.55385,-0.6574 -3.16747,-1.19527 -4.72132,-1.79291 v -0.71716 c 0,-0.71717 -0.0598,-1.49409 -0.23906,-2.21126 -0.0598,-0.53787 -0.23905,-1.07574 -0.35858,-1.61362 1.37456,-0.95621 2.74913,-1.97219 4.06393,-2.98818 h 0.0598 c -0.71716,-1.7929 -1.67338,-3.46629 -2.98818,-5.02014 -1.55385,0.6574 -3.04794,1.37456 -4.54203,2.09173 -0.41835,-0.41835 -0.8367,-0.83669 -1.25504,-1.19528 -0.53787,-0.41834 -1.07575,-0.83669 -1.67338,-1.1355 -0.17929,-0.17929 -0.418351,-0.29882 -0.597642,-0.41835 0.239062,-1.67338 0.537872,-3.34676 0.776932,-5.02014 -0.717168,-0.29882 -1.494095,-0.59764 -2.271022,-0.83669 -0.179291,-0.0598 -0.418345,-0.11953 -0.597636,-0.11953 z m -11.116032,22.35159 c -1.015982,-1.73314 -1.255036,-3.52605 -0.717163,-5.43849 0.478108,-1.91243 1.613617,-3.34676 3.346762,-4.36274 1.673381,-0.95622 3.526053,-1.19527 5.378725,-0.71717 1.912435,0.53788 3.406526,1.61362 4.362744,3.34677 1.015981,1.73314 1.255038,3.52605 0.717163,5.43849 -0.478109,1.91243 -1.613618,3.34676 -3.286999,4.30298 -1.792908,1.01598 -3.585816,1.25503 -5.438488,0.71716 -1.912436,-0.47811 -3.406526,-1.61362 -4.362744,-3.287 z"
         id="path837" />
      <path
         id="path858"
         d="m 116.36931,133.28573 c -0.21401,-0.0257 -0.36639,-0.0223 -0.5025,0.0265 -0.59324,0.059 -1.17023,0.16333 -1.74722,0.26765 -0.0602,1.4039 -0.0458,2.72991 -0.0315,4.05593 l -0.81671,0.29263 c -0.52822,0.24049 -1.01107,0.46466 -1.47766,0.73423 -0.39209,0.19171 -0.75169,0.47412 -1.11128,0.75655 -1.09988,-0.78346 -2.24513,-1.55068 -3.32876,-2.28878 l -0.0616,-0.0291 c -0.23972,0.18829 -0.47945,0.37657 -0.65754,0.59397 -0.3887,0.34408 -0.71578,0.71725 -1.0266,1.1358 -0.52142,0.54521 -0.96496,1.16491 -1.33061,1.8591 l 0.0162,0.0454 c 0.9509,0.93924 1.85643,1.89474 2.80733,2.83399 -0.20381,0.43141 -0.37851,0.80119 -0.5207,1.26172 -0.23292,0.49304 -0.38796,1.06056 -0.49762,1.61184 -0.0711,0.23026 -0.0968,0.44427 -0.10628,0.70365 -1.35172,0.22837 -2.70346,0.45666 -4.03893,0.73036 -0.0318,0.62577 -0.0636,1.25153 -0.0337,1.90641 0.14369,0.97249 0.27107,1.8996 0.48919,2.79421 l 4.02681,0.0931 0.22759,0.63523 c 0.17883,0.49911 0.41931,1.02731 0.75049,1.52303 0.20798,0.43747 0.50663,0.84243 0.80533,1.2474 -0.78347,1.09988 -1.52157,2.1835 -2.28878,3.32875 1.03219,1.16611 2.25873,2.16019 3.58888,3.01474 l 0.0454,-0.0163 c 0.93925,-0.9509 1.89475,-1.85643 2.87937,-2.82359 0.36977,0.1747 0.7233,0.30402 1.09308,0.47872 0.53842,0.21667 1.15132,0.35546 1.80959,0.47799 0.16864,0.042 0.38265,0.0677 0.61291,0.13878 0.2123,1.30632 0.48577,2.64183 0.75947,3.9773 0.5804,0.0481 1.14452,0.0507 1.73779,-0.008 0.15238,-0.003 0.45712,-0.0102 0.94336,-0.0821 0.70025,-0.0461 1.36799,-0.18296 1.99035,-0.30351 0.0602,-1.40391 0.0912,-2.74617 0.0606,-4.11756 l 0.58985,-0.21134 c 0.54447,-0.19509 1.02731,-0.41932 1.49391,-0.68886 0.42122,-0.25333 0.82618,-0.55201 1.23114,-0.8507 0,0 0.0163,0.0454 0.0616,0.0291 1.09989,0.78346 2.24514,1.55067 3.34502,2.33415 0.1781,-0.21742 0.37245,-0.38944 0.52142,-0.54522 0.38871,-0.34406 0.71578,-0.71724 1.04285,-1.09042 0.53429,-0.6522 1.00694,-1.33354 1.41797,-2.044 -0.92179,-1.00087 -1.87269,-1.9401 -2.83986,-2.92472 0.1747,-0.36978 0.30403,-0.72331 0.47872,-1.09308 0.17131,-0.52216 0.32633,-1.0897 0.45226,-1.59559 -0.0163,-0.0454 0.0129,-0.10702 -0.003,-0.15239 0.042,-0.16864 0.0677,-0.38264 0.10966,-0.55128 1.35174,-0.22829 2.68721,-0.50199 4.03894,-0.73036 0.0318,-0.62577 0.0182,-1.23527 -0.0117,-1.89015 -0.003,-0.15238 -0.006,-0.30476 -0.0265,-0.5025 -0.003,-0.15239 -0.0523,-0.28849 -0.0264,-0.5025 -0.12064,-0.62235 -0.19601,-1.26095 -0.34551,-1.82172 -1.35852,-0.0765 -2.72991,-0.0458 -4.07218,-0.0769 l -0.19508,-0.54447 c -0.19509,-0.54449 -0.45182,-1.11806 -0.78302,-1.61378 -0.1917,-0.39209 -0.4741,-0.75169 -0.71117,-1.12754 0.78347,-1.09987 1.55069,-2.24513 2.27253,-3.37412 l 0.0454,-0.0163 c -1.03218,-1.1661 -2.21335,-2.17644 -3.63424,-2.99849 -1.00087,0.92179 -1.94012,1.87269 -2.87935,2.8236 -0.43142,-0.20382 -0.86283,-0.40763 -1.27798,-0.56607 -0.52216,-0.1713 -1.04432,-0.34259 -1.57933,-0.40689 -0.18489,-0.0873 -0.3989,-0.11306 -0.56754,-0.15504 -0.2737,-1.33547 -0.50207,-2.6872 -0.77573,-4.02268 -0.62578,-0.0318 -1.29691,-0.0473 -1.95178,-0.0174 -0.1524,0.003 -0.35013,0.0231 -0.48625,0.0719 z m -2.35927,19.99334 c -1.24279,-1.03945 -1.91199,-2.33561 -2.02386,-3.93386 -0.15724,-1.582 0.31468,-2.97984 1.35412,-4.22264 1.01033,-1.18116 2.35188,-1.86662 3.88851,-2.00761 1.59824,-0.11186 3.0252,0.29842 4.22262,1.35414 1.2428,1.03944 1.91201,2.33561 2.02387,3.93387 0.15724,1.58199 -0.31468,2.97983 -1.32501,4.161 -1.08483,1.25905 -2.38099,1.92825 -3.93387,2.02386 -1.582,0.15724 -3.02521,-0.29843 -4.20638,-1.30876 z"
         inkscape:connector-curvature="0"
         style="opacity:0.99;fill:#5a5454;fill-opacity:0.619608;stroke-width:0.481976" />
      <g
         transform="matrix(0.02307004,0,0,0.02307004,84.714033,121.0916)"
         id="g2987"
         style="opacity:1">
        <path
           style="fill:#eed94d"
           d="M 0,350.5 V 1 H 349.5 699 V 350.5 700 H 349.5 0 Z m 306,291.88551 c 42.03538,-7.26467 67.35197,-34.14392 72.97724,-77.48175 0.56591,-4.35985 0.9737,-56.01993 0.99188,-125.65376 L 380,321 H 347.5 315 l -0.0173,111.75 c -0.0104,66.8853 -0.4162,115.53744 -1.01086,121.18384 -1.9696,18.70193 -8.96206,27.80409 -23.77103,30.94295 -20.97518,4.44584 -36.59587,-3.97036 -49.42005,-26.62679 -1.63441,-2.8875 -3.44418,-5.25 -4.02173,-5.25 -0.94616,0 -50.0968,29.28087 -52.09002,31.03197 -2.0788,1.82628 10.36912,20.86744 20.07292,30.70488 23.83103,24.15922 61.66819,34.49071 101.2581,27.64866 z m 251.5,0.51536 c 26.72936,-3.36873 48.51519,-13.69547 64.48529,-30.56678 6.5435,-6.91275 9.00163,-10.45699 12.95749,-18.68264 6.49613,-13.50778 8.10509,-20.34074 8.74801,-37.15145 1.16372,-30.42796 -6.87591,-51.94801 -26.36112,-70.56199 C 603.3626,472.59544 585.7523,462.28897 552.5,447.99631 c -34.10286,-14.65826 -44.59377,-21.3614 -49.59221,-31.6868 -3.47114,-7.17042 -3.29151,-18.00984 0.42384,-25.57604 5.50351,-11.2077 16.12506,-16.38396 31.78705,-15.49096 14.92396,0.85093 25.3309,7.14372 34.41684,20.81091 l 4.5327,6.81816 22.89946,-14.68579 C 609.56238,380.1086 621.02025,372.6 622.4296,371.5 l 2.56246,-2 -5.64564,-8.36881 c -14.15406,-20.98122 -32.88644,-34.301 -56.55253,-40.21203 -11.95275,-2.98542 -38.77474,-3.75813 -51.79389,-1.49212 -21.44782,3.73302 -36.62867,11.25529 -50.60025,25.07296 -12.64692,12.5076 -19.48466,25.02567 -23.02755,42.15729 -2.49558,12.06733 -1.49098,34.97374 2.05219,46.79337 9.05883,30.21919 29.41176,49.69155 71.23861,68.15647 8.16035,3.60247 20.90422,9.2333 28.31972,12.51295 29.87898,13.21458 39.34216,22.68683 39.34216,39.37992 0,15.4436 -9.83609,26.19126 -28.39628,31.02794 -9.94076,2.59051 -28.90055,1.67525 -39.31157,-1.89772 -14.18793,-4.86916 -27.77851,-15.82488 -37.11852,-29.92219 -2.69204,-4.06323 -4.29591,-5.61602 -5.37358,-5.20248 C 465.0247,548.69523 416,577.41744 416,578.04411 c 0,2.29277 15.09606,22.80188 21.58503,29.32486 28.7761,28.92689 71.61204,41.61957 119.91497,35.5319 z"
           id="path2991"
           inkscape:connector-curvature="0" />
        <path
           style="fill:#31322f"
           d="m 270.5,643.85331 c -25.66567,-1.8869 -49.15994,-12.28972 -65.7581,-29.11646 -9.7038,-9.83744 -22.15172,-28.8786 -20.07292,-30.70488 C 186.6622,582.28087 235.81284,553 236.759,553 c 0.57755,0 2.38732,2.3625 4.02173,5.25 12.82418,22.65643 28.44487,31.07263 49.42005,26.62679 14.80897,-3.13886 21.80143,-12.24102 23.77103,-30.94295 0.59466,-5.6464 1.00049,-54.29854 1.01086,-121.18384 L 315,321 h 32.5 32.5 l -0.0309,118.25 c -0.0182,69.63383 -0.42597,121.29391 -0.99188,125.65376 -7.11442,54.8104 -46.53852,83.50319 -108.47724,78.94955 z m 252.43218,0.0709 c -43.96369,-3.0574 -78.2467,-21.84416 -100.05364,-54.8284 C 419.09535,583.3735 416,578.40024 416,578.04411 c 0,-0.62667 49.0247,-29.34888 52.12493,-30.53856 1.07767,-0.41354 2.68154,1.13925 5.37358,5.20248 9.34001,14.09731 22.93059,25.05303 37.11852,29.92219 10.41102,3.57297 29.37081,4.48823 39.31157,1.89772 18.56019,-4.83668 28.39628,-15.58434 28.39628,-31.02794 0,-16.69309 -9.46318,-26.16534 -39.34216,-39.37992 -7.4155,-3.27965 -20.15937,-8.91048 -28.31972,-12.51295 -41.82685,-18.46492 -62.17978,-37.93728 -71.23861,-68.15647 -3.54317,-11.81963 -4.54777,-34.72604 -2.05219,-46.79337 3.54289,-17.13162 10.38063,-29.64969 23.02755,-42.15729 13.97158,-13.81767 29.15243,-21.33994 50.60025,-25.07296 13.01915,-2.26601 39.84114,-1.4933 51.79389,1.49212 23.66609,5.91103 42.39847,19.23081 56.55253,40.21203 l 5.64564,8.36881 -2.56246,2 c -1.40935,1.1 -12.86722,8.6086 -25.46192,16.68579 l -22.89946,14.68579 -4.5327,-6.81816 c -9.08594,-13.66719 -19.49288,-19.95998 -34.41684,-20.81091 -15.66199,-0.893 -26.28354,4.28326 -31.78705,15.49096 -2.39289,4.87305 -2.81847,6.94305 -2.74672,13.35978 0.20278,18.13242 8.72374,25.33834 51.91509,43.90306 33.2523,14.29266 50.8626,24.59913 64.82967,37.9417 19.48521,18.61398 27.52484,40.13403 26.36112,70.56199 -0.64292,16.81071 -2.25188,23.64367 -8.74801,37.15145 -16.76065,34.85138 -59.28947,53.93924 -112.0106,50.27278 z"
           id="path2989"
           inkscape:connector-curvature="0" />
      </g>
      <g
         id="g2043"
         transform="matrix(1.0387174,0,0,1.0387174,-60.218095,22.541656)">
        <path
           style="stroke-width:0.033559"
           id="path878"
           d="m 162.00796,86.013433 -1.10745,-12.43025 h 12.1752 l -1.10744,12.423538 -4.99023,1.382631"
           fill="#e44d26"
           inkscape:connector-curvature="0" />
        <path
           style="stroke-width:0.033559"
           id="path880"
           d="M 166.98811,86.332244 V 74.603377 h 4.9768 l -0.94972,10.604641"
           fill="#f16529"
           inkscape:connector-curvature="0" />
        <path
           style="stroke-width:0.033559"
           id="path882"
           d="m 163.16239,76.123599 h 3.82572 v 1.523578 h -2.15449 l 0.14095,1.560493 h 2.01354 v 1.520222 h -3.40959 m 0.0671,0.765145 h 1.53029 l 0.10738,1.218192 1.7048,0.456402 v 1.590696 l -3.1277,-0.872534"
           fill="#ebebeb"
           inkscape:connector-curvature="0" />
        <path
           style="stroke-width:0.033559"
           id="path884"
           d="m 170.80041,76.123599 h -3.81901 v 1.523578 h 3.67806 m -0.13759,1.560493 h -3.54047 v 1.523578 h 1.8793 l -0.17786,1.979981 -1.70144,0.456402 v 1.583984 l 3.12099,-0.865822"
           fill="#fff"
           inkscape:connector-curvature="0" />
      </g>
      <g
         id="g909"
         transform="matrix(0.03670443,0,0,0.03670443,123.6436,89.425116)">
	<path
   id="path901"
   d="m 666.3,296.5 c 0,-32.5 -40.7,-63.3 -103.1,-82.4 14.4,-63.6 8,-114.2 -20.2,-130.4 -6.5,-3.8 -14.1,-5.6 -22.4,-5.6 v 22.3 c 4.6,0 8.3,0.9 11.4,2.6 13.6,7.8 19.5,37.5 14.9,75.7 -1.1,9.4 -2.9,19.3 -5.1,29.4 -19.6,-4.8 -41,-8.5 -63.5,-10.9 -13.5,-18.5 -27.5,-35.3 -41.6,-50 32.6,-30.3 63.2,-46.9 84,-46.9 V 78 c 0,0 0,0 0,0 -27.5,0 -63.5,19.6 -99.9,53.6 C 384.4,97.8 348.4,78.4 320.9,78.4 v 22.3 c 20.7,0 51.4,16.5 84,46.6 -14,14.7 -28,31.4 -41.3,49.9 -22.6,2.4 -44,6.1 -63.6,11 -2.3,-10 -4,-19.7 -5.2,-29 -4.7,-38.2 1.1,-67.9 14.6,-75.8 3,-1.8 6.9,-2.6 11.5,-2.6 V 78.5 c 0,0 0,0 0,0 -8.4,0 -16,1.8 -22.6,5.6 -28.1,16.2 -34.4,66.7 -19.9,130.1 -62.2,19.2 -102.7,49.9 -102.7,82.3 0,32.5 40.7,63.3 103.1,82.4 -14.4,63.6 -8,114.2 20.2,130.4 6.5,3.8 14.1,5.6 22.5,5.6 27.5,0 63.5,-19.6 99.9,-53.6 36.4,33.8 72.4,53.2 99.9,53.2 8.4,0 16,-1.8 22.6,-5.6 28.1,-16.2 34.4,-66.7 19.9,-130.1 62,-19.1 102.5,-49.9 102.5,-82.3 z M 536.1,229.8 c -3.7,12.9 -8.3,26.2 -13.5,39.5 -4.1,-8 -8.4,-16 -13.1,-24 -4.6,-8 -9.5,-15.8 -14.4,-23.4 14.2,2.1 27.9,4.7 41,7.9 z m -45.8,106.5 c -7.8,13.5 -15.8,26.3 -24.1,38.2 -14.9,1.3 -30,2 -45.2,2 -15.1,0 -30.2,-0.7 -45,-1.9 -8.3,-11.9 -16.4,-24.6 -24.2,-38 -7.6,-13.1 -14.5,-26.4 -20.8,-39.8 6.2,-13.4 13.2,-26.8 20.7,-39.9 7.8,-13.5 15.8,-26.3 24.1,-38.2 14.9,-1.3 30,-2 45.2,-2 15.1,0 30.2,0.7 45,1.9 8.3,11.9 16.4,24.6 24.2,38 7.6,13.1 14.5,26.4 20.8,39.8 -6.3,13.4 -13.2,26.8 -20.7,39.9 z m 32.3,-13 c 5.4,13.4 10,26.8 13.8,39.8 -13.1,3.2 -26.9,5.9 -41.2,8 4.9,-7.7 9.8,-15.6 14.4,-23.7 4.6,-8 8.9,-16.1 13,-24.1 z M 421.2,430 c -9.3,-9.6 -18.6,-20.3 -27.8,-32 9,0.4 18.2,0.7 27.5,0.7 9.4,0 18.7,-0.2 27.8,-0.7 -9,11.7 -18.3,22.4 -27.5,32 z m -74.4,-58.9 c -14.2,-2.1 -27.9,-4.7 -41,-7.9 3.7,-12.9 8.3,-26.2 13.5,-39.5 4.1,8 8.4,16 13.1,24 4.7,8 9.5,15.8 14.4,23.4 z M 420.7,163 c 9.3,9.6 18.6,20.3 27.8,32 -9,-0.4 -18.2,-0.7 -27.5,-0.7 -9.4,0 -18.7,0.2 -27.8,0.7 9,-11.7 18.3,-22.4 27.5,-32 z m -74,58.9 c -4.9,7.7 -9.8,15.6 -14.4,23.7 -4.6,8 -8.9,16 -13,24 -5.4,-13.4 -10,-26.8 -13.8,-39.8 13.1,-3.1 26.9,-5.8 41.2,-7.9 z m -90.5,125.2 c -35.4,-15.1 -58.3,-34.9 -58.3,-50.6 0,-15.7 22.9,-35.6 58.3,-50.6 8.6,-3.7 18,-7 27.7,-10.1 5.7,19.6 13.2,40 22.5,60.9 -9.2,20.8 -16.6,41.1 -22.2,60.6 -9.9,-3.1 -19.3,-6.5 -28,-10.2 z M 310,490 c -13.6,-7.8 -19.5,-37.5 -14.9,-75.7 1.1,-9.4 2.9,-19.3 5.1,-29.4 19.6,4.8 41,8.5 63.5,10.9 13.5,18.5 27.5,35.3 41.6,50 -32.6,30.3 -63.2,46.9 -84,46.9 -4.5,-0.1 -8.3,-1 -11.3,-2.7 z m 237.2,-76.2 c 4.7,38.2 -1.1,67.9 -14.6,75.8 -3,1.8 -6.9,2.6 -11.5,2.6 -20.7,0 -51.4,-16.5 -84,-46.6 14,-14.7 28,-31.4 41.3,-49.9 22.6,-2.4 44,-6.1 63.6,-11 2.3,10.1 4.1,19.8 5.2,29.1 z m 38.5,-66.7 c -8.6,3.7 -18,7 -27.7,10.1 -5.7,-19.6 -13.2,-40 -22.5,-60.9 9.2,-20.8 16.6,-41.1 22.2,-60.6 9.9,3.1 19.3,6.5 28.1,10.2 35.4,15.1 58.3,34.9 58.3,50.6 -0.1,15.7 -23,35.6 -58.4,50.6 z"
   fill="#61DAFB"
   inkscape:connector-curvature="0" />

	<polygon
   id="polygon903"
   points=""
   fill="#61DAFB" />

	<circle
   id="circle905"
   r="45.700001"
   cy="296.5"
   cx="420.89999"
   fill="#61DAFB" />

	<polygon
   id="polygon907"
   points=""
   fill="#61DAFB" />

</g>
      <g
         id="g964"
         transform="matrix(0.05125522,0,0,0.05125522,125.13144,160.46834)">
        <path
           id="path952"
           fill="url(#radialGradient-1)"
           d="M 128.03234,0.45551601 0.29790747,74.203103 V 221.69828 L 128.03234,295.44632 255.76723,221.69828 V 74.203103 Z"
           inkscape:connector-curvature="0"
           style="fill:url(#radialGradient-1)" />
        <path
           id="path954"
           fill="#6F95DB"
           d="M 128.03371,75.262634 64.690107,111.83419 v 73.14357 l 63.343603,36.57202 63.34451,-36.57202 v -73.14357 z"
           inkscape:connector-curvature="0" />
        <g
           id="g958"
           fill-opacity="0.1"
           fill="#FFFFFF">
          <path
             id="path956"
             d="M 128,0 0,74.24911 128,143.94306 256,74.704626 Z"
             inkscape:connector-curvature="0" />
        </g>
        <g
           id="g962"
           fill-opacity="0.1"
           fill="#FFFFFF"
           transform="translate(0,153.5089)">
          <path
             id="path960"
             d="M 128,0 0,67.871886 128,141.66548 255.54448,67.41637 Z"
             inkscape:connector-curvature="0" />
        </g>
      </g>
      <g
         id="g1240"
         transform="matrix(0.47301874,0,0,0.47301874,18.645366,91.278467)">
        <path
           style="stroke-width:0.168623"
           id="path1023"
           d="m 217.50319,69.533425 c 0,-0.310266 -0.16357,-0.595239 -0.43134,-0.749529 l -7.14219,-4.10934 c -0.12057,-0.07082 -0.25564,-0.107919 -0.39256,-0.112978 h -0.0739 c -0.13693,0.0051 -0.27199,0.04216 -0.39458,0.112978 l -7.14186,4.10934 c -0.26609,0.155133 -0.43201,0.440106 -0.43201,0.750372 l 0.0157,11.06841 c 0,0.153446 0.0793,0.296776 0.21415,0.372656 0.13153,0.08094 0.29678,0.08094 0.42831,0 l 4.24592,-2.431542 c 0.26811,-0.159518 0.43168,-0.441455 0.43168,-0.748686 v -5.170822 c 0,-0.30858 0.16356,-0.593553 0.43083,-0.747 l 1.80763,-1.041078 c 0.13423,-0.07757 0.28161,-0.116013 0.43168,-0.116013 0.14771,0 0.29846,0.03811 0.42898,0.115844 l 1.80679,1.040741 c 0.26744,0.153447 0.43168,0.43842 0.43168,0.747 v 5.170485 c 0,0.306893 0.16575,0.59018 0.43251,0.748685 l 4.24323,2.429857 c 0.13321,0.07925 0.29897,0.07925 0.43168,0 0.13085,-0.07588 0.21381,-0.21921 0.21381,-0.372657 z m 33.70232,5.762858 c 0,0.07706 -0.041,0.148388 -0.10791,0.186497 l -2.45313,1.414071 c -0.0666,0.03828 -0.14889,0.03828 -0.21533,0 l -2.45347,-1.414071 c -0.0675,-0.03828 -0.10791,-0.109605 -0.10791,-0.186497 v -2.832191 c 0,-0.07723 0.0405,-0.148388 0.10623,-0.187172 l 2.45178,-1.416432 c 0.0674,-0.03878 0.15007,-0.03878 0.21752,0 l 2.45346,1.416432 c 0.0675,0.03878 0.10792,0.109943 0.10792,0.187172 z m 0.66269,-20.97703 c -0.13388,-0.07453 -0.29677,-0.07251 -0.42897,0.0046 -0.13153,0.07757 -0.21281,0.219209 -0.21281,0.372656 V 65.657 c 0,0.107918 -0.0573,0.207406 -0.15075,0.261365 -0.0927,0.05396 -0.20824,0.05396 -0.30183,0 l -1.78909,-1.030454 c -0.26642,-0.154122 -0.59456,-0.154122 -0.862,0 L 240.9782,69.0112 c -0.26693,0.153447 -0.43168,0.43842 -0.43168,0.745313 v 8.249034 c 0,0.30858 0.16475,0.591867 0.43168,0.747 l 7.14455,4.126203 c 0.26676,0.153447 0.59524,0.153447 0.86284,0 l 7.14456,-4.127889 c 0.26642,-0.155134 0.43167,-0.43842 0.43167,-0.747 V 57.445353 c 0,-0.312964 -0.17031,-0.600803 -0.44348,-0.753744 z m 23.79152,18.070307 c 0.26541,-0.154121 0.42881,-0.438756 0.42881,-0.74565 v -1.999194 c 0,-0.307568 -0.16357,-0.59136 -0.42949,-0.746156 l -7.09902,-4.121144 c -0.26811,-0.155134 -0.59693,-0.155134 -0.86504,0 l -7.14287,4.12283 c -0.26811,0.155133 -0.43167,0.43842 -0.43167,0.747 v 8.245661 c 0,0.310266 0.16694,0.596925 0.43505,0.750372 l 7.09734,4.045264 c 0.26136,0.150075 0.58175,0.151761 0.84648,0.0051 l 4.29314,-2.386015 c 0.1349,-0.07588 0.2209,-0.219209 0.2209,-0.374342 0,-0.155134 -0.0826,-0.300149 -0.21752,-0.37603 l -7.18671,-4.124516 c -0.1349,-0.07588 -0.21753,-0.21921 -0.21753,-0.372657 v -2.586676 c 0,-0.154459 0.0809,-0.296776 0.21584,-0.373668 l 2.23594,-1.289966 c 0.13321,-0.07757 0.29678,-0.07757 0.42999,0 l 2.23762,1.289966 c 0.13322,0.07588 0.21584,0.219209 0.21584,0.372656 v 2.033593 c 0,0.153447 0.0826,0.296776 0.21584,0.374343 0.13321,0.07588 0.29846,0.07588 0.43167,-0.0017 z m 0,0"
           fill-rule="evenodd"
           fill="#333"
           inkscape:connector-curvature="0" />
        <path
           style="stroke-width:0.168623"
           id="path1025"
           d="m 268.02295,72.003751 c 0.0506,-0.02985 0.11399,-0.02985 0.16525,0 l 1.37091,0.790842 c 0.0513,0.02968 0.0826,0.08431 0.0826,0.143329 v 1.58337 c 0,0.05902 -0.0314,0.113651 -0.0826,0.143329 l -1.37091,0.790842 c -0.0513,0.02985 -0.11466,0.02985 -0.16525,0 l -1.37006,-0.790842 c -0.0523,-0.02968 -0.0843,-0.08431 -0.0843,-0.143329 v -1.58337 c 0,-0.05902 0.0303,-0.113652 0.0826,-0.143329 z m 0,0"
           fill-rule="evenodd"
           fill="#689f63"
           inkscape:connector-curvature="0" />
        <g
           id="g1029"
           transform="matrix(0.16862293,0,0,0.16862293,188.29061,26.607761)"
           clip-path="url(#a)">
          <path
             id="path1027"
             d="m 331.363,246.793 -118.715,-58.19 -60.87,124.174 118.712,58.193 z m 0,0"
             fill="url(#b)"
             inkscape:connector-curvature="0"
             style="fill:url(#b)" />
        </g>
        <g
           id="g1033"
           transform="matrix(0.16862293,0,0,0.16862293,188.29061,26.607761)"
           clip-path="url(#c)">
          <path
             id="path1031"
             d="m 144.07,264.004 83.825,113.453 110.86,-81.906 -83.83,-113.45 z m 0,0"
             fill="url(#d)"
             inkscape:connector-curvature="0"
             style="fill:url(#d)" />
        </g>
        <g
           id="g1037"
           transform="matrix(0.16862293,0,0,0.16862293,188.29061,26.607761)"
           clip-path="url(#e)">
          <path
             id="path1035"
             d="m 197.02,225.934 v 107.43 h 91.683 v -107.43 z m 0,0"
             fill="url(#f)"
             inkscape:connector-curvature="0"
             style="fill:url(#f)" />
        </g>
      </g>
      <g
         id="g1111"
         transform="matrix(0.05438729,0,0,0.05438729,137.63516,138.96529)">
        <polygon
           id="polygon1105"
           points="0,256 0,128 0,0 128,0 256,0 256,128 256,256 128,256 "
           transform="matrix(1,0,0,-1,0,256)"
           fill="#007ACC" />
        <path
           id="path1107"
           transform="rotate(-180,101.63464,176.14299)"
           fill="#FFFFFF"
           d="m 146.65813,223.43686 0.0813,-10.48381 H 130.07908 113.41877 V 165.61337 118.27369 H 101.63464 89.850513 v 47.33968 47.33968 H 73.190195 56.529878 v 10.28064 c 0,5.68889 0.121904,10.44317 0.284444,10.56508 0.121905,0.16254 20.39873,0.24381 44.982858,0.20317 l 44.73905,-0.1219 z"
           inkscape:connector-curvature="0" />
        <path
           id="path1109"
           transform="matrix(1,0,0,-1,0,352.38048)"
           fill="#FFFFFF"
           d="m 206.56663,234.27214 c 6.50159,-1.62539 11.45905,-4.51047 16.01016,-9.22412 2.35683,-2.51937 5.85143,-7.11111 6.13587,-8.20826 0.0813,-0.32508 -11.0527,-7.8019 -17.79809,-11.9873 -0.24381,-0.16254 -1.21905,0.89397 -2.31619,2.51937 -3.29143,4.79492 -6.7454,6.8673 -12.02794,7.23301 -7.76127,0.52826 -12.75936,-3.53524 -12.71873,-10.32127 0,-1.99111 0.28444,-3.16952 1.09714,-4.79492 1.70667,-3.53524 4.87619,-5.64825 14.83175,-9.95555 18.32635,-7.88318 26.16889,-13.08445 31.04508,-20.48 5.44508,-8.24889 6.66413,-21.41461 2.96635,-31.20762 -4.06349,-10.64635 -14.14095,-17.87937 -28.32254,-20.27683 -4.38857,-0.77206 -14.79111,-0.65016 -19.50476,0.20318 -10.28064,1.82857 -20.03302,6.90793 -26.04699,13.57206 -2.35682,2.60064 -6.94857,9.38667 -6.66412,9.87429 0.1219,0.16254 1.17841,0.81269 2.35682,1.50349 1.13778,0.65016 5.44508,3.12889 9.50857,5.48571 l 7.35492,4.26667 1.54413,-2.27556 c 2.15365,-3.29143 6.8673,-7.8019 9.71175,-9.30539 8.16761,-4.30731 19.38285,-3.69778 24.9092,1.25968 2.35683,2.15365 3.33207,4.38857 3.33207,7.68 0,2.96635 -0.36572,4.26667 -1.90985,6.50159 -1.99111,2.84444 -6.0546,5.2419 -17.59492,10.24 -13.20635,5.68889 -18.89523,9.22412 -24.0965,14.83174 -3.00699,3.2508 -5.85143,8.45207 -7.02985,12.8 -0.97523,3.61651 -1.21904,12.6781 -0.44698,16.33524 2.72254,12.75937 12.35302,21.65841 26.25016,24.29968 4.51048,0.85334 14.99428,0.52826 19.42349,-0.56889 z"
           inkscape:connector-curvature="0" />
      </g>
      <g
         id="g1135"
         transform="matrix(0.01047177,0,0,-0.01047177,67.697603,168.10131)">
        <path
           d="m 847.32,1145 c 0,-37 4,-67 11,-89 8,-22 18,-46 32,-72 5,-8 7,-16 7,-23 0,-10 -6,-20 -19,-30 l -63,-42 c -9,-6 -18,-9 -26,-9 -10,0 -20,5 -30,14 -14,15 -26,31 -36,47 -10,17 -20,36 -31,59 -78,-92 -176,-138 -294,-138 -84,0 -151,24 -200,72 -49,48 -74,112 -74,192 0,85 30,154 91,206 61,52 142,78 245,78 34,0 69,-3 106,-8 37,-5 75,-13 115,-22 v 73 c 0,76 -16,129 -47,160 -32,31 -86,46 -163,46 -35,0 -71,-4 -108,-13 -37,-9 -73,-20 -108,-34 -16,-7 -28,-11 -35,-13 -7,-2 -12,-3 -16,-3 -14,0 -21,10 -21,31 v 49 c 0,16 2,28 7,35 5,7 14,14 28,21 35,18 77,33 126,45 49,13 101,19 156,19 119,0 206,-27 262,-81 55,-54 83,-136 83,-246 v -324 z m -406,-152 c 33,0 67,6 103,18 36,12 68,34 95,64 16,19 28,40 34,64 6,24 10,53 10,87 v 42 c -29,7 -60,13 -92,17 -32,4 -63,6 -94,6 -67,0 -116,-13 -149,-40 -33,-27 -49,-65 -49,-115 0,-47 12,-82 37,-106 24,-25 59,-37 105,-37 z m 803,-108 c -18,0 -30,3 -38,10 -8,6 -15,20 -21,39 l -235,773 c -6,20 -9,33 -9,40 0,16 8,25 24,25 h 98 c 19,0 32,-3 39,-10 8,-6 14,-20 20,-39 l 168,-662 156,662 c 5,20 11,33 19,39 8,6 22,10 40,10 h 80 c 19,0 32,-3 40,-10 8,-6 15,-20 19,-39 l 158,-670 173,670 c 6,20 13,33 20,39 8,6 21,10 39,10 h 93 c 16,0 25,-8 25,-25 0,-5 -1,-10 -2,-16 -1,-6 -3,-14 -7,-25 l -241,-773 c -6,-20 -13,-33 -21,-39 -8,-6 -21,-10 -38,-10 h -86 c -19,0 -32,3 -40,10 -8,7 -15,20 -19,40 l -155,645 -154,-644 c -5,-20 -11,-33 -19,-40 -8,-7 -22,-10 -40,-10 z m 1285,-27 c -52,0 -104,6 -154,18 -50,12 -89,25 -115,40 -16,9 -27,19 -31,28 -4,9 -6,19 -6,28 v 51 c 0,21 8,31 23,31 6,0 12,-1 18,-3 6,-2 15,-6 25,-10 34,-15 71,-27 110,-35 40,-8 79,-12 119,-12 63,0 112,11 146,33 34,22 52,54 52,95 0,28 -9,51 -27,70 -18,19 -52,36 -101,52 l -145,45 c -73,23 -127,57 -160,102 -33,44 -50,93 -50,145 0,42 9,79 27,111 18,32 42,60 72,82 30,23 64,40 104,52 40,12 82,17 126,17 22,0 45,-1 67,-4 23,-3 44,-7 65,-11 20,-5 39,-10 57,-16 18,-6 32,-12 42,-18 14,-8 24,-16 30,-25 6,-8 9,-19 9,-33 v -47 c 0,-21 -8,-32 -23,-32 -8,0 -21,4 -38,12 -57,26 -121,39 -192,39 -57,0 -102,-9 -133,-28 -31,-19 -47,-48 -47,-89 0,-28 10,-52 30,-71 20,-19 57,-38 110,-55 l 142,-45 c 72,-23 124,-55 155,-96 31,-41 46,-88 46,-140 0,-43 -9,-82 -26,-116 -18,-34 -42,-64 -73,-88 -31,-25 -68,-43 -111,-56 -45,-14 -92,-21 -143,-21"
           style="fill:#252f3e;fill-opacity:1;fill-rule:nonzero;stroke:none"
           id="path1137"
           inkscape:connector-curvature="0" />
        <path
           d="m 2718.32,372 c -329,-243 -807,-372 -1218,-372 -576,0 -1095,213 -1486.9997,567 -31,28 -3,66 34,44 C 471.32,365 994.32,216 1535.32,216 c 365,0 766,76 1135,232 55,25 102,-36 48,-76 z m 137,156 c -42,54 -278,26 -385,13 -32,-4 -37,24 -8,45 188,132 497,94 533,50 36,-45 -10,-354 -186,-502 -27,-23 -53,-11 -41,19 40,99 129,322 87,375"
           style="fill:#ff9900;fill-opacity:1;fill-rule:nonzero;stroke:none"
           id="path1139"
           inkscape:connector-curvature="0" />
      </g>
      <g
         id="g1161"
         transform="matrix(0.01542525,0,0,0.01542525,69.003256,88.208949)">
		<path
   inkscape:connector-curvature="0"
   class="st0"
   d="m 1057.1,369.2 h 50.8 l 144.8,-144.8 7.1,-61.5 C 990.3,-75 579,-49.3 341.1,220.2 275,295 227.1,384.1 200.9,480.5 c 16.1,-6.6 34,-7.7 50.8,-3 l 289.6,-47.8 c 0,0 14.7,-24.4 22.4,-22.9 128.8,-141.5 345.6,-158 494.4,-37.6 z"
   id="path1153" />

		<path
   inkscape:connector-curvature="0"
   class="st1"
   d="m 1459,480.5 c -33.3,-122.6 -101.6,-232.8 -196.6,-317 l -203.2,203.2 c 85.8,70.1 134.7,175.8 132.6,286.6 v 36.1 c 99.9,0 180.9,81 180.9,180.9 0,99.9 -81,180.9 -180.9,180.9 H 830 l -36.1,36.6 v 217 l 36.1,36.1 h 361.8 c 259.8,2 472.1,-207 474.1,-466.8 1.2,-157.8 -76.5,-305.4 -206.9,-393.6 z"
   id="path1155" />

		<path
   inkscape:connector-curvature="0"
   class="st2"
   d="M 467.7,1338.6 H 829.5 V 1049 H 467.7 c -25.8,0 -51.2,-5.6 -74.7,-16.3 l -50.8,15.8 -145.8,144.8 -12.7,50.8 c 81.7,61.8 181.5,95 284,94.5 z"
   id="path1157" />

		<path
   inkscape:connector-curvature="0"
   class="st3"
   d="M 467.7,399.2 C 207.8,400.7 -1.5,612.6 0,872.5 c 0.9,145.1 68.6,281.7 183.7,370.1 L 393.5,1032.8 C 302.5,991.7 262,884.5 303.1,793.5 c 41.1,-91 148.3,-131.5 239.3,-90.4 40.1,18.1 72.2,50.3 90.4,90.4 L 842.6,583.7 C 753.4,466.9 614.6,398.6 467.7,399.2 Z"
   id="path1159" />

	</g>
      <g
         id="g2068">
        <path
           inkscape:connector-curvature="0"
           id="path20-5"
           style="fill:#ffffff;fill-opacity:1;fill-rule:nonzero;stroke:none;stroke-width:0.0149042"
           d="m 110.55455,148.58889 5.96248,5.89914 c 0.34309,0.33976 0.90001,0.33976 1.24358,0 l 1.23806,-1.22511 -1.57052,-1.55398 c -0.36511,0.12189 -0.7836,0.0402 -1.07448,-0.2477 -0.2924,-0.28968 -0.37448,-0.70727 -0.2481,-1.06974 l -1.51368,-1.49764 c -0.36621,0.12489 -0.78874,0.0443 -1.08115,-0.24565 -0.40883,-0.40438 -0.40883,-1.05966 0,-1.46418 0.4089,-0.40463 1.07115,-0.40463 1.4802,0 0.30741,0.30439 0.38341,0.75128 0.22774,1.12604 l 1.41166,1.39682 1.2e-4,-3.67563 c -0.0997,-0.0488 -0.19374,-0.11391 -0.27679,-0.19579 -0.40871,-0.40435 -0.40871,-1.05949 0,-1.46447 0.40881,-0.40434 1.07138,-0.40434 1.47979,0 0.40875,0.40498 0.40875,1.06012 0,1.46447 -0.101,0.0998 -0.2179,0.17529 -0.34261,0.22591 v 3.70971 c 0.12476,0.0505 0.24142,0.12542 0.34261,0.22593 0.30962,0.30611 0.38419,0.75574 0.22542,1.13191 l 1.54814,1.53212 4.08826,-4.04488 c 0.3435,-0.34004 0.3435,-0.89105 0,-1.23089 l -5.96242,-5.89913 c -0.34328,-0.33976 -0.90001,-0.33976 -1.24376,0 l -5.93455,5.8718 c -0.3434,0.33993 -0.3434,0.89112 0,1.23094" />
        <path
           d="m 125.42899,148.03055 -7.08306,-7.08258 c -0.40757,-0.40792 -1.06915,-0.40792 -1.47729,0 l -1.47074,1.47088 1.86568,1.86574 c 0.43372,-0.14642 0.93087,-0.0483 1.27642,0.29739 0.34735,0.34778 0.44484,0.84915 0.29472,1.28433 l 1.79816,1.7981 c 0.43503,-0.1499 0.93697,-0.0531 1.28434,0.29493 0.48565,0.48551 0.48565,1.27224 0,1.75792 -0.48574,0.4858 -1.27245,0.4858 -1.75838,0 -0.36518,-0.36546 -0.45549,-0.90201 -0.27054,-1.35194 l -1.67698,-1.67703 -1.3e-4,4.41299 c 0.11839,0.0587 0.23014,0.13684 0.32881,0.23508 0.48551,0.48547 0.48551,1.27203 0,1.75827 -0.48566,0.48545 -1.27274,0.48545 -1.75791,0 -0.48558,-0.48624 -0.48558,-1.2728 0,-1.75827 0.12,-0.11978 0.25885,-0.21046 0.40701,-0.27123 v -4.45394 c -0.14816,-0.0606 -0.2868,-0.15061 -0.40701,-0.27124 -0.36781,-0.36753 -0.4564,-0.90736 -0.26776,-1.35901 l -1.83912,-1.83947 -4.85659,4.85633 c -0.40807,0.40827 -0.40807,1.06983 0,1.47783 l 7.08298,7.08257 c 0.40779,0.40793 1.06915,0.40793 1.47751,0 l 7.04988,-7.04975 c 0.40793,-0.40814 0.40793,-1.0699 0,-1.4779"
           style="fill:#f03c2e;fill-opacity:1;fill-rule:nonzero;stroke:none;stroke-width:0.0177994"
           id="path20"
           inkscape:connector-curvature="0" />
      </g>
    </g>
  </g>
  <style
     type="text/css"
     id="style1147">
	.st0{fill:#EA4335;}
	.st1{fill:#4285F4;}
	.st2{fill:#34A853;}
	.st3{fill:#FBBC05;}
	.st4{fill:#5F6368;}
</style>
</svg>
